<?xml version="1.0" encoding="iso-8859-1"?>
<!-- Generator: Adobe Illustrator 19.0.0, SVG Export Plug-In . SVG Version: 6.00 Build 0)  -->
<svg version="1.1" id="Layer_1" xmlns="http://www.w3.org/2000/svg" xmlns:xlink="http://www.w3.org/1999/xlink" x="0px" y="0px"
	 viewBox="0 0 512 512" style="enable-background:new 0 0 512 512;" xml:space="preserve">
<path style="fill:#6F7A80;" d="M476.969,355.604c0,19.898-16.151,36.028-36.076,36.028H71.107c-19.923,0-36.075-16.13-36.075-36.028
	V112.415c0-19.896,16.152-36.027,36.075-36.027h369.785c19.925,0,36.076,16.131,36.076,36.027V355.604z"/>
<path style="opacity:0.1;fill:#FFFFFF;enable-background:new    ;" d="M440.892,76.388h-26.515
	c19.924,0,36.076,16.131,36.076,36.027v243.187c0,19.898-16.152,36.028-36.076,36.028h26.515c19.925,0,36.076-16.13,36.076-36.028
	V112.415C476.969,92.519,460.817,76.388,440.892,76.388z"/>
<path style="fill:#E2E9E3;" d="M75.894,357.806c-4.576,0-8.299-3.683-8.299-8.212V138.917c0-4.669,3.723-8.467,8.299-8.467h360.211
	c4.577,0,8.3,3.798,8.3,8.467v210.678c0,4.528-3.723,8.212-8.3,8.212H75.894z"/>
<path style="fill:#F2D1A5;" d="M436.105,130.45h-111.12v227.356h111.12c4.577,0,8.3-3.683,8.3-8.212V138.917
	C444.404,134.248,440.683,130.45,436.105,130.45z"/>
<g>
	<path style="fill:#DB5D45;" d="M436.105,120.001H75.894c-4.576,0-8.299,3.798-8.299,8.467v24.201h376.809v-24.201
		C444.404,123.799,440.683,120.001,436.105,120.001z"/>
	<path style="fill:#DB5D45;" d="M407.984,190.838H358.8c-4.465,0-8.084,3.62-8.084,8.084s3.62,8.083,8.084,8.083h49.183
		c4.465,0,8.084-3.62,8.084-8.083C416.068,194.458,412.448,190.838,407.984,190.838z"/>
	<path style="fill:#DB5D45;" d="M407.984,226.408H358.8c-4.465,0-8.084,3.62-8.084,8.084s3.62,8.084,8.084,8.084h49.183
		c4.465,0,8.084-3.62,8.084-8.084S412.448,226.408,407.984,226.408z"/>
	<path style="fill:#DB5D45;" d="M407.984,261.98H358.8c-4.465,0-8.084,3.62-8.084,8.084c0,4.465,3.62,8.084,8.084,8.084h49.183
		c4.465,0,8.084-3.62,8.084-8.084C416.068,265.598,412.448,261.98,407.984,261.98z"/>
	<path style="fill:#DB5D45;" d="M407.984,297.55H358.8c-4.465,0-8.084,3.618-8.084,8.083s3.62,8.084,8.084,8.084h49.183
		c4.465,0,8.084-3.62,8.084-8.084C416.068,301.169,412.448,297.55,407.984,297.55z"/>
</g>
<path style="opacity:0.2;fill:#FFFFFF;enable-background:new    ;" d="M436.105,120.001h-28.917c4.577,0,8.299,3.798,8.299,8.467
	v221.127c0,4.528-3.723,8.212-8.299,8.212h28.917c4.577,0,8.3-3.683,8.3-8.212V128.468
	C444.404,123.799,440.683,120.001,436.105,120.001z"/>
<path style="fill:#535D60;" d="M512,410.992c0,13.597-11.123,24.619-24.843,24.619H24.843C11.123,435.612,0,424.589,0,410.992l0,0
	c0-13.597,11.123-24.62,24.843-24.62h462.312C500.877,386.373,512,397.396,512,410.992L512,410.992z"/>
<path style="opacity:0.1;enable-background:new    ;" d="M95.973,349.595V128.468c0-4.669,3.723-8.467,8.298-8.467H75.894
	c-4.576,0-8.299,3.798-8.299,8.467v221.127c0,4.528,3.723,8.212,8.299,8.212h28.376C99.695,357.806,95.973,354.123,95.973,349.595z"
	/>
<path style="opacity:0.1;enable-background:new    ;" d="M65.213,410.992c0-13.597,11.123-24.62,24.843-24.62H24.845
	C11.123,386.373,0,397.396,0,410.992c0,13.596,11.123,24.619,24.843,24.619h65.212C76.336,435.612,65.213,424.589,65.213,410.992z"
	/>
<path style="opacity:0.2;fill:#FFFFFF;enable-background:new    ;" d="M487.156,386.373h-32.876
	c13.721,0,24.843,11.023,24.843,24.62s-11.123,24.619-24.843,24.619h32.876c13.721,0,24.843-11.022,24.843-24.619
	S500.877,386.373,487.156,386.373z"/>
<g>
	<path style="fill:#46D8BA;" d="M294.409,238.374V194.48c0-10.51-8.549-19.06-19.058-19.06H121.715
		c-10.509,0-19.058,8.55-19.058,19.06v43.894c0,10.51,8.549,19.059,19.058,19.059h153.637
		C285.86,257.434,294.409,248.883,294.409,238.374z"/>
	<path style="fill:#46D8BA;" d="M309.52,386.373H204.711c-7.236,0-13.101,5.876-13.101,13.123s5.865,13.123,13.101,13.123H309.52
		c7.235,0,13.101-5.876,13.101-13.123C322.621,392.248,316.755,386.373,309.52,386.373z"/>
</g>
<ellipse style="fill:#41484C;" cx="256" cy="97.364" rx="7.039" ry="6.904"/>
<g>
	<path style="fill:#6F7A80;" d="M110.741,288.927h175.583c4.465,0,8.084-3.62,8.084-8.084c0-4.465-3.62-8.084-8.084-8.084H110.741
		c-4.465,0-8.084,3.62-8.084,8.084C102.657,285.307,106.277,288.927,110.741,288.927z"/>
	<path style="fill:#6F7A80;" d="M286.325,308.329H110.741c-4.465,0-8.084,3.62-8.084,8.084c0,4.465,3.62,8.084,8.084,8.084h175.583
		c4.465,0,8.084-3.62,8.084-8.084C294.409,311.948,290.789,308.329,286.325,308.329z"/>
</g>
<g>
</g>
<g>
</g>
<g>
</g>
<g>
</g>
<g>
</g>
<g>
</g>
<g>
</g>
<g>
</g>
<g>
</g>
<g>
</g>
<g>
</g>
<g>
</g>
<g>
</g>
<g>
</g>
<g>
</g>
</svg>
