<?xml version="1.0" encoding="iso-8859-1"?>
<!-- Generator: Adobe Illustrator 19.0.0, SVG Export Plug-In . SVG Version: 6.00 Build 0)  -->
<svg version="1.1" id="Layer_1" xmlns="http://www.w3.org/2000/svg" xmlns:xlink="http://www.w3.org/1999/xlink" x="0px" y="0px"
	 viewBox="0 0 512 512" style="enable-background:new 0 0 512 512;" xml:space="preserve">
<path style="fill:#48587C;" d="M405.169,468.114c0,24.236-20.036,43.886-44.752,43.886H151.576
	c-24.715,0-44.752-19.648-44.752-43.886V43.886C106.824,19.648,126.861,0,151.576,0h208.842c24.716,0,44.752,19.648,44.752,43.886
	V468.114z"/>
<rect x="106.827" y="68.326" style="fill:#CAD0D1;" width="298.35" height="343.928"/>
<rect x="106.827" y="68.326" style="fill:#FCB63E;" width="298.35" height="37.846"/>
<polygon style="opacity:0.1;enable-background:new    ;" points="140.892,68.327 106.824,68.327 106.824,412.257 140.662,412.257 
	"/>
<path style="opacity:0.2;fill:#FFFFFF;enable-background:new    ;" d="M360.417,0h-32.626c24.716,0,44.752,19.648,44.752,43.886
	v424.229c0,24.236-20.036,43.886-44.752,43.886h32.626c24.716,0,44.752-19.648,44.752-43.886V43.886
	C405.169,19.648,385.133,0,360.417,0z"/>
<g>
	<ellipse style="fill:#384463;" cx="181.37" cy="35.589" rx="11.168" ry="10.952"/>
	<path style="fill:#384463;" d="M294.46,24.637h-76.927c-6.168,0-11.168,4.903-11.168,10.951c0,6.049,5,10.952,11.168,10.952h76.927
		c6.167,0,11.168-4.903,11.168-10.952C305.628,29.539,300.628,24.637,294.46,24.637z"/>
</g>
<g>
	<ellipse style="fill:#46D8BA;" cx="149.281" cy="35.589" rx="11.167" ry="10.952"/>
	<path style="fill:#46D8BA;" d="M275.39,440.32h-38.787c-10.709,0-19.392,8.515-19.392,19.017c0,10.503,8.682,19.017,19.392,19.017
		h38.786c10.71,0,19.392-8.514,19.392-19.017C294.781,448.835,286.099,440.32,275.39,440.32z"/>
</g>
<path style="fill:#FFFFFF;" d="M332.814,137.939H179.179c-10.509,0-19.058,8.55-19.058,19.059v43.895
	c0,10.509,8.549,19.059,19.058,19.059h153.636c10.509,0,19.058-8.55,19.058-19.059v-43.895
	C351.872,146.488,343.323,137.939,332.814,137.939z"/>
<g>
	<path style="fill:#6F7A80;" d="M168.204,251.445h175.585c4.465,0,8.083-3.62,8.083-8.084s-3.62-8.084-8.083-8.084H168.204
		c-4.464,0-8.084,3.62-8.084,8.084C160.121,247.826,163.74,251.445,168.204,251.445z"/>
	<path style="fill:#6F7A80;" d="M343.789,270.848H168.204c-4.464,0-8.084,3.62-8.084,8.084c0,4.465,3.62,8.084,8.084,8.084h175.585
		c4.465,0,8.083-3.62,8.083-8.084C351.872,274.466,348.252,270.848,343.789,270.848z"/>
	<path style="fill:#6F7A80;" d="M343.789,313.964h-73.406c-4.465,0-8.084,3.62-8.084,8.084c0,4.465,3.62,8.084,8.084,8.084h73.406
		c4.465,0,8.083-3.62,8.083-8.084C351.872,317.582,348.252,313.964,343.789,313.964z"/>
	<path style="fill:#6F7A80;" d="M343.789,349.534h-73.406c-4.465,0-8.084,3.62-8.084,8.084c0,4.465,3.62,8.084,8.084,8.084h73.406
		c4.465,0,8.083-3.62,8.083-8.084C351.872,353.152,348.252,349.534,343.789,349.534z"/>
</g>
<path style="fill:#FFFFFF;" d="M225.693,302.054h-42.653c-12.638,0-22.92,10.282-22.92,22.92v31.526
	c0,12.638,10.282,22.919,22.92,22.919h42.653c12.638,0,22.92-10.282,22.92-22.919v-31.526
	C248.612,312.336,238.33,302.054,225.693,302.054z"/>
<g>
</g>
<g>
</g>
<g>
</g>
<g>
</g>
<g>
</g>
<g>
</g>
<g>
</g>
<g>
</g>
<g>
</g>
<g>
</g>
<g>
</g>
<g>
</g>
<g>
</g>
<g>
</g>
<g>
</g>
</svg>
