<?xml version="1.0" encoding="iso-8859-1"?>
<!-- Generator: Adobe Illustrator 19.0.0, SVG Export Plug-In . SVG Version: 6.00 Build 0)  -->
<svg version="1.1" id="Layer_1" xmlns="http://www.w3.org/2000/svg" xmlns:xlink="http://www.w3.org/1999/xlink" x="0px" y="0px"
	 viewBox="0 0 512 512" style="enable-background:new 0 0 512 512;" xml:space="preserve">
<path style="fill:#E2E9E3;" d="M512,421.349c0,18.894-15.282,34.21-34.135,34.21H34.133C15.282,455.559,0,440.243,0,421.349V90.65
	c0-18.894,15.282-34.21,34.133-34.21h443.733C496.718,56.44,512,71.756,512,90.65L512,421.349L512,421.349z"/>
<path style="opacity:0.2;fill:#FFFFFF;enable-background:new    ;" d="M477.865,56.44h-33.772c18.852,0,34.135,15.316,34.135,34.21
	v330.7c0,18.894-15.283,34.21-34.135,34.21h33.772c18.853,0,34.135-15.316,34.135-34.21V90.65
	C512,71.756,496.718,56.44,477.865,56.44z"/>
<path style="fill:#789DB0;" d="M53.566,405.781c-5.747,0-10.449-4.702-10.449-10.449V116.667c0-5.747,4.702-10.449,10.449-10.449
	h404.87c5.747,0,10.449,4.702,10.449,10.449v278.666c0,5.747-4.702,10.449-10.449,10.449L53.566,405.781L53.566,405.781z"/>
<circle style="fill:#384463;" cx="256" cy="81.38" r="11.858"/>
<path style="fill:#F2D1A5;" d="M308.514,337.063c0,7.022-5.691,12.713-12.713,12.713H116.158c-7.023,0-12.713-5.692-12.713-12.713
	v-50.855c0-7.022,5.691-12.714,12.713-12.714h179.643c7.023,0,12.713,5.693,12.713,12.714V337.063z"/>
<circle style="fill:#384463;" cx="256" cy="81.38" r="11.856"/>
<g>
	<path style="fill:#48587C;" d="M400.225,175.697H115.963c-8.154,0-14.764,6.61-14.764,14.764v44.845
		c0,8.154,6.61,14.764,14.764,14.764h284.262c8.154,0,14.764-6.61,14.764-14.764v-44.845
		C414.99,182.307,408.38,175.697,400.225,175.697z"/>
	<path style="fill:#48587C;" d="M406.905,267.317h-71.682c-4.465,0-8.084,3.62-8.084,8.084c0,4.465,3.62,8.084,8.084,8.084h71.682
		c4.465,0,8.084-3.62,8.084-8.084C414.99,270.936,411.37,267.317,406.905,267.317z"/>
	<path style="fill:#48587C;" d="M406.905,302.888h-71.682c-4.465,0-8.084,3.62-8.084,8.084c0,4.465,3.62,8.084,8.084,8.084h71.682
		c4.465,0,8.084-3.62,8.084-8.084S411.37,302.888,406.905,302.888z"/>
	<path style="fill:#48587C;" d="M406.905,338.459h-71.682c-4.465,0-8.084,3.62-8.084,8.083c0,4.465,3.62,8.084,8.084,8.084h71.682
		c4.465,0,8.084-3.62,8.084-8.084C414.99,342.078,411.37,338.459,406.905,338.459z"/>
</g>
<g>
	<path style="fill:#46D8BA;" d="M278.231,428.882h-44.464c-7.369,0-13.339,5.972-13.339,13.339c0,7.368,5.971,13.339,13.339,13.339
		h44.464c7.367,0,13.339-5.972,13.339-13.339C291.57,434.853,285.598,428.882,278.231,428.882z"/>
	<path style="fill:#46D8BA;" d="M458.434,106.218H53.566c-5.747,0-10.449,4.702-10.449,10.449v26.064h425.768v-26.064
		C468.883,110.92,464.181,106.218,458.434,106.218z"/>
</g>
<path style="opacity:0.1;enable-background:new    ;" d="M75.783,395.332V116.667c0-5.747,4.702-10.449,10.449-10.449H53.566
	c-5.747,0-10.449,4.702-10.449,10.449v278.666c0,5.747,4.702,10.449,10.449,10.449h32.668
	C80.485,405.781,75.783,401.079,75.783,395.332z"/>
<path style="opacity:0.2;fill:#FFFFFF;enable-background:new    ;" d="M458.434,106.218h-21.667c5.747,0,10.449,4.702,10.449,10.449
	v278.666c0,5.747-4.702,10.449-10.449,10.449h21.667c5.747,0,10.449-4.702,10.449-10.449V116.667
	C468.883,110.92,464.181,106.218,458.434,106.218z"/>
<g>
</g>
<g>
</g>
<g>
</g>
<g>
</g>
<g>
</g>
<g>
</g>
<g>
</g>
<g>
</g>
<g>
</g>
<g>
</g>
<g>
</g>
<g>
</g>
<g>
</g>
<g>
</g>
<g>
</g>
</svg>
