<?xml version="1.0" encoding="iso-8859-1"?>
<!-- Generator: Adobe Illustrator 19.0.0, SVG Export Plug-In . SVG Version: 6.00 Build 0)  -->
<svg version="1.1" id="Layer_1" xmlns="http://www.w3.org/2000/svg" xmlns:xlink="http://www.w3.org/1999/xlink" x="0px" y="0px"
	 viewBox="0 0 512 512" style="enable-background:new 0 0 512 512;" xml:space="preserve">
<path style="fill:#789DB0;" d="M103.67,125.245c0,15.785-12.63,28.583-28.209,28.583H54.303c-15.579,0-28.209-12.798-28.209-28.583
	v-7.146c0-15.785,12.63-28.583,28.209-28.583H75.46c15.579,0,28.209,12.798,28.209,28.583
	C103.67,118.099,103.67,125.245,103.67,125.245z"/>
<path style="fill:#48587C;" d="M469.686,118.098H365.102l-19.736-34.636c-6.441-11.304-18.344-18.266-31.225-18.266H197.857
	c-12.88,0-24.784,6.963-31.224,18.266l-19.736,34.636H42.313C18.945,118.098,0,137.294,0,160.973V403.93
	c0,23.678,18.945,42.874,42.313,42.874h427.373c23.369,0,42.314-19.196,42.314-42.874V160.973
	C512,137.294,493.055,118.098,469.686,118.098z"/>
<path style="fill:#CAD0D1;" d="M0,353.903v50.026c0,23.678,18.945,42.874,42.313,42.874h427.373
	c23.369,0,42.314-19.196,42.314-42.874v-50.026H0z"/>
<g>
	<ellipse style="fill:#46D8BA;" cx="347.011" cy="363.394" rx="36.032" ry="36.51"/>
	<path style="fill:#46D8BA;" d="M317.548,125.894v-8.315c0-9.185-7.348-16.63-16.413-16.63h-90.27
		c-9.066,0-16.414,7.445-16.414,16.63v8.315c0,9.185,7.349,16.631,16.414,16.631h90.27
		C310.2,142.525,317.548,135.08,317.548,125.894z"/>
</g>
<path style="opacity:0.2;fill:#FFFFFF;enable-background:new    ;" d="M469.686,118.098H436.81
	c23.368,0,42.314,19.196,42.314,42.874v242.957c0,23.678-18.946,42.874-42.314,42.874h32.876c23.369,0,42.314-19.196,42.314-42.874
	V160.973C512,137.294,493.055,118.098,469.686,118.098z"/>
<path style="opacity:0.1;enable-background:new    ;" d="M43.655,403.929V160.973c0-23.678,18.945-42.874,42.313-42.874H42.313
	C18.945,118.098,0,137.294,0,160.973V403.93c0,23.678,18.945,42.874,42.313,42.874h43.655
	C62.6,446.803,43.655,427.607,43.655,403.929z"/>
<ellipse style="fill:#789DB0;" cx="256" cy="292.425" rx="112.807" ry="114.301"/>
<path style="opacity:0.2;fill:#FFFFFF;enable-background:new    ;" d="M256,178.122c-33.332,0-63.284,14.653-83.934,37.943
	c19.645-16.828,45.039-26.979,72.779-26.979c62.3,0,112.805,51.174,112.805,114.299c0,29.352-10.923,56.116-28.871,76.357
	c24.477-20.966,40.024-52.301,40.024-87.32C368.804,229.296,318.3,178.122,256,178.122z"/>
<ellipse style="fill:#DB5D45;" cx="256" cy="292.425" rx="80.397" ry="81.462"/>
<ellipse transform="matrix(0.7071 0.7071 -0.7071 0.7071 281.7495 -95.3742)" style="fill:#48587C;" cx="256.002" cy="292.415" rx="53.077" ry="52.38"/>
<path style="opacity:0.3;fill:#384463;enable-background:new    ;" d="M235.27,313.151c-17.887-17.888-20.486-45.196-7.723-65.493
	c-3.224,2.028-6.276,4.428-9.079,7.232c-20.457,20.457-20.238,53.845,0.491,74.573c20.729,20.728,54.115,20.947,74.572,0.49
	c2.805-2.805,5.205-5.856,7.233-9.08C280.466,333.639,253.159,331.039,235.27,313.151z"/>
<path style="opacity:0.2;fill:#FFFFFF;enable-background:new    ;" d="M301.134,100.949h-22.528c9.066,0,16.413,7.445,16.413,16.63
	v8.315c0,9.185-7.348,16.631-16.413,16.631h22.528c9.066,0,16.413-7.446,16.413-16.631v-8.315
	C317.548,108.394,310.2,100.949,301.134,100.949z"/>
<ellipse style="fill:#DB5D45;" cx="442.89" cy="184.56" rx="20.854" ry="21.131"/>
<path style="fill:#FFFFFF;" d="M280.69,300.506c-4.465,0-8.084-3.62-8.084-8.084c0-9.335-7.448-16.93-16.604-16.93
	c-4.466,0-8.084-3.62-8.084-8.084c0-4.465,3.62-8.084,8.084-8.084c18.07,0,32.772,14.848,32.772,33.099
	C288.773,296.886,285.155,300.506,280.69,300.506z"/>
<g>
</g>
<g>
</g>
<g>
</g>
<g>
</g>
<g>
</g>
<g>
</g>
<g>
</g>
<g>
</g>
<g>
</g>
<g>
</g>
<g>
</g>
<g>
</g>
<g>
</g>
<g>
</g>
<g>
</g>
</svg>
