<?xml version="1.0" encoding="iso-8859-1"?>
<!-- Generator: Adobe Illustrator 19.0.0, SVG Export Plug-In . SVG Version: 6.00 Build 0)  -->
<svg version="1.1" id="Layer_1" xmlns="http://www.w3.org/2000/svg" xmlns:xlink="http://www.w3.org/1999/xlink" x="0px" y="0px"
	 viewBox="0 0 512 512" style="enable-background:new 0 0 512 512;" xml:space="preserve">
<path style="fill:#DB5D45;" d="M257.668,478.657c-11.751,0-22.992-4.797-31.12-13.282L98.956,332.201
	c-0.828-0.865-1.614-1.756-2.356-2.67l-57.711-60.235C13.81,243.121,0,208.411,0,171.561C0.001,134.709,13.811,100,38.888,73.825
	c25.014-26.107,58.268-40.482,93.641-40.482c35.372,0,68.627,14.377,93.639,40.482l31.601,32.983l28.066-29.295
	c25.013-26.106,58.267-40.481,93.639-40.481c35.373,0,68.627,14.377,93.639,40.481C498.189,103.689,512,138.399,512,175.25
	s-13.81,71.561-38.888,97.736l-184.324,192.39C280.66,473.86,269.419,478.657,257.668,478.657z"/>
<g style="opacity:0.1;">
	<path id="SVGCleanerId_0" d="M82.544,269.296c-25.078-26.176-38.889-60.885-38.889-97.736c0-36.851,13.811-71.561,38.889-97.736
		c19.788-20.654,44.738-33.957,71.812-38.617c-7.147-1.23-14.439-1.865-21.827-1.865c-35.373,0-68.627,14.376-93.641,40.482
		C13.81,100,0,134.71,0,171.561s13.81,71.56,38.888,97.736l187.659,196.079c8.128,8.485,19.37,13.282,31.12,13.282
		c7.748,0,15.268-2.097,21.828-5.951C276.107,470.716,82.544,269.296,82.544,269.296z"/>
	<g>
		<path id="SVGCleanerId_0_1_" d="M82.544,269.296c-25.078-26.176-38.889-60.885-38.889-97.736
			c0-36.851,13.811-71.561,38.889-97.736c19.788-20.654,44.738-33.957,71.812-38.617c-7.147-1.23-14.439-1.865-21.827-1.865
			c-35.373,0-68.627,14.376-93.641,40.482C13.81,100,0,134.71,0,171.561s13.81,71.56,38.888,97.736l187.659,196.079
			c8.128,8.485,19.37,13.282,31.12,13.282c7.748,0,15.268-2.097,21.828-5.951C276.107,470.716,82.544,269.296,82.544,269.296z"/>
	</g>
</g>
<path style="fill:#FFFFFF;" d="M476.148,211.269c-0.67,0-1.35-0.084-2.028-0.259c-4.323-1.117-6.922-5.526-5.805-9.849
	c2.166-8.384,3.264-17.102,3.264-25.91c0-26.38-9.822-51.159-27.655-69.773c-17.314-18.072-40.205-28.024-64.451-28.024
	c-4.465,0-8.084-3.62-8.084-8.084s3.62-8.084,8.084-8.084c28.697,0,55.733,11.722,76.126,33.007
	c20.731,21.639,32.148,50.39,32.148,80.958c0,10.171-1.271,20.249-3.778,29.954C483.028,208.85,479.745,211.269,476.148,211.269z"/>
<g>
</g>
<g>
</g>
<g>
</g>
<g>
</g>
<g>
</g>
<g>
</g>
<g>
</g>
<g>
</g>
<g>
</g>
<g>
</g>
<g>
</g>
<g>
</g>
<g>
</g>
<g>
</g>
<g>
</g>
</svg>
