<?xml version="1.0" encoding="iso-8859-1"?>
<!-- Generator: Adobe Illustrator 19.0.0, SVG Export Plug-In . SVG Version: 6.00 Build 0)  -->
<svg version="1.1" id="Layer_1" xmlns="http://www.w3.org/2000/svg" xmlns:xlink="http://www.w3.org/1999/xlink" x="0px" y="0px"
	 viewBox="0 0 512 512" style="enable-background:new 0 0 512 512;" xml:space="preserve">
<path style="fill:#F2D1A5;" d="M512,275.12c0-19.682-11.247-36.756-27.727-45.314c16.48-8.557,27.727-25.632,27.727-45.313
	c0-28.256-23.167-51.162-51.746-51.162H325.402H313.14V63.529c0-34.915-28.628-63.219-63.944-63.219
	c-35.313,0-63.944,28.304-63.944,63.219v76.464c-50.104,17.595-86.296,68.114-86.296,127.701v104.023
	c0,74.207,56.123,134.362,125.353,134.362h20.082h81.01h105.281c28.58,0,51.747-22.906,51.747-51.161
	c0-17.216-8.61-32.434-21.793-41.706c21.177-6.411,36.579-25.886,36.579-48.923c0-16.603-8.004-31.351-20.402-40.698
	C497.267,316.759,512,297.648,512,275.12z"/>
<g style="opacity:0.2;">
	<path style="fill:#FFFFFF;" d="M268.407,63.529v69.802h12.262h32.47V63.529c0-34.915-28.628-63.219-63.944-63.219
		c-7.869,0-15.403,1.415-22.366,3.984C251.113,13.26,268.407,36.394,268.407,63.529z"/>
	<path style="fill:#FFFFFF;" d="M512,275.12c0-19.682-11.247-36.756-27.727-45.314c16.48-8.557,27.727-25.632,27.727-45.313
		c0-28.256-23.167-51.162-51.746-51.162H415.52c28.579,0,51.746,22.906,51.746,51.162c0,19.681-11.247,36.756-27.727,45.313
		c16.48,8.557,27.727,25.632,27.727,45.314c0,22.528-14.733,41.639-35.186,48.47c12.398,9.346,20.402,24.094,20.402,40.698
		c0,23.037-15.402,42.512-36.579,48.923c13.183,9.272,21.793,24.49,21.793,41.706c0,28.256-23.167,51.161-51.747,51.161h44.732
		c28.58,0,51.748-22.906,51.748-51.161c0-17.216-8.61-32.434-21.793-41.706c21.177-6.411,36.579-25.886,36.579-48.923
		c0-16.603-8.004-31.351-20.402-40.698C497.267,316.759,512,297.648,512,275.12z"/>
</g>
<path style="fill:#384463;" d="M128.607,472.696c0,21.536-17.657,38.995-39.44,38.995H39.441C17.658,511.691,0,494.233,0,472.696
	V182.79c0-21.536,17.658-38.995,39.44-38.995h49.727c21.783,0,39.44,17.457,39.44,38.995v289.906H128.607z"/>
<path style="opacity:0.1;enable-background:new    ;" d="M122.783,489.157H73.056c-21.782,0-39.44-17.457-39.44-38.993V160.257
	c0-5.86,1.316-11.412,3.657-16.4C16.5,144.969,0,161.973,0,182.79v289.906c0,21.536,17.658,38.995,39.44,38.995h49.727
	c15.855,0,29.517-9.255,35.783-22.595C124.232,489.134,123.51,489.157,122.783,489.157z"/>
<ellipse style="fill:#46D8BA;" cx="64.303" cy="225.834" rx="26.904" ry="26.373"/>
<g>
</g>
<g>
</g>
<g>
</g>
<g>
</g>
<g>
</g>
<g>
</g>
<g>
</g>
<g>
</g>
<g>
</g>
<g>
</g>
<g>
</g>
<g>
</g>
<g>
</g>
<g>
</g>
<g>
</g>
</svg>
