<?xml version="1.0" encoding="iso-8859-1"?>
<!-- Generator: Adobe Illustrator 19.0.0, SVG Export Plug-In . SVG Version: 6.00 Build 0)  -->
<svg version="1.1" id="Layer_1" xmlns="http://www.w3.org/2000/svg" xmlns:xlink="http://www.w3.org/1999/xlink" x="0px" y="0px"
	 viewBox="0 0 512 512" style="enable-background:new 0 0 512 512;" xml:space="preserve">
<path style="fill:#FCB63E;" d="M381.908,503.744c-8.319,0-16.671-1.997-24.317-6.046L256,443.917l-101.589,53.782
	c-7.647,4.048-15.999,6.046-24.318,6.046c-10.839,0.002-21.621-3.389-30.727-10.052c-16.097-11.776-24.157-31.733-20.795-51.479
	l19.403-113.911L15.785,247.63C1.539,233.647-3.588,212.73,2.56,193.675c6.148-19.054,22.505-32.94,42.193-35.821l113.581-16.619
	l50.795-103.641C217.934,19.629,236.104,8.255,256,8.255s38.067,11.374,46.871,29.34l50.795,103.641l113.58,16.619
	c19.689,2.881,36.046,16.768,42.194,35.821c6.148,19.055,1.022,39.971-13.225,53.954l-82.187,80.673l19.402,113.911
	c3.362,19.747-4.699,39.703-20.793,51.479C403.53,500.354,392.745,503.744,381.908,503.744z"/>
<path style="opacity:0.1;enable-background:new    ;" d="M163.897,492.127c-10.839,0.001-21.62-3.39-30.727-10.053
	c-16.097-11.776-24.157-31.733-20.795-51.479l19.403-113.911L49.59,236.012c-14.247-13.985-19.375-34.901-13.226-53.956
	c3.354-10.397,9.753-19.248,18.069-25.621l-9.68,1.416c-19.688,2.881-36.046,16.768-42.193,35.821
	c-6.148,19.055-1.021,39.971,13.225,53.956L97.973,328.3L78.571,442.214c-3.362,19.745,4.698,39.703,20.795,51.479
	c9.106,6.663,19.889,10.054,30.727,10.052c8.318,0,16.671-1.998,24.318-6.046L165,492.093
	C164.631,492.102,164.264,492.127,163.897,492.127z"/>
<path style="opacity:0.2;fill:#FFFFFF;enable-background:new    ;" d="M509.441,193.675c-6.148-19.054-22.505-32.94-42.194-35.821
	l-113.58-16.619l68.578,16.619c19.689,2.881,36.046,16.768,42.194,35.821c6.148,19.055,1.022,39.971-13.225,53.954l-82.187,80.673
	l19.402,113.911c3.362,19.747-4.699,39.703-20.794,51.479c-2.608,1.909-5.359,3.54-8.206,4.909
	c7.139,3.428,14.819,5.143,22.479,5.143c10.838,0,21.622-3.39,30.728-10.052c16.095-11.776,24.156-31.732,20.794-51.479
	l-19.402-113.911l82.187-80.673C510.462,233.647,515.588,212.73,509.441,193.675z"/>
<g>
	<path style="fill:#384463;" d="M256,347.451c-34.529,0-62.62-28.091-62.62-62.62c0-4.465,3.62-8.084,8.084-8.084
		c4.465,0,8.084,3.62,8.084,8.084c0,25.614,20.837,46.452,46.452,46.452c25.614,0,46.451-20.838,46.451-46.452
		c0-4.465,3.62-8.084,8.084-8.084s8.084,3.62,8.084,8.084C318.621,319.359,290.529,347.451,256,347.451z"/>
	<circle style="fill:#384463;" cx="200.642" cy="229.481" r="19.831"/>
	<circle style="fill:#384463;" cx="311.359" cy="229.481" r="19.831"/>
</g>
<g>
</g>
<g>
</g>
<g>
</g>
<g>
</g>
<g>
</g>
<g>
</g>
<g>
</g>
<g>
</g>
<g>
</g>
<g>
</g>
<g>
</g>
<g>
</g>
<g>
</g>
<g>
</g>
<g>
</g>
</svg>
