<?xml version="1.0" encoding="iso-8859-1"?>
<!-- Generator: Adobe Illustrator 19.0.0, SVG Export Plug-In . SVG Version: 6.00 Build 0)  -->
<svg version="1.1" id="Layer_1" xmlns="http://www.w3.org/2000/svg" xmlns:xlink="http://www.w3.org/1999/xlink" x="0px" y="0px"
	 viewBox="0 0 512.001 512.001" style="enable-background:new 0 0 512.001 512.001;" xml:space="preserve">
<path style="fill:#DB5D45;" d="M201.781,512c3.82,0,7.638-0.982,11.059-2.948c6.816-3.916,11.014-11.141,11.014-18.959v-38.011
	h138.068c66.948,0,121.415-54.047,121.415-120.48c0-24.73-7.495-48.491-21.674-68.715c-5.427-7.744-11.747-14.843-18.786-21.096
	c-4.128-3.671-9.399-5.59-14.733-5.59c-3.045,0-6.112,0.625-9.001,1.906c-7.949,3.523-13.071,11.359-13.071,19.999v39.543
	c0,35.633-29.213,64.622-65.122,64.622H223.855v-44.348c0-7.817-4.198-15.042-11.014-18.96c-3.421-1.963-7.241-2.947-11.059-2.947
	c-3.794,0-7.59,0.97-10.994,2.91L39.741,385.014c-6.851,3.906-11.078,11.151-11.078,18.994c0,7.844,4.228,15.088,11.078,18.995
	l151.046,86.086C194.19,511.029,197.987,512,201.781,512z"/>
<g style="opacity:0.2;">
	<path style="fill:#FFFFFF;" d="M408.235,260.329c2.89-1.281,5.956-1.906,9.001-1.906c5.333,0,10.603,1.919,14.732,5.59
		c7.038,6.255,13.358,13.353,18.786,21.096c14.178,20.224,21.673,43.986,21.673,68.715c0,14.454-2.58,28.322-7.305,41.175
		c11.539-18.428,18.215-40.152,18.215-63.397c0-24.73-7.495-48.491-21.674-68.715c-5.427-7.744-11.747-14.843-18.786-21.096
		c-4.128-3.671-9.399-5.59-14.733-5.59c-3.045,0-6.112,0.625-9.001,1.906c-7.949,3.523-13.071,11.359-13.071,19.999v3.343
		C406.77,261.043,407.486,260.66,408.235,260.329z"/>
</g>
<g style="opacity:0.1;">
	<path id="SVGCleanerId_0" d="M213.257,487.015L62.212,400.93c-6.851-3.907-11.079-11.151-11.079-18.995
		c0-1.215,0.113-2.415,0.31-3.59l-11.703,6.67c-6.851,3.906-11.078,11.151-11.078,18.994c0,7.844,4.228,15.088,11.078,18.995
		l151.046,86.086c3.403,1.94,7.201,2.911,10.994,2.911c3.82,0,7.638-0.982,11.059-2.948c6.816-3.916,11.014-11.141,11.014-18.959
		v-0.18C220.193,489.848,216.541,488.888,213.257,487.015z"/>
	<g>
		<path id="SVGCleanerId_0_1_" d="M213.257,487.015L62.212,400.93c-6.851-3.907-11.079-11.151-11.079-18.995
			c0-1.215,0.113-2.415,0.31-3.59l-11.703,6.67c-6.851,3.906-11.078,11.151-11.078,18.994c0,7.844,4.228,15.088,11.078,18.995
			l151.046,86.086c3.403,1.94,7.201,2.911,10.994,2.911c3.82,0,7.638-0.982,11.059-2.948c6.816-3.916,11.014-11.141,11.014-18.959
			v-0.18C220.193,489.848,216.541,488.888,213.257,487.015z"/>
	</g>
</g>
<path style="fill:#46D8BA;" d="M310.219,0c-3.82,0-7.638,0.982-11.059,2.948c-6.816,3.916-11.014,11.141-11.014,18.959v38.012
	H150.078c-66.948,0-121.415,54.047-121.415,120.48c0,24.73,7.496,48.491,21.674,68.715c5.427,7.744,11.747,14.843,18.786,21.096
	c4.127,3.671,9.398,5.59,14.732,5.59c3.045,0,6.112-0.625,9.001-1.906c7.949-3.524,13.071-11.359,13.071-19.999V214.35
	c0-35.633,29.213-64.621,65.122-64.621h117.095v44.348c0,7.817,4.198,15.042,11.014,18.96c3.421,1.963,7.241,2.947,11.059,2.947
	c3.794,0,7.59-0.97,10.994-2.91l151.046-86.087c6.851-3.907,11.079-11.151,11.079-18.994c0-7.845-4.228-15.089-11.079-18.995
	L321.213,2.911C317.811,0.971,314.013,0,310.219,0z"/>
<g style="opacity:0.1;">
	<path id="SVGCleanerId_1" d="M103.765,251.671c-2.89,1.281-5.956,1.906-9.001,1.906c-5.333,0-10.603-1.919-14.732-5.59
		c-7.038-6.255-13.358-13.353-18.786-21.096c-14.178-20.224-21.673-43.986-21.673-68.715c0-14.454,2.58-28.322,7.306-41.175
		c-11.54,18.428-18.216,40.152-18.216,63.397c0,24.73,7.496,48.491,21.674,68.715c5.427,7.744,11.747,14.843,18.786,21.096
		c4.127,3.671,9.398,5.59,14.732,5.59c3.045,0,6.112-0.625,9.001-1.906c7.949-3.524,13.071-11.359,13.071-19.999v-3.343
		C105.23,250.957,104.514,251.339,103.765,251.671z"/>
	<g>
		<path id="SVGCleanerId_1_1_" d="M103.765,251.671c-2.89,1.281-5.956,1.906-9.001,1.906c-5.333,0-10.603-1.919-14.732-5.59
			c-7.038-6.255-13.358-13.353-18.786-21.096c-14.178-20.224-21.673-43.986-21.673-68.715c0-14.454,2.58-28.322,7.306-41.175
			c-11.54,18.428-18.216,40.152-18.216,63.397c0,24.73,7.496,48.491,21.674,68.715c5.427,7.744,11.747,14.843,18.786,21.096
			c4.127,3.671,9.398,5.59,14.732,5.59c3.045,0,6.112-0.625,9.001-1.906c7.949-3.524,13.071-11.359,13.071-19.999v-3.343
			C105.23,250.957,104.514,251.339,103.765,251.671z"/>
	</g>
</g>
<path style="opacity:0.2;fill:#FFFFFF;enable-background:new    ;" d="M472.259,88.996L321.213,2.911
	C317.811,0.971,314.013,0,310.219,0c-3.82,0-7.638,0.982-11.059,2.948c-3.701,2.126-6.619,5.231-8.524,8.873
	c3.186,0.301,6.325,1.257,9.19,2.89l155.912,88.86c7.074,4.032,11.436,11.51,11.436,19.608c0,2.569-0.443,5.075-1.268,7.429
	l6.354-3.622c6.851-3.907,11.079-11.151,11.079-18.994C483.337,100.147,479.11,92.903,472.259,88.996z"/>
<g>
</g>
<g>
</g>
<g>
</g>
<g>
</g>
<g>
</g>
<g>
</g>
<g>
</g>
<g>
</g>
<g>
</g>
<g>
</g>
<g>
</g>
<g>
</g>
<g>
</g>
<g>
</g>
<g>
</g>
</svg>
