<?xml version="1.0" encoding="iso-8859-1"?>
<!-- Generator: Adobe Illustrator 19.0.0, SVG Export Plug-In . SVG Version: 6.00 Build 0)  -->
<svg version="1.1" id="Layer_1" xmlns="http://www.w3.org/2000/svg" xmlns:xlink="http://www.w3.org/1999/xlink" x="0px" y="0px"
	 viewBox="0 0 512 512" style="enable-background:new 0 0 512 512;" xml:space="preserve">
<path style="fill:#FCB63E;" d="M449.848,413.73c-3.429,0-6.881-0.714-10.134-2.179c-8.953-4.031-14.718-12.991-14.718-22.877
	v-45.229c0-40.756-32.895-73.913-73.334-73.913H219.804v50.726c0,8.941-4.728,17.205-12.405,21.684
	c-3.853,2.247-8.153,3.371-12.454,3.371c-4.274,0-8.547-1.109-12.381-3.328L12.477,243.517C4.761,239.049,0,230.763,0,221.792
	c0-8.97,4.761-17.259,12.477-21.727l170.087-98.466c3.834-2.218,8.107-3.329,12.381-3.329c4.301,0,8.602,1.123,12.454,3.37
	c7.677,4.481,12.405,12.745,12.405,21.686v43.478h155.473C450.668,166.805,512,228.624,512,304.609
	c0,28.286-8.44,55.464-24.406,78.597c-6.113,8.858-13.229,16.976-21.153,24.131C461.789,411.536,455.858,413.73,449.848,413.73z"/>
<g style="opacity:0.2;">
	<path style="fill:#FFFFFF;" d="M375.277,166.805h-20.929c70.838,5.077,126.932,64.781,126.932,137.447
		c0,28.286-8.44,55.464-24.406,78.597c-6.112,8.857-22.112,24.943-22.606,25.325c1.643,1.334,3.462,2.484,5.446,3.377
		c3.254,1.465,6.705,2.179,10.134,2.179c6.009,0,11.942-2.194,16.593-6.394c7.923-7.154,15.041-15.273,21.153-24.131
		C503.56,360.073,512,332.896,512,304.609C512,228.624,450.668,166.805,375.277,166.805z"/>
</g>
<g style="opacity:0.1;">
	<path id="SVGCleanerId_0" d="M218.716,308.17c-3.851,2.247-8.152,3.371-12.453,3.371c-4.274,0-8.548-1.108-12.382-3.328
		L23.795,209.746c-4.315-2.498-7.703-6.191-9.854-10.528l-1.464,0.847C4.761,204.533,0,212.82,0,221.792
		c0,8.971,4.761,17.258,12.477,21.727l170.086,98.466c3.834,2.219,8.107,3.328,12.381,3.328c4.301,0,8.602-1.124,12.454-3.371
		c7.677-4.478,12.405-12.743,12.405-21.684v-12.772C219.446,307.72,219.088,307.953,218.716,308.17z"/>
	<g>
		<path id="SVGCleanerId_0_1_" d="M218.716,308.17c-3.851,2.247-8.152,3.371-12.453,3.371c-4.274,0-8.548-1.108-12.382-3.328
			L23.795,209.746c-4.315-2.498-7.703-6.191-9.854-10.528l-1.464,0.847C4.761,204.533,0,212.82,0,221.792
			c0,8.971,4.761,17.258,12.477,21.727l170.086,98.466c3.834,2.219,8.107,3.328,12.381,3.328c4.301,0,8.602-1.124,12.454-3.371
			c7.677-4.478,12.405-12.743,12.405-21.684v-12.772C219.446,307.72,219.088,307.953,218.716,308.17z"/>
	</g>
</g>
<g>
</g>
<g>
</g>
<g>
</g>
<g>
</g>
<g>
</g>
<g>
</g>
<g>
</g>
<g>
</g>
<g>
</g>
<g>
</g>
<g>
</g>
<g>
</g>
<g>
</g>
<g>
</g>
<g>
</g>
</svg>
