<?xml version="1.0" encoding="iso-8859-1"?>
<!-- Generator: Adobe Illustrator 19.0.0, SVG Export Plug-In . SVG Version: 6.00 Build 0)  -->
<svg version="1.1" id="Layer_1" xmlns="http://www.w3.org/2000/svg" xmlns:xlink="http://www.w3.org/1999/xlink" x="0px" y="0px"
	 viewBox="0 0 512.001 512.001" style="enable-background:new 0 0 512.001 512.001;" xml:space="preserve">
<path style="fill:#FCB63E;" d="M390.005,167.7c-5.925,0-10.729-4.753-10.729-10.616v-45.452h-45.951
	c-5.925,0-10.729-4.755-10.729-10.616V66.683c0-5.861,4.805-10.614,10.729-10.614h45.951V10.616C379.276,4.753,384.081,0,390.005,0
	h34.71c5.925,0,10.73,4.752,10.73,10.616v45.453h45.95c5.925,0,10.728,4.752,10.728,10.614v34.333
	c0,5.86-4.803,10.616-10.728,10.616h-45.95v45.452c0,5.862-4.805,10.616-10.73,10.616h-34.71V167.7z"/>
<path style="fill:#46D8BA;" d="M360.083,410.554c-25.724-24.441-59.225-38.299-94.725-39.289
	c52.715-21.004,89.938-72.143,89.938-131.905c0-78.489-64.196-142.118-143.384-142.118c-79.19,0-143.386,63.628-143.386,142.118
	c0,59.763,37.222,110.902,89.937,131.905c-35.5,0.991-69.001,14.848-94.725,39.289c-26.623,25.297-42.199,59.296-43.855,95.736
	c-0.066,1.49,0.482,2.943,1.522,4.023c1.041,1.078,2.481,1.689,3.987,1.689H398.43c1.506,0,2.946-0.609,3.986-1.689
	c1.041-1.079,1.589-2.533,1.523-4.023C402.284,469.85,386.708,435.851,360.083,410.554z"/>
<path style="opacity:0.2;fill:#FFFFFF;enable-background:new    ;" d="M265.358,371.265c35.501,0.991,69.001,14.848,94.725,39.289
	c26.625,25.297,42.2,59.296,43.856,95.736c0.066,1.49-0.483,2.943-1.523,4.023c-1.04,1.078-2.481,1.689-3.986,1.689h-33.688
	c1.505,0,2.945-0.609,3.984-1.689c1.041-1.079,1.59-2.533,1.525-4.023c-1.657-36.44-17.231-70.439-43.857-95.736
	C300.671,386.113,265.358,371.265,265.358,371.265"/>
<path style="opacity:0.1;enable-background:new    ;" d="M158.465,371.265c-35.501,0.991-69.001,14.848-94.725,39.289
	c-26.624,25.297-42.2,59.296-43.856,95.736c-0.066,1.49,0.483,2.943,1.523,4.023c1.041,1.078,2.481,1.689,3.986,1.689h33.689
	c-1.506,0-2.946-0.609-3.985-1.689c-1.041-1.079-1.59-2.533-1.525-4.023c1.657-36.44,17.231-70.439,43.858-95.736
	C123.153,386.113,158.465,371.265,158.465,371.265"/>
<path style="opacity:0.1;enable-background:new    ;" d="M135.678,352.905c-25.857-25.698-41.854-61.14-41.854-100.304
	c0-78.489,64.196-142.117,143.386-142.117c19.053,0,37.233,3.693,53.862,10.382c-22.686-14.922-49.894-23.624-79.16-23.624
	c-79.19,0-143.386,63.628-143.386,142.118c0,56.532,33.318,105.332,81.539,128.221C144.921,363.039,140.117,358.128,135.678,352.905
	z"/>
<g>
	<path style="fill:#384463;" d="M212.968,318.022c-30.308,0-54.966-24.416-54.966-54.426c0-4.465,3.62-8.084,8.084-8.084
		s8.083,3.62,8.083,8.084c0,21.094,17.405,38.258,38.798,38.258s38.797-17.162,38.797-38.258c0-4.465,3.62-8.084,8.084-8.084
		c4.464,0,8.083,3.62,8.083,8.084C267.934,293.606,243.276,318.022,212.968,318.022z"/>
	<ellipse style="fill:#384463;" cx="165.376" cy="216.566" rx="17.048" ry="16.854"/>
	<ellipse style="fill:#384463;" cx="260.556" cy="216.566" rx="17.046" ry="16.854"/>
</g>
<g>
</g>
<g>
</g>
<g>
</g>
<g>
</g>
<g>
</g>
<g>
</g>
<g>
</g>
<g>
</g>
<g>
</g>
<g>
</g>
<g>
</g>
<g>
</g>
<g>
</g>
<g>
</g>
<g>
</g>
</svg>
