<?xml version="1.0" encoding="iso-8859-1"?>
<!-- Generator: Adobe Illustrator 19.0.0, SVG Export Plug-In . SVG Version: 6.00 Build 0)  -->
<svg version="1.1" id="Layer_1" xmlns="http://www.w3.org/2000/svg" xmlns:xlink="http://www.w3.org/1999/xlink" x="0px" y="0px"
	 viewBox="0 0 512.001 512.001" style="enable-background:new 0 0 512.001 512.001;" xml:space="preserve">
<path style="fill:#FCB63E;" d="M443.734,27.304H68.266C30.563,27.304,0,58.449,0,96.868v252.175
	c0,38.422,30.563,69.566,68.266,69.566h8.051l32.517,57.392c3.048,5.382,8.683,8.697,14.78,8.697c6.097,0,11.731-3.314,14.78-8.697
	l32.517-57.392h272.823c37.703,0,68.266-31.145,68.266-69.566V96.868C512,58.449,481.437,27.304,443.734,27.304z"/>
<g style="opacity:0.2;">
	<path style="fill:#FFFFFF;" d="M443.734,27.304h-32.876c37.703,0,68.266,31.145,68.266,69.564v252.175
		c0,38.422-30.563,69.566-68.266,69.566h32.876c37.703,0,68.266-31.145,68.266-69.566V96.868
		C512,58.449,481.437,27.304,443.734,27.304z"/>
</g>
<path style="opacity:0.1;enable-background:new    ;" d="M32.876,349.042V96.868c0-38.419,30.563-69.564,68.265-69.564H68.266
	C30.563,27.304,0,58.449,0,96.868v252.175c0,38.422,30.563,69.566,68.266,69.566h8.051
	C76.317,418.609,32.876,387.464,32.876,349.042z"/>
<g>
	<path style="fill:#FFFFFF;" d="M163.84,234.065c0,16.947-13.755,30.686-30.72,30.686l0,0c-16.966,0-30.72-13.737-30.72-30.686l0,0
		c0-16.947,13.754-30.687,30.72-30.687l0,0C150.085,203.378,163.84,217.118,163.84,234.065L163.84,234.065z"/>
	<path style="fill:#FFFFFF;" d="M286.72,234.065c0,16.947-13.754,30.686-30.72,30.686l0,0c-16.965,0-30.72-13.737-30.72-30.686l0,0
		c0-16.947,13.755-30.687,30.72-30.687l0,0C272.966,203.378,286.72,217.118,286.72,234.065L286.72,234.065z"/>
	<path style="fill:#FFFFFF;" d="M409.6,234.065c0,16.947-13.754,30.686-30.72,30.686l0,0c-16.965,0-30.72-13.737-30.72-30.686l0,0
		c0-16.947,13.755-30.687,30.72-30.687l0,0C395.846,203.378,409.6,217.118,409.6,234.065L409.6,234.065z"/>
</g>
<g>
</g>
<g>
</g>
<g>
</g>
<g>
</g>
<g>
</g>
<g>
</g>
<g>
</g>
<g>
</g>
<g>
</g>
<g>
</g>
<g>
</g>
<g>
</g>
<g>
</g>
<g>
</g>
<g>
</g>
</svg>
