<?xml version="1.0" encoding="iso-8859-1"?>
<!-- Generator: Adobe Illustrator 19.0.0, SVG Export Plug-In . SVG Version: 6.00 Build 0)  -->
<svg version="1.1" id="Layer_1" xmlns="http://www.w3.org/2000/svg" xmlns:xlink="http://www.w3.org/1999/xlink" x="0px" y="0px"
	 viewBox="0 0 512 512" style="enable-background:new 0 0 512 512;" xml:space="preserve">
<polygon style="fill:#384463;" points="290.511,267.647 267.717,290.583 341.705,365.028 364.502,342.093 "/>
<path style="fill:#46D8BA;" d="M501.016,456.65c12.586,12.663,12.586,33.192,0,45.855l0,0c-12.586,12.66-32.988,12.66-45.571,0
	L347.211,393.604c-12.586-12.662-12.586-33.191,0-45.853l0,0c12.584-12.662,32.985-12.662,45.571,0L501.016,456.65z"/>
<path style="opacity:0.2;fill:#FFFFFF;enable-background:new    ;" d="M501.016,456.65L392.782,347.751
	c-12.586-12.662-32.987-12.662-45.571,0c-2.495,2.51-4.487,5.332-5.992,8.337c12.053-6.019,27.067-3.986,37.109,6.117
	l108.234,108.899c10.091,10.152,12.083,25.359,5.992,37.515c3.053-1.525,5.918-3.557,8.463-6.115
	C513.602,489.841,513.602,469.313,501.016,456.65z"/>
<path style="fill:#48587C;" d="M279.188,40.389c70.994,60.67,79.718,167.704,19.483,239.067
	c-60.233,71.365-166.614,80.036-237.607,19.364C-9.931,238.152-18.653,131.117,41.581,59.753
	C101.814-11.613,208.195-20.283,279.188,40.389z"/>
<path style="opacity:0.2;fill:#FFFFFF;enable-background:new    ;" d="M279.188,40.389C208.195-20.283,101.814-11.613,41.581,59.753
	c-1.781,2.11-3.491,4.254-5.147,6.426c61.366-62.366,161.149-67.516,228.8-9.702c68.869,58.853,79.135,161.335,24.702,232.565
	c3.008-3.059,5.924-6.253,8.735-9.587C358.906,208.093,350.183,101.058,279.188,40.389z"/>
<path style="opacity:0.1;enable-background:new    ;" d="M50.928,289.534c65.831,66.238,172.565,66.238,238.395,0
	c1.946-1.957,3.825-3.956,5.652-5.986c-66.228,57.174-166.101,54.202-228.832-8.916C2.283,210.38,0.375,107.402,60.414,40.83
	c-3.245,2.805-6.41,5.75-9.486,8.844C-14.903,115.91-14.903,223.299,50.928,289.534z"/>
<path style="fill:#CAD0D1;" d="M49.521,169.235c-0.203-66.501,53.735-120.44,120.236-120.236
	c66.5,0.202,120.771,54.475,120.974,120.974c0.203,66.501-53.735,120.44-120.235,120.236
	C103.995,290.006,49.724,235.735,49.521,169.235z"/>
<path style="opacity:0.1;enable-background:new    ;" d="M192.896,267.617c-66.5-0.205-120.771-54.477-120.975-120.975
	c-0.084-27.324,8.979-52.523,24.292-72.721c-28.49,21.989-46.811,56.508-46.692,95.314c0.203,66.499,54.475,120.77,120.975,120.974
	c39.177,0.119,73.989-18.556,95.943-47.517C246.105,258.388,220.592,267.7,192.896,267.617z"/>
<path style="fill:#48587C;" d="M385.58,324.428c8.479,8.531,8.479,22.36,0,30.892l-32.747,32.951
	c-8.48,8.527-22.225,8.527-30.702-0.001l0,0c-8.479-8.531-8.479-22.361,0-30.891l32.749-32.949
	C363.357,315.896,377.104,315.896,385.58,324.428L385.58,324.428z"/>
<path style="fill:#FFFFFF;" d="M255.669,157.373c-3.676,0-7.001-2.522-7.867-6.257c-3.389-14.598-10.763-27.93-21.325-38.558
	c-15.03-15.122-35.042-23.447-56.35-23.447c-4.465,0-8.084-3.621-8.084-8.084s3.62-8.084,8.084-8.084
	c25.646,0,49.731,10.023,67.818,28.22c12.684,12.761,21.537,28.771,25.608,46.299c1.009,4.349-1.698,8.692-6.048,9.703
	C256.89,157.304,256.275,157.373,255.669,157.373z"/>
<g>
</g>
<g>
</g>
<g>
</g>
<g>
</g>
<g>
</g>
<g>
</g>
<g>
</g>
<g>
</g>
<g>
</g>
<g>
</g>
<g>
</g>
<g>
</g>
<g>
</g>
<g>
</g>
<g>
</g>
</svg>
