<?xml version="1.0" encoding="iso-8859-1"?>
<!-- Generator: Adobe Illustrator 19.0.0, SVG Export Plug-In . SVG Version: 6.00 Build 0)  -->
<svg version="1.1" id="Layer_1" xmlns="http://www.w3.org/2000/svg" xmlns:xlink="http://www.w3.org/1999/xlink" x="0px" y="0px"
	 viewBox="0 0 512.001 512.001" style="enable-background:new 0 0 512.001 512.001;" xml:space="preserve">
<path style="fill:#FCB63E;" d="M462.864,162.798H192.61c-27.139,0-49.137,22.108-49.137,49.379v178.999
	c0,27.272,21.999,49.379,49.137,49.379h194.625l22.696,39.503c2.195,3.82,6.251,6.172,10.639,6.172
	c4.389,0,8.444-2.352,10.638-6.172l22.696-39.503h8.96c27.138,0,49.136-22.107,49.136-49.379V212.176
	C512,184.906,490.001,162.798,462.864,162.798z"/>
<g style="opacity:0.1;">
	<path id="SVGCleanerId_0" d="M176.91,391.383V212.383c0-27.271,21.999-49.379,49.137-49.379h241.216
		c-1.45-0.13-2.915-0.207-4.399-0.207H192.61c-27.139,0-49.137,22.108-49.137,49.379v178.999c0,27.272,21.999,49.379,49.137,49.379
		h29.038C196.571,438.316,176.91,417.164,176.91,391.383z"/>
	<g>
		<path id="SVGCleanerId_0_1_" d="M176.91,391.383V212.383c0-27.271,21.999-49.379,49.137-49.379h241.216
			c-1.45-0.13-2.915-0.207-4.399-0.207H192.61c-27.139,0-49.137,22.108-49.137,49.379v178.999c0,27.272,21.999,49.379,49.137,49.379
			h29.038C196.571,438.316,176.91,417.164,176.91,391.383z"/>
	</g>
</g>
<path style="fill:#46D8BA;" d="M319.391,25.771H49.136C21.999,25.771,0,47.879,0,75.15v178.999
	c0,27.271,21.999,49.379,49.136,49.379h5.795l23.405,40.737c2.194,3.819,6.25,6.172,10.638,6.172c4.389,0,8.444-2.353,10.638-6.172
	l23.406-40.737h196.373c27.138,0,49.136-22.108,49.136-49.379V75.15C368.527,47.879,346.529,25.771,319.391,25.771z"/>
<g style="opacity:0.2;">
	<path style="fill:#FFFFFF;" d="M319.391,25.771h-22.666c27.137,0,49.136,22.108,49.136,49.379v178.999
		c0,27.271-21.999,49.379-49.136,49.379h22.666c27.138,0,49.136-22.108,49.136-49.379V75.15
		C368.527,47.879,346.529,25.771,319.391,25.771z"/>
</g>
<g style="opacity:0.1;">
	<path id="SVGCleanerId_1" d="M111.05,322.675l-23.405-40.737H81.85c-27.138,0-49.136-22.108-49.136-49.379v-179
		c0-9.992,2.963-19.286,8.04-27.058C17.612,30.501,0,50.752,0,75.15v178.999c0,27.271,21.999,49.379,49.136,49.379h5.795
		l23.405,40.737c2.194,3.819,6.25,6.172,10.638,6.172c4.389,0,8.444-2.353,10.638-6.172l11.957-20.811
		C111.393,323.197,111.207,322.948,111.05,322.675z"/>
	<g>
		<path id="SVGCleanerId_1_1_" d="M111.05,322.675l-23.405-40.737H81.85c-27.138,0-49.136-22.108-49.136-49.379v-179
			c0-9.992,2.963-19.286,8.04-27.058C17.612,30.501,0,50.752,0,75.15v178.999c0,27.271,21.999,49.379,49.136,49.379h5.795
			l23.405,40.737c2.194,3.819,6.25,6.172,10.638,6.172c4.389,0,8.444-2.353,10.638-6.172l11.957-20.811
			C111.393,323.197,111.207,322.948,111.05,322.675z"/>
	</g>
</g>
<path style="fill:#DB5D45;" d="M184.165,231.607c-1.155,0-2.264-0.467-3.079-1.298c0,0-53.058-54.002-53.069-54.014l-1.533-1.596
	c-7.259-7.559-10.497-16.346-10.497-28.492c0-23.723,18.963-43.023,42.269-43.023c9.502,0,18.598,3.212,26.01,9.118
	c7.408-5.905,16.506-9.118,26.009-9.118c23.306,0,42.267,19.3,42.267,43.023c0,12.524-5.347,24.389-14.677,32.58l-50.619,51.521
	C186.429,231.141,185.321,231.607,184.165,231.607z"/>
<path style="opacity:0.1;enable-background:new    ;" d="M149.956,165.162l-1.533-1.596c-7.259-7.56-10.497-16.347-10.497-28.492
	c0-12.316,5.119-23.432,13.296-31.282c-19.969,3.42-35.236,21.133-35.236,42.416c0,12.145,3.238,20.932,10.497,28.492l1.533,1.596
	c0.011,0.011,53.069,54.014,53.069,54.014c0.815,0.831,1.925,1.298,3.079,1.298c1.156,0,2.263-0.467,3.079-1.299l13.359-13.597
	C190.227,206.149,149.965,165.172,149.956,165.162z"/>
<g>
</g>
<g>
</g>
<g>
</g>
<g>
</g>
<g>
</g>
<g>
</g>
<g>
</g>
<g>
</g>
<g>
</g>
<g>
</g>
<g>
</g>
<g>
</g>
<g>
</g>
<g>
</g>
<g>
</g>
</svg>
