<?xml version="1.0" encoding="iso-8859-1"?>
<!-- Generator: Adobe Illustrator 19.0.0, SVG Export Plug-In . SVG Version: 6.00 Build 0)  -->
<svg version="1.1" id="Layer_1" xmlns="http://www.w3.org/2000/svg" xmlns:xlink="http://www.w3.org/1999/xlink" x="0px" y="0px"
	 viewBox="0 0 512 512" style="enable-background:new 0 0 512 512;" xml:space="preserve">
<path style="fill:#48587C;" d="M255.999,0C152.373,0,68.365,83.663,68.365,186.864c0,38.948,11.969,75.108,32.441,105.043
	l124.317,202.354l-0.067-0.156l0.092,0.156C231.51,505.237,243.271,512,255.999,512s24.49-6.763,30.853-17.739l124.153-202.084
	c20.583-29.986,32.629-66.245,32.629-105.312C443.634,83.663,359.626,0,255.999,0z M255.999,249.86
	c-34.935,0-63.255-28.204-63.255-62.996c0-34.791,28.321-62.996,63.255-62.996s63.255,28.204,63.255,62.996
	S290.935,249.86,255.999,249.86z"/>
<g style="opacity:0.2;">
	<path style="fill:#FFFFFF;" d="M232.249,13.01c110.01,0,199.511,89.133,199.511,198.692c0,21.867-3.559,43.295-10.455,63.62
		c14.241-26.332,22.331-56.451,22.331-88.456C443.634,83.663,359.626,0,255.999,0c-35.505,0-68.702,9.824-97.012,26.886
		C181.679,17.935,206.395,13.01,232.249,13.01z"/>
</g>
<g style="opacity:0.1;">
	<path id="SVGCleanerId_0" d="M267.9,500.546l-0.107-0.184l0.079,0.184L120.581,260.798
		c-24.253-35.466-38.432-78.309-38.432-124.454c0-7.642,0.388-15.194,1.147-22.638c-9.61,22.469-14.931,47.193-14.931,73.156
		c0,38.948,11.969,75.108,32.441,105.043L225.123,494.26l-0.067-0.156l0.092,0.156c6.362,10.978,18.123,17.74,30.852,17.74
		c6.077,0,11.929-1.557,17.084-4.365C271.136,505.48,269.39,503.115,267.9,500.546z"/>
	<g>
		<path id="SVGCleanerId_0_1_" d="M267.9,500.546l-0.107-0.184l0.079,0.184L120.581,260.798
			c-24.253-35.466-38.432-78.309-38.432-124.454c0-7.642,0.388-15.194,1.147-22.638c-9.61,22.469-14.931,47.193-14.931,73.156
			c0,38.948,11.969,75.108,32.441,105.043L225.123,494.26l-0.067-0.156l0.092,0.156c6.362,10.978,18.123,17.74,30.852,17.74
			c6.077,0,11.929-1.557,17.084-4.365C271.136,505.48,269.39,503.115,267.9,500.546z"/>
	</g>
</g>
<path style="fill:#46D8BA;" d="M255.999,80.423c-59.026,0-106.882,47.657-106.882,106.442s47.855,106.442,106.882,106.442
	s106.879-47.657,106.879-106.442S315.026,80.423,255.999,80.423z M255.999,242.764c-31,0-56.131-25.027-56.131-55.9
	c0-30.872,25.131-55.9,56.131-55.9s56.131,25.028,56.131,55.9C312.13,217.737,287,242.764,255.999,242.764z"/>
<g>
</g>
<g>
</g>
<g>
</g>
<g>
</g>
<g>
</g>
<g>
</g>
<g>
</g>
<g>
</g>
<g>
</g>
<g>
</g>
<g>
</g>
<g>
</g>
<g>
</g>
<g>
</g>
<g>
</g>
</svg>
