<?xml version="1.0" encoding="iso-8859-1"?>
<!-- Generator: Adobe Illustrator 19.0.0, SVG Export Plug-In . SVG Version: 6.00 Build 0)  -->
<svg version="1.1" id="Layer_1" xmlns="http://www.w3.org/2000/svg" xmlns:xlink="http://www.w3.org/1999/xlink" x="0px" y="0px"
	 viewBox="0 0 512 512" style="enable-background:new 0 0 512 512;" xml:space="preserve">
<path style="fill:#E2534B;" d="M512,421.35c0,18.894-15.282,34.21-34.134,34.21H34.134C15.282,455.56,0,440.244,0,421.35V90.65
	c0-18.894,15.282-34.211,34.134-34.211h443.733C496.718,56.439,512,71.755,512,90.65L512,421.35L512,421.35z"/>
<path style="opacity:0.2;fill:#FFFFFF;enable-background:new    ;" d="M477.866,56.44h-19.942c18.852,0,34.134,15.316,34.134,34.211
	v330.7c0,18.894-15.282,34.21-34.134,34.21h19.942c18.852,0,34.134-15.316,34.134-34.21V90.65
	C512,71.756,496.718,56.44,477.866,56.44z"/>
<path style="fill:#46D8BA;" d="M53.565,414.129c-5.747,0-10.449-4.702-10.449-10.449v-291.99c0-5.747,4.702-10.449,10.449-10.449
	h404.871c5.747,0,10.449,4.702,10.449,10.449v291.99c0,5.747-4.702,10.449-10.449,10.449L53.565,414.129L53.565,414.129z"/>
<path style="opacity:0.1;enable-background:new    ;" d="M22.096,421.35V90.65c0-18.894,15.282-34.211,34.134-34.211H34.134
	C15.282,56.44,0,71.756,0,90.65v330.7c0,18.894,15.282,34.21,34.134,34.21H56.23C37.379,455.56,22.096,440.244,22.096,421.35z"/>
<path style="fill:#FFFFFF;" d="M372.053,250.211c-4.869,0-9.48,2.194-12.55,5.975L239.496,403.935
	c-2.387,2.937-3.61,6.549-3.61,10.194h222.549c5.747,0,10.449-4.702,10.449-10.449v-43.729l-84.281-103.765
	C381.533,252.407,376.922,250.211,372.053,250.211z"/>
<circle style="fill:#FCB63E;" cx="303.428" cy="188.092" r="38.808"/>
<path style="fill:#48587C;" d="M175.765,218.274c-4.869,0-9.48,2.195-12.55,5.975l-120.1,147.862v31.568
	c0,5.747,4.702,10.449,10.449,10.449h288.977l-154.227-189.88C185.246,220.468,180.635,218.274,175.765,218.274z"/>
<path style="opacity:0.1;enable-background:new    ;" d="M75.782,403.68v-291.99c0-5.747,4.702-10.449,10.449-10.449H53.565
	c-5.747,0-10.449,4.702-10.449,10.449v291.99c0,5.747,4.702,10.449,10.449,10.449h32.667
	C80.484,414.129,75.782,409.427,75.782,403.68z"/>
<g>
</g>
<g>
</g>
<g>
</g>
<g>
</g>
<g>
</g>
<g>
</g>
<g>
</g>
<g>
</g>
<g>
</g>
<g>
</g>
<g>
</g>
<g>
</g>
<g>
</g>
<g>
</g>
<g>
</g>
</svg>
