<?xml version="1.0" encoding="iso-8859-1"?>
<!-- Generator: Adobe Illustrator 19.0.0, SVG Export Plug-In . SVG Version: 6.00 Build 0)  -->
<svg version="1.1" id="Layer_1" xmlns="http://www.w3.org/2000/svg" xmlns:xlink="http://www.w3.org/1999/xlink" x="0px" y="0px"
	 viewBox="0 0 512 512" style="enable-background:new 0 0 512 512;" xml:space="preserve">
<path style="fill:#48587C;" d="M512,470.204C512,493.288,493.288,512,470.204,512H41.796C18.713,512,0,493.288,0,470.204V41.796
	C0,18.713,18.713,0,41.796,0h428.408C493.288,0,512,18.713,512,41.796V470.204z"/>
<path style="fill:#46D8BA;" d="M82.459,0H41.796C18.713,0,0,18.713,0,41.796v428.408C0,493.288,18.713,512,41.796,512h40.663V0z"/>
<g>
	<path style="fill:#48587C;" d="M56.59,54.764c0,5.747-4.702,10.449-10.449,10.449h-11.44c-5.747,0-10.449-4.702-10.449-10.449
		v-11.44c0-5.747,4.702-10.449,10.449-10.449H46.14c5.747,0,10.449,4.702,10.449,10.449v11.44H56.59z"/>
	<path style="fill:#48587C;" d="M56.59,123.749c0,5.747-4.702,10.449-10.449,10.449h-11.44c-5.747,0-10.449-4.702-10.449-10.449
		v-11.438c0-5.747,4.702-10.449,10.449-10.449H46.14c5.747,0,10.449,4.702,10.449,10.449v11.438H56.59z"/>
	<path style="fill:#48587C;" d="M56.59,192.735c0,5.747-4.702,10.449-10.449,10.449h-11.44c-5.747,0-10.449-4.702-10.449-10.449
		v-11.439c0-5.747,4.702-10.449,10.449-10.449H46.14c5.747,0,10.449,4.702,10.449,10.449v11.439H56.59z"/>
	<path style="fill:#48587C;" d="M56.59,261.72c0,5.747-4.702,10.449-10.449,10.449h-11.44c-5.747,0-10.449-4.702-10.449-10.449
		v-11.439c0-5.747,4.702-10.449,10.449-10.449H46.14c5.747,0,10.449,4.702,10.449,10.449v11.439H56.59z"/>
	<path style="fill:#48587C;" d="M56.59,330.705c0,5.747-4.702,10.449-10.449,10.449h-11.44c-5.747,0-10.449-4.702-10.449-10.449
		v-11.438c0-5.747,4.702-10.449,10.449-10.449H46.14c5.747,0,10.449,4.702,10.449,10.449v11.438H56.59z"/>
	<path style="fill:#48587C;" d="M56.59,399.69c0,5.747-4.702,10.449-10.449,10.449h-11.44c-5.747,0-10.449-4.702-10.449-10.449
		v-11.438c0-5.747,4.702-10.449,10.449-10.449H46.14c5.747,0,10.449,4.702,10.449,10.449v11.438H56.59z"/>
	<path style="fill:#48587C;" d="M56.59,468.675c0,5.747-4.702,10.449-10.449,10.449h-11.44c-5.747,0-10.449-4.702-10.449-10.449
		v-11.438c0-5.747,4.702-10.449,10.449-10.449H46.14c5.747,0,10.449,4.702,10.449,10.449v11.438H56.59z"/>
</g>
<path style="fill:#46D8BA;" d="M429.541,512h40.663C493.288,512,512,493.287,512,470.204V41.796C512,18.712,493.288,0,470.204,0
	h-40.663L429.541,512L429.541,512z"/>
<g>
	<path style="fill:#48587C;" d="M455.41,457.236c0-5.747,4.702-10.449,10.449-10.449h11.439c5.747,0,10.449,4.702,10.449,10.449
		v11.439c0,5.747-4.702,10.449-10.449,10.449h-11.439c-5.747,0-10.449-4.702-10.449-10.449V457.236z"/>
	<path style="fill:#48587C;" d="M455.41,388.251c0-5.747,4.702-10.449,10.449-10.449h11.439c5.747,0,10.449,4.702,10.449,10.449
		v11.439c0,5.747-4.702,10.449-10.449,10.449h-11.439c-5.747,0-10.449-4.702-10.449-10.449V388.251z"/>
	<path style="fill:#48587C;" d="M455.41,319.265c0-5.747,4.702-10.449,10.449-10.449h11.439c5.747,0,10.449,4.702,10.449,10.449
		v11.439c0,5.747-4.702,10.449-10.449,10.449h-11.439c-5.747,0-10.449-4.702-10.449-10.449V319.265z"/>
	<path style="fill:#48587C;" d="M455.41,250.28c0-5.747,4.702-10.449,10.449-10.449h11.439c5.747,0,10.449,4.702,10.449,10.449
		v11.439c0,5.747-4.702,10.449-10.449,10.449h-11.439c-5.747,0-10.449-4.702-10.449-10.449V250.28z"/>
	<path style="fill:#48587C;" d="M455.41,181.295c0-5.747,4.702-10.449,10.449-10.449h11.439c5.747,0,10.449,4.702,10.449,10.449
		v11.439c0,5.747-4.702,10.449-10.449,10.449h-11.439c-5.747,0-10.449-4.702-10.449-10.449V181.295z"/>
	<path style="fill:#48587C;" d="M455.41,112.31c0-5.747,4.702-10.449,10.449-10.449h11.439c5.747,0,10.449,4.702,10.449,10.449
		v11.438c0,5.747-4.702,10.449-10.449,10.449h-11.439c-5.747,0-10.449-4.702-10.449-10.449V112.31z"/>
	<path style="fill:#48587C;" d="M455.41,43.325c0-5.747,4.702-10.449,10.449-10.449h11.439c5.747,0,10.449,4.702,10.449,10.449
		v11.438c0,5.747-4.702,10.449-10.449,10.449h-11.439c-5.747,0-10.449-4.702-10.449-10.449V43.325z"/>
</g>
<path id="SVGCleanerId_0" style="fill:#DB5D45;" d="M167.246,167.454c0-4.312,2.3-8.298,6.035-10.453
	c3.734-2.157,8.337-2.157,12.072,0l153.365,88.545c3.734,2.157,6.034,6.142,6.034,10.454c0,4.312-2.3,8.299-6.034,10.454
	L185.353,355c-3.734,2.156-8.337,2.156-12.072,0c-3.736-2.157-6.035-6.142-6.035-10.454L167.246,167.454L167.246,167.454z"/>
<g>
	<path id="SVGCleanerId_0_1_" style="fill:#DB5D45;" d="M167.246,167.454c0-4.312,2.3-8.298,6.035-10.453
		c3.734-2.157,8.337-2.157,12.072,0l153.365,88.545c3.734,2.157,6.034,6.142,6.034,10.454c0,4.312-2.3,8.299-6.034,10.454
		L185.353,355c-3.734,2.156-8.337,2.156-12.072,0c-3.736-2.157-6.035-6.142-6.035-10.454L167.246,167.454L167.246,167.454z"/>
</g>
<path style="opacity:0.1;enable-background:new    ;" d="M201.028,344.546V167.454c0-0.456,0.04-0.906,0.09-1.352l-15.763-9.101
	c-3.734-2.157-8.337-2.157-12.072,0c-3.736,2.156-6.035,6.141-6.035,10.453v177.09c0,4.313,2.3,8.298,6.035,10.454
	c3.734,2.156,8.337,2.156,12.072,0l15.763-9.101C201.067,345.452,201.028,345.001,201.028,344.546z"/>
<path style="opacity:0.1;enable-background:new    ;" d="M32.876,470.204V41.796C32.876,18.713,51.588,0,74.672,0H41.796
	C18.713,0,0,18.713,0,41.796v428.408C0,493.288,18.713,512,41.796,512h32.876C51.589,512,32.876,493.288,32.876,470.204z"/>
<g>
</g>
<g>
</g>
<g>
</g>
<g>
</g>
<g>
</g>
<g>
</g>
<g>
</g>
<g>
</g>
<g>
</g>
<g>
</g>
<g>
</g>
<g>
</g>
<g>
</g>
<g>
</g>
<g>
</g>
</svg>
