<?xml version="1.0" encoding="iso-8859-1"?>
<!-- Generator: Adobe Illustrator 19.0.0, SVG Export Plug-In . SVG Version: 6.00 Build 0)  -->
<svg version="1.1" id="Layer_1" xmlns="http://www.w3.org/2000/svg" xmlns:xlink="http://www.w3.org/1999/xlink" x="0px" y="0px"
	 viewBox="0 0 512 512" style="enable-background:new 0 0 512 512;" xml:space="preserve">
<path style="fill:#46D8BA;" d="M469.878,190.022H278.063c-23.227,0-42.123,18.678-42.123,41.634v12.811v137.428
	c-7.142-3.284-15.092-5.129-23.475-5.129c-30.81,0-55.876,24.776-55.876,55.229c0,30.454,25.065,55.229,55.876,55.229
	c30.275,0,54.986-24.72,55.837-54.444c0.011-0.261,0.041-147.524,0.041-147.524c0-5.771,4.679-10.449,10.449-10.449h190.358
	c5.771,0,10.449,4.678,10.449,10.449v96.638c-7.144-3.284-15.092-5.129-23.477-5.129c-30.811,0-55.876,24.776-55.876,55.229
	s25.065,55.229,55.876,55.229c30.275,0,54.986-23.926,55.838-53.651c0.01-0.263,0.039-201.916,0.039-201.916
	C512,208.7,493.104,190.022,469.878,190.022z"/>
<g style="opacity:0.1;">
	<g>
		<path id="SVGCleanerId_1" d="M226.073,460.963c-30.809,0-55.877-24.777-55.877-55.229c0-3.789,0.391-7.489,1.128-11.064
			c-9.144,9.837-14.736,22.946-14.736,37.327c0,30.454,25.065,55.229,55.876,55.229c26.814,0,49.249-19.396,54.621-44.481
			C256.877,453.88,242.274,460.963,226.073,460.963z"/>
		<path id="SVGCleanerId_2" d="M469.731,460.963c-30.809,0-55.877-24.777-55.877-55.229c0-3.789,0.39-7.489,1.127-11.064
			c-9.143,9.837-14.735,22.946-14.735,37.327c0,30.454,25.065,55.229,55.876,55.229c26.967,0,49.501-18.988,54.71-44.14
			C500.618,454.067,485.98,460.963,469.731,460.963z"/>
	</g>
	<g>
		<g>
			<path id="SVGCleanerId_1_1_" d="M226.073,460.963c-30.809,0-55.877-24.777-55.877-55.229c0-3.789,0.391-7.489,1.128-11.064
				c-9.144,9.837-14.736,22.946-14.736,37.327c0,30.454,25.065,55.229,55.876,55.229c26.814,0,49.249-19.396,54.621-44.481
				C256.877,453.88,242.274,460.963,226.073,460.963z"/>
		</g>
		<g>
			<path id="SVGCleanerId_2_1_" d="M469.731,460.963c-30.809,0-55.877-24.777-55.877-55.229c0-3.789,0.39-7.489,1.127-11.064
				c-9.143,9.837-14.735,22.946-14.735,37.327c0,30.454,25.065,55.229,55.876,55.229c26.967,0,49.501-18.988,54.71-44.14
				C500.618,454.067,485.98,460.963,469.731,460.963z"/>
		</g>
	</g>
</g>
<path style="fill:#6F7A80;" d="M328.737,64.273h-66.37l-16.206-27.94c-4.15-7.152-11.816-11.559-20.113-11.559h-83.753
	c-8.298,0-15.963,4.406-20.112,11.559l-16.207,27.94H39.607C17.733,64.273,0,81.921,0,103.693v197.1
	c0,21.77,17.733,39.42,39.607,39.42h289.131c21.875,0,39.607-17.649,39.607-39.42v-197.1
	C368.345,81.921,350.612,64.273,328.737,64.273z"/>
<g style="opacity:0.1;">
	<path id="SVGCleanerId_0" d="M34.058,300.793v-197.1c0-21.771,17.733-39.421,39.606-39.421H39.607
		C17.733,64.273,0,81.921,0,103.693v197.1c0,21.77,17.733,39.42,39.607,39.42h34.057C51.79,340.212,34.058,322.563,34.058,300.793z"
		/>
	<g>
		<path id="SVGCleanerId_0_1_" d="M34.058,300.793v-197.1c0-21.771,17.733-39.421,39.606-39.421H39.607
			C17.733,64.273,0,81.921,0,103.693v197.1c0,21.77,17.733,39.42,39.607,39.42h34.057C51.79,340.212,34.058,322.563,34.058,300.793z
			"/>
	</g>
</g>
<ellipse style="fill:#CAD0D1;" cx="184.174" cy="202.031" rx="91.982" ry="91.544"/>
<ellipse style="fill:#4B5254;" cx="184.174" cy="202.031" rx="52.391" ry="52.148"/>
<ellipse style="fill:#E5E545;" cx="308.935" cy="119.463" rx="18.221" ry="18.133"/>
<path style="fill:#FFFFFF;" d="M211.86,211.184c-5.118,0-9.265-4.1-9.265-9.159c0-10.239-8.265-18.568-18.423-18.568
	c-5.118,0-9.265-4.099-9.265-9.159c0-5.057,4.148-9.157,9.265-9.157c20.374,0,36.953,16.546,36.953,36.884
	C221.125,207.085,216.976,211.184,211.86,211.184z"/>
<g>
</g>
<g>
</g>
<g>
</g>
<g>
</g>
<g>
</g>
<g>
</g>
<g>
</g>
<g>
</g>
<g>
</g>
<g>
</g>
<g>
</g>
<g>
</g>
<g>
</g>
<g>
</g>
<g>
</g>
</svg>
