<?xml version="1.0" encoding="iso-8859-1"?>
<!-- Generator: Adobe Illustrator 19.0.0, SVG Export Plug-In . SVG Version: 6.00 Build 0)  -->
<svg version="1.1" id="Layer_1" xmlns="http://www.w3.org/2000/svg" xmlns:xlink="http://www.w3.org/1999/xlink" x="0px" y="0px"
	 viewBox="0 0 512 512" style="enable-background:new 0 0 512 512;" xml:space="preserve">
<path style="fill:#FCB63E;" d="M443.734,27.304H68.266C30.563,27.304,0,58.449,0,96.868v252.175
	c0,38.421,30.563,69.566,68.266,69.566h8.05L108.833,476c3.048,5.382,8.683,8.697,14.78,8.697c6.097,0,11.731-3.314,14.78-8.697
	l32.516-57.391h272.824c37.703,0,68.266-31.145,68.266-69.566V96.868C512,58.449,481.437,27.304,443.734,27.304z"/>
<path style="opacity:0.1;enable-background:new    ;" d="M32.876,349.042V96.868c0-38.419,30.563-69.564,68.266-69.564H68.266
	C30.563,27.304,0,58.449,0,96.868v252.175c0,38.421,30.563,69.566,68.266,69.566h8.05C76.316,418.61,32.876,387.463,32.876,349.042z
	"/>
<path style="opacity:0.2;fill:#FFFFFF;enable-background:new    ;" d="M443.734,27.304h-32.876
	c37.703,0,68.266,31.145,68.266,69.564v252.175c0,38.421-30.563,69.566-68.266,69.566h32.876c37.703,0,68.266-31.145,68.266-69.566
	V96.868C512,58.449,481.437,27.304,443.734,27.304z"/>
<path style="fill:#48587C;" d="M365.465,202.106c11.907,0,21.558-9.652,21.558-21.557c0-11.907-9.652-21.558-21.558-21.558H332.68
	l6.046-34.281c2.068-11.726-5.763-22.906-17.487-24.974c-11.724-2.066-22.906,5.762-24.973,17.486L288.9,158.99h-42.99l6.046-34.281
	c2.068-11.726-5.763-22.906-17.487-24.974c-11.721-2.066-22.906,5.762-24.973,17.486l-7.365,41.769h-40.386
	c-11.907,0-21.558,9.652-21.558,21.558s9.652,21.557,21.558,21.557h32.785l-7.602,43.116h-40.389
	c-11.907,0-21.558,9.652-21.558,21.558c0,11.906,9.652,21.557,21.558,21.557h32.784l-5.749,32.607
	c-2.068,11.725,5.763,22.906,17.487,24.974c1.266,0.223,2.524,0.331,3.769,0.331c10.264,0,19.361-7.36,21.205-17.818l7.07-40.094
	h42.99l-5.75,32.607c-2.068,11.725,5.763,22.906,17.487,24.974c1.266,0.223,2.526,0.331,3.768,0.331
	c10.264,0,19.361-7.36,21.205-17.818l7.07-40.094h40.386c11.906,0,21.557-9.652,21.557-21.557c0-11.907-9.651-21.558-21.557-21.558
	h-32.784l7.602-43.116h40.387V202.106z M273.695,245.221h-42.99l7.602-43.116h42.99L273.695,245.221z"/>
<g>
</g>
<g>
</g>
<g>
</g>
<g>
</g>
<g>
</g>
<g>
</g>
<g>
</g>
<g>
</g>
<g>
</g>
<g>
</g>
<g>
</g>
<g>
</g>
<g>
</g>
<g>
</g>
<g>
</g>
</svg>
