<?xml version="1.0" encoding="iso-8859-1"?>
<!-- Generator: Adobe Illustrator 19.0.0, SVG Export Plug-In . SVG Version: 6.00 Build 0)  -->
<svg version="1.1" id="Layer_1" xmlns="http://www.w3.org/2000/svg" xmlns:xlink="http://www.w3.org/1999/xlink" x="0px" y="0px"
	 viewBox="0 0 512 512" style="enable-background:new 0 0 512 512;" xml:space="preserve">
<path style="fill:#E2E9E3;" d="M114.843,0h215.383l116.459,115.759V462.77c0,27.188-22.175,49.23-49.529,49.23H114.843
	c-27.354,0-49.528-22.042-49.528-49.23V49.23C65.314,22.042,87.489,0,114.843,0z"/>
<path style="opacity:0.1;enable-background:new    ;" d="M98.784,462.77V49.23C98.784,22.042,120.959,0,148.312,0h-33.469
	C87.489,0,65.315,22.042,65.315,49.23V462.77c0,27.188,22.175,49.23,49.528,49.23h33.469C120.959,512,98.784,489.958,98.784,462.77z
	"/>
<path style="fill:#46D8BA;" d="M330.226,0l116.459,115.759v1.448H379.71c-28.223,0-51.098-22.74-51.098-50.791V0H330.226z"/>
<path style="opacity:0.1;enable-background:new    ;" d="M350.854,66.415V20.504L330.226,0h-1.613v66.415
	c0,28.051,22.876,50.791,51.098,50.791h22.242C373.73,117.206,350.854,94.466,350.854,66.415z"/>
<g>
	<path style="fill:#B3B3B3;" d="M353.782,373.49H158.217c-5.953,0-10.779,4.826-10.779,10.779c0,5.953,4.826,10.779,10.779,10.779
		h195.564c5.953,0,10.779-4.826,10.779-10.779C364.56,378.316,359.735,373.49,353.782,373.49z"/>
	<path style="fill:#B3B3B3;" d="M353.782,325.436H158.217c-5.953,0-10.779,4.826-10.779,10.779c0,5.953,4.826,10.779,10.779,10.779
		h195.564c5.953,0,10.779-4.826,10.779-10.779C364.56,330.262,359.735,325.436,353.782,325.436z"/>
	<path style="fill:#B3B3B3;" d="M353.782,277.38H158.217c-5.953,0-10.779,4.825-10.779,10.779c0,5.953,4.826,10.778,10.779,10.778
		h195.564c5.953,0,10.779-4.825,10.779-10.778C364.56,282.206,359.735,277.38,353.782,277.38z"/>
	<path style="fill:#B3B3B3;" d="M353.782,229.326H158.217c-5.953,0-10.779,4.825-10.779,10.778s4.826,10.779,10.779,10.779h195.564
		c5.953,0,10.779-4.826,10.779-10.779C364.56,234.151,359.735,229.326,353.782,229.326z"/>
	<path style="fill:#B3B3B3;" d="M158.217,202.827h195.564c5.953,0,10.779-4.826,10.779-10.779s-4.826-10.779-10.779-10.779H158.217
		c-5.953,0-10.779,4.826-10.779,10.779S152.264,202.827,158.217,202.827z"/>
	<path style="fill:#B3B3B3;" d="M158.217,154.16h97.783c5.953,0,10.779-4.826,10.779-10.779s-4.826-10.779-10.779-10.779h-97.783
		c-5.953,0-10.779,4.826-10.779,10.779S152.264,154.16,158.217,154.16z"/>
</g>
<g>
</g>
<g>
</g>
<g>
</g>
<g>
</g>
<g>
</g>
<g>
</g>
<g>
</g>
<g>
</g>
<g>
</g>
<g>
</g>
<g>
</g>
<g>
</g>
<g>
</g>
<g>
</g>
<g>
</g>
</svg>
