<?xml version="1.0" encoding="iso-8859-1"?>
<!-- Generator: Adobe Illustrator 19.0.0, SVG Export Plug-In . SVG Version: 6.00 Build 0)  -->
<svg version="1.1" id="Layer_1" xmlns="http://www.w3.org/2000/svg" xmlns:xlink="http://www.w3.org/1999/xlink" x="0px" y="0px"
	 viewBox="0 0 511.999 511.999" style="enable-background:new 0 0 511.999 511.999;" xml:space="preserve">
<g>
	<path style="fill:#48587C;" d="M239.284,254.652c-29.895-29.715-78.537-29.715-108.43,0L22.42,362.433
		c-29.893,29.714-29.893,78.065,0,107.778l18.072,17.963c29.896,29.715,78.537,29.715,108.432,0l108.43-107.779
		c14.482-14.393,22.458-33.533,22.458-53.891c0-20.358-7.976-39.495-22.456-53.889L239.284,254.652z M221.211,344.469
		L112.78,452.247c-9.965,9.905-26.179,9.905-36.144,0l-18.072-17.962c-9.965-9.906-9.965-26.02,0-35.928l108.431-107.779
		c9.966-9.906,26.179-9.906,36.142,0l18.075,17.966c4.826,4.797,7.485,11.174,7.485,17.961
		C228.697,333.29,226.039,339.671,221.211,344.469z"/>
	<path style="fill:#48587C;" d="M489.579,41.787l-18.073-17.962c-29.893-29.715-78.537-29.715-108.43,0l-108.43,107.779
		c-14.481,14.393-22.458,33.534-22.458,53.891s7.974,39.494,22.458,53.887l18.068,17.962c14.482,14.398,33.737,22.324,54.218,22.324
		c20.479,0,39.733-7.927,54.216-22.322l108.431-107.781C519.473,119.852,519.473,71.501,489.579,41.787z M453.434,113.642
		L345.003,221.421c-4.826,4.797-11.245,7.441-18.072,7.441c-6.826,0-13.244-2.644-18.072-7.443l-18.073-17.964
		c-4.827-4.797-7.486-11.175-7.486-17.96c0-6.786,2.658-13.167,7.486-17.964L399.219,59.749c9.967-9.905,26.18-9.904,36.145,0.001
		l18.07,17.962C463.4,87.619,463.4,103.734,453.434,113.642z"/>
</g>
<path style="opacity:0.1;enable-background:new    ;" d="M170.478,466.621c-14.482,14.396-33.738,22.321-54.216,22.321
	c-20.481,0-39.734-7.926-54.217-22.323l-18.069-17.962c-14.484-14.393-22.458-33.531-22.458-53.889
	c0-19.095,7.02-37.119,19.843-51.161l-18.902,18.789C7.977,376.789,0,395.931,0,416.286c0,20.358,7.974,39.495,22.458,53.889
	l18.069,17.962c14.482,14.398,33.736,22.324,54.217,22.324c20.479,0,39.733-7.927,54.216-22.322L170.478,466.621z"/>
<path style="fill:#48587C;" d="M489.579,149.566L381.147,257.347c-14.481,14.396-33.737,22.322-54.216,22.322
	c-20.481,0-39.734-7.927-54.218-22.324l-18.068-17.962c-14.484-14.393-22.458-33.531-22.458-53.887s7.977-39.497,22.458-53.891
	l108.43-107.78c29.893-29.715,78.537-29.715,108.43,0l18.073,17.962C519.473,71.501,519.473,119.852,489.579,149.566z
	 M290.788,167.531c-4.827,4.798-7.486,11.178-7.486,17.964c0,6.785,2.658,13.164,7.486,17.96l18.073,17.964
	c4.827,4.799,11.245,7.443,18.072,7.443c6.826,0,13.245-2.644,18.072-7.441l108.431-107.779c9.965-9.907,9.965-26.022-0.001-35.929
	l-18.07-17.962c-9.965-9.905-26.178-9.907-36.145-0.001L290.788,167.531z"/>
<path style="opacity:0.1;enable-background:new    ;" d="M402.665,235.828c-14.482,14.396-33.737,22.322-54.217,22.322
	c-20.481,0-39.734-7.927-54.217-22.324l-18.069-17.962c-14.484-14.393-22.458-33.531-22.458-53.887
	c0-19.095,7.021-37.12,19.842-51.161l-18.901,18.788c-14.481,14.393-22.458,33.534-22.458,53.891s7.974,39.494,22.458,53.887
	l18.068,17.962c14.482,14.398,33.737,22.324,54.218,22.324c20.479,0,39.733-7.927,54.216-22.322L402.665,235.828z"/>
<path style="fill:#789DB0;" d="M352.232,192.678L192.297,351.654c-9.982,9.92-26.163,9.92-36.144,0
	c-9.981-9.92-9.981-26.006,0-35.927L316.09,156.751c9.98-9.92,26.161-9.92,36.142,0
	C362.214,166.674,362.214,182.759,352.232,192.678z"/>
<path style="opacity:0.2;fill:#FFFFFF;enable-background:new    ;" d="M352.232,156.751c-9.981-9.92-26.162-9.92-36.142,0
	l-33.655,33.798c9.979-9.92,26.162-9.92,36.141,0c9.177,9.121,9.894,23.436,2.2,33.397l31.457-31.269
	C362.214,182.759,362.214,166.674,352.232,156.751z"/>
<path style="opacity:0.1;enable-background:new    ;" d="M190.189,318.216c-9.981-9.92-9.981-26.006,0-35.928l-34.037,33.439
	c-9.981,9.92-9.981,26.006,0,35.927c9.981,9.92,26.162,9.92,36.144,0l31.303-31.115C213.587,328.034,199.307,327.28,190.189,318.216
	z"/>
<g>
</g>
<g>
</g>
<g>
</g>
<g>
</g>
<g>
</g>
<g>
</g>
<g>
</g>
<g>
</g>
<g>
</g>
<g>
</g>
<g>
</g>
<g>
</g>
<g>
</g>
<g>
</g>
<g>
</g>
</svg>
