<?xml version="1.0" encoding="iso-8859-1"?>
<!-- Generator: Adobe Illustrator 19.0.0, SVG Export Plug-In . SVG Version: 6.00 Build 0)  -->
<svg version="1.1" id="Layer_1" xmlns="http://www.w3.org/2000/svg" xmlns:xlink="http://www.w3.org/1999/xlink" x="0px" y="0px"
	 viewBox="0 0 512 512" style="enable-background:new 0 0 512 512;" xml:space="preserve">
<path style="fill:#6F7A80;" d="M159.142,261.627V140.619c0-50.089,41.195-90.843,91.829-90.843h10.063
	c50.634,0,91.829,40.753,91.829,90.843v121.008h50.317V140.619C403.179,63.082,339.415,0,261.033,0H250.97
	c-78.381,0-142.146,63.082-142.146,140.619v121.008H159.142z"/>
<g style="opacity:0.1;">
	<path id="SVGCleanerId_0" d="M272.957,0.498C269.025,0.176,250.971,0,250.971,0C172.59,0,108.825,63.082,108.825,140.619v121.008
		h33.908V140.619C142.733,67.053,200.135,6.511,272.957,0.498z"/>
	<g>
		<path id="SVGCleanerId_0_1_" d="M272.957,0.498C269.025,0.176,250.971,0,250.971,0C172.59,0,108.825,63.082,108.825,140.619
			v121.008h33.908V140.619C142.733,67.053,200.135,6.511,272.957,0.498z"/>
	</g>
</g>
<path style="fill:#FCB63E;" d="M464.821,456.915c0,30.422-24.931,55.085-55.686,55.085H102.869
	c-30.754,0-55.686-24.663-55.686-55.085V257.227c0-30.423,24.931-55.087,55.686-55.087h306.265
	c30.755,0,55.686,24.664,55.686,55.087v199.688H464.821z"/>
<rect x="47.179" y="364.648" style="fill:#48587C;" width="417.635" height="68.857"/>
<path style="opacity:0.2;fill:#FFFFFF;enable-background:new    ;" d="M409.135,202.14h-33.708
	c30.753,0,55.685,24.664,55.685,55.087v199.688c0,30.422-24.931,55.085-55.685,55.085h33.708c30.754,0,55.686-24.663,55.686-55.085
	V257.227C464.821,226.803,439.888,202.14,409.135,202.14z"/>
<path style="opacity:0.1;enable-background:new    ;" d="M92.162,456.915V257.227c0-30.423,24.931-55.087,55.685-55.087h-44.978
	c-30.754,0-55.686,24.664-55.686,55.087v199.688c0,30.422,24.931,55.085,55.686,55.085h44.978
	C117.094,512,92.162,487.337,92.162,456.915z"/>
<path style="fill:#48587C;" d="M279.204,304.322c0,12.678-10.386,22.952-23.202,22.952l0,0c-12.815,0-23.202-10.274-23.202-22.952
	v-42.626c0-12.678,10.387-22.954,23.202-22.954l0,0c12.817,0,23.202,10.277,23.202,22.954V304.322z"/>
<g>
</g>
<g>
</g>
<g>
</g>
<g>
</g>
<g>
</g>
<g>
</g>
<g>
</g>
<g>
</g>
<g>
</g>
<g>
</g>
<g>
</g>
<g>
</g>
<g>
</g>
<g>
</g>
<g>
</g>
</svg>
