<?xml version="1.0" encoding="iso-8859-1"?>
<!-- Generator: Adobe Illustrator 19.0.0, SVG Export Plug-In . SVG Version: 6.00 Build 0)  -->
<svg version="1.1" id="Layer_1" xmlns="http://www.w3.org/2000/svg" xmlns:xlink="http://www.w3.org/1999/xlink" x="0px" y="0px"
	 viewBox="0 0 512.001 512.001" style="enable-background:new 0 0 512.001 512.001;" xml:space="preserve">
<path style="fill:#6F7A80;" d="M387.382,438.378c-4.574,0-9.208-1.155-13.453-3.587L59.226,254.498L373.93,74.208
	c12.891-7.385,29.377-3.004,36.822,9.791c7.445,12.793,3.026,29.151-9.867,36.537L167.048,254.498l233.837,133.965
	c12.893,7.384,17.312,23.744,9.867,36.537C405.76,433.58,396.699,438.378,387.382,438.378z"/>
<path style="fill:#FCB63E;" d="M423.81,0c-46.447,0-84.23,37.449-84.23,83.479c0,46.033,37.785,83.48,84.23,83.48
	c46.441,0,84.226-37.447,84.226-83.48C508.036,37.449,470.251,0,423.81,0z"/>
<path style="fill:#48587C;" d="M423.81,345.042c-46.447,0-84.23,37.45-84.23,83.48c0,46.033,37.785,83.479,84.23,83.479
	c46.441,0,84.226-37.446,84.226-83.479C508.036,382.492,470.251,345.042,423.81,345.042z"/>
<path style="fill:#00D6C1;" d="M88.196,171.019c-46.446,0-84.23,37.449-84.23,83.479c0,46.033,37.786,83.479,84.23,83.479
	c46.443,0,84.226-37.446,84.226-83.479C172.422,208.469,134.638,171.019,88.196,171.019z"/>
<path style="opacity:0.1;enable-background:new    ;" d="M384.851,83.479c0-38.257,26.112-70.565,61.594-80.392
	C439.236,1.091,431.652,0,423.81,0c-46.447,0-84.23,37.449-84.23,83.479c0,46.033,37.785,83.48,84.23,83.48
	c7.842,0,15.427-1.091,22.635-3.087C410.961,154.044,384.851,121.739,384.851,83.479z"/>
<path style="opacity:0.1;enable-background:new    ;" d="M384.851,428.521c0-38.258,26.112-70.565,61.594-80.392
	c-7.208-1.997-14.793-3.088-22.635-3.088c-46.447,0-84.23,37.45-84.23,83.48c0,46.033,37.785,83.479,84.23,83.479
	c7.842,0,15.427-1.091,22.635-3.086C410.961,499.086,384.851,466.781,384.851,428.521z"/>
<path style="opacity:0.1;enable-background:new    ;" d="M49.237,254.498c0-38.258,26.113-70.565,61.595-80.392
	c-7.209-1.997-14.794-3.087-22.636-3.087c-46.446,0-84.23,37.449-84.23,83.479c0,46.033,37.786,83.479,84.23,83.479
	c7.842,0,15.427-1.09,22.636-3.086C75.349,325.064,49.237,292.758,49.237,254.498z"/>
<g>
	<path style="fill:#FFFFFF;" d="M423.81,142.705c-4.465,0-8.084-3.618-8.084-8.083c0-4.465,3.62-8.084,8.084-8.084
		c24.154,0,43.805-19.315,43.805-43.058c0-4.465,3.62-8.083,8.084-8.083c4.465,0,8.084,3.618,8.084,8.083
		C483.783,116.136,456.879,142.705,423.81,142.705z"/>
	<path style="fill:#FFFFFF;" d="M423.81,487.747c-4.465,0-8.084-3.618-8.084-8.083c0-4.465,3.62-8.084,8.084-8.084
		c24.154,0,43.805-19.315,43.805-43.057c0-4.465,3.62-8.084,8.084-8.084c4.465,0,8.084,3.62,8.084,8.084
		C483.783,461.178,456.879,487.747,423.81,487.747z"/>
	<path style="fill:#FFFFFF;" d="M88.196,313.724c-4.465,0-8.084-3.62-8.084-8.084c0-4.465,3.62-8.083,8.084-8.083
		c24.154,0,43.805-19.316,43.805-43.058c0-4.465,3.62-8.084,8.084-8.084s8.084,3.62,8.084,8.084
		C148.169,287.156,121.265,313.724,88.196,313.724z"/>
</g>
<g>
</g>
<g>
</g>
<g>
</g>
<g>
</g>
<g>
</g>
<g>
</g>
<g>
</g>
<g>
</g>
<g>
</g>
<g>
</g>
<g>
</g>
<g>
</g>
<g>
</g>
<g>
</g>
<g>
</g>
</svg>
