<?xml version="1.0" encoding="iso-8859-1"?>
<!-- Generator: Adobe Illustrator 19.0.0, SVG Export Plug-In . SVG Version: 6.00 Build 0)  -->
<svg version="1.1" id="Layer_1" xmlns="http://www.w3.org/2000/svg" xmlns:xlink="http://www.w3.org/1999/xlink" x="0px" y="0px"
	 viewBox="0 0 512 512" style="enable-background:new 0 0 512 512;" xml:space="preserve">
<polygon style="fill:#E2534B;" points="145.652,119.154 145.652,86.727 66.841,86.727 66.841,191.11 "/>
<path style="fill:#B3B3B3;" d="M154.409,80.026c0,6.046-4.901,10.946-10.946,10.946H69.03c-6.046,0-10.945-4.901-10.945-10.946
	v-16.42c0-6.045,4.9-10.946,10.945-10.946h74.432c6.046,0,10.946,4.901,10.946,10.946V80.026z"/>
<path style="fill:#E2E9E3;" d="M107.23,495.748c-23.442,0-42.448-19.005-42.448-42.448V241.062c0-11.928,5.018-23.305,13.827-31.346
	L227.38,73.884c8.105-7.4,18.362-11.1,28.621-11.1c10.257,0,20.516,3.7,28.621,11.1l148.769,135.833
	c8.809,8.04,13.827,19.418,13.827,31.346V453.3c0,23.443-19.006,42.448-42.448,42.448H107.23z"/>
<path style="opacity:0.2;fill:#FFFFFF;enable-background:new    ;" d="M426.745,248.325V453.3c0,23.443-19.005,42.448-42.447,42.448
	h20.474c23.442,0,42.448-19.005,42.448-42.448V248.325H426.745z"/>
<path style="opacity:0.1;enable-background:new    ;" d="M96.672,314.83c0-11.928,5.019-23.305,13.827-31.347l148.772-135.833
	c8.104-7.4,18.361-11.099,28.62-11.099c10.258,0,20.516,3.699,28.622,11.099L447.22,266.99v-25.928
	c0-11.928-5.019-23.305-13.827-31.346L284.622,73.884c-8.105-7.4-18.364-11.1-28.621-11.1c-10.259,0-20.516,3.7-28.621,11.1
	L78.61,209.716c-8.81,8.04-13.827,19.418-13.827,31.346V453.3c0,19.798,13.555,36.429,31.89,41.122V314.83H96.672z"/>
<path style="fill:#E2534B;" d="M256,332.913c-28.26,0-51.169,22.909-51.169,51.168v111.667h102.336V384.081
	C307.169,355.822,284.259,332.913,256,332.913z"/>
<path style="fill:#E2E9E3;" d="M293.049,427.582c0,3.986-3.231,7.218-7.217,7.218l0,0c-3.984,0-7.216-3.232-7.216-7.218v-20.991
	c0-3.985,3.232-7.216,7.216-7.216l0,0c3.986,0,7.217,3.232,7.217,7.216V427.582z"/>
<path style="fill:#46D8BA;" d="M296.717,278.316c0,4.499-3.646,8.143-8.143,8.143h-65.148c-4.498,0-8.144-3.644-8.144-8.143v-65.148
	c0-4.498,3.646-8.144,8.144-8.144h65.148c4.498,0,8.143,3.646,8.143,8.144V278.316z"/>
<g>
	<path style="fill:#E2534B;" d="M288.574,202.984h-65.148c-8.949,0-16.227,7.28-16.227,16.226v65.148
		c0,8.947,7.28,16.227,16.227,16.227h65.148c8.949,0,16.227-7.28,16.227-16.227V219.21
		C304.801,210.264,297.521,202.984,288.574,202.984z M288.633,219.21l-0.016,26.065h-24.533v-26.087L288.633,219.21z
		 M247.916,219.174v26.102h-24.514l0.024-26.124L247.916,219.174z M223.367,284.359l0.021-22.915h24.529v22.936L223.367,284.359z
		 M288.574,284.418l-24.489-0.022v-22.952h24.524l-0.014,22.972C288.595,284.416,288.588,284.418,288.574,284.418z"/>
	<path style="fill:#E2534B;" d="M502.942,231.868L274.748,23.521c-5.309-4.847-12.028-7.268-18.748-7.268
		c-6.719,0-13.437,2.421-18.747,7.268L9.058,231.868c-8.474,7.739-11.326,19.887-7.176,30.586c4.149,10.7,14.447,17.75,25.923,17.75
		h27.49c6.937,0,13.624-2.592,18.748-7.27l163.161-148.591l0.05-0.046c5.309-4.847,12.028-7.268,18.747-7.268
		c6.72,0,13.438,2.421,18.748,7.268l0.05,0.046l163.159,148.591c5.124,4.678,11.81,7.271,18.748,7.271h27.49
		c11.476,0,21.774-7.05,25.923-17.75C514.268,251.756,511.417,239.608,502.942,231.868z"/>
</g>
<g style="opacity:0.2;">
	<path style="fill:#FFFFFF;" d="M502.942,231.868L278.888,27.3c-4.25,1.104-8.292,3.222-11.737,6.37l-6.18,5.642l210.31,192.017
		c8.474,7.739,11.325,19.886,7.174,30.585c-4.148,10.701-14.446,17.751-25.921,17.751h-1.254c1.775,0.353,3.592,0.54,5.425,0.54
		h27.49c11.476,0,21.774-7.05,25.923-17.75C514.268,251.756,511.417,239.608,502.942,231.868z"/>
</g>
<g style="opacity:0.1;">
	<path id="SVGCleanerId_0" d="M31.78,272.605c-4.149-10.699-1.3-22.849,7.175-30.585L267.149,33.67
		c3.445-3.147,7.488-5.265,11.737-6.37l-4.14-3.779c-5.309-4.847-12.028-7.268-18.748-7.268c-6.719,0-13.437,2.421-18.747,7.268
		L9.058,231.868c-8.474,7.739-11.326,19.887-7.176,30.586c4.149,10.7,14.447,17.75,25.923,17.75h8.431
		C34.391,277.962,32.869,275.412,31.78,272.605z"/>
	<g>
		<path id="SVGCleanerId_0_1_" d="M31.78,272.605c-4.149-10.699-1.3-22.849,7.175-30.585L267.149,33.67
			c3.445-3.147,7.488-5.265,11.737-6.37l-4.14-3.779c-5.309-4.847-12.028-7.268-18.748-7.268c-6.719,0-13.437,2.421-18.747,7.268
			L9.058,231.868c-8.474,7.739-11.326,19.887-7.176,30.586c4.149,10.7,14.447,17.75,25.923,17.75h8.431
			C34.391,277.962,32.869,275.412,31.78,272.605z"/>
	</g>
</g>
<g>
</g>
<g>
</g>
<g>
</g>
<g>
</g>
<g>
</g>
<g>
</g>
<g>
</g>
<g>
</g>
<g>
</g>
<g>
</g>
<g>
</g>
<g>
</g>
<g>
</g>
<g>
</g>
<g>
</g>
</svg>
