<?xml version="1.0" encoding="iso-8859-1"?>
<!-- Generator: Adobe Illustrator 19.0.0, SVG Export Plug-In . SVG Version: 6.00 Build 0)  -->
<svg version="1.1" id="Layer_1" xmlns="http://www.w3.org/2000/svg" xmlns:xlink="http://www.w3.org/1999/xlink" x="0px" y="0px"
	 viewBox="0 0 512 512" style="enable-background:new 0 0 512 512;" xml:space="preserve">
<path style="fill:#384463;" d="M507.351,461.487L380.41,334.236c-6.121,8.911-13.789,16.499-22.518,22.502l126.923,127.233
	c3.11,3.116,7.188,4.676,11.268,4.676c4.067,0,8.135-1.55,11.242-4.649C513.547,477.789,513.56,467.711,507.351,461.487z"/>
<path style="fill:#E2E9E3;" d="M44.384,23.353h193.005l104.358,103.408v25.903v284.087c0,24.288-19.872,43.979-44.384,43.979H44.384
	C19.872,480.729,0,461.039,0,436.75V67.332C0,43.043,19.872,23.353,44.384,23.353z"/>
<path style="opacity:0.1;enable-background:new    ;" d="M33.366,436.75V67.332c0-24.288,19.872-43.979,44.384-43.979H44.384
	C19.872,23.353,0,43.043,0,67.332v369.419c0,24.288,19.872,43.979,44.384,43.979H77.75C53.238,480.729,33.366,461.039,33.366,436.75
	z"/>
<path style="fill:#46D8BA;" d="M237.388,23.353l104.358,103.408v1.294H281.73c-25.289,0-45.788-20.314-45.788-45.373V23.353H237.388
	z"/>
<path style="opacity:0.1;enable-background:new    ;" d="M257.635,82.682V43.415l-20.247-20.062h-1.447v59.329
	c0,25.058,20.5,45.373,45.788,45.373h21.693C278.135,128.055,257.635,107.74,257.635,82.682z"/>
<g>
	<path style="fill:#B3B3B3;" d="M253.668,388.09H78.421c-5.861,0-10.612-4.751-10.612-10.611s4.751-10.611,10.612-10.611h175.246
		c5.86,0,10.611,4.751,10.611,10.611S259.528,388.09,253.668,388.09z"/>
	<path style="fill:#B3B3B3;" d="M253.668,216.376H78.421c-5.861,0-10.612-4.752-10.612-10.611c0-5.86,4.751-10.612,10.612-10.612
		h175.246c5.86,0,10.611,4.752,10.611,10.612C264.279,211.624,259.528,216.376,253.668,216.376z"/>
	<path style="fill:#B3B3B3;" d="M166.044,172.902H78.421c-5.861,0-10.612-4.752-10.612-10.612c0-5.859,4.751-10.611,10.612-10.611
		h87.622c5.861,0,10.612,4.752,10.612,10.611C176.655,168.15,171.905,172.902,166.044,172.902z"/>
	<path style="fill:#B3B3B3;" d="M233.202,238.084H78.421c-5.861,0-10.612,4.751-10.612,10.611c0,5.86,4.751,10.612,10.612,10.612
		h145.37C225.942,251.933,229.092,244.796,233.202,238.084z"/>
	<path style="fill:#B3B3B3;" d="M220.314,281.01H78.421c-5.861,0-10.612,4.751-10.612,10.611c0,5.86,4.751,10.611,10.612,10.611
		h143.695C220.664,295.245,220.062,288.116,220.314,281.01z"/>
	<path style="fill:#B3B3B3;" d="M229.691,323.94H78.421c-5.861,0-10.612,4.751-10.612,10.611c0,5.86,4.751,10.611,10.612,10.611
		h166.29C238.535,338.707,233.526,331.548,229.691,323.94z"/>
</g>
<path style="fill:#48587C;" d="M374.27,217.611c36.607,36.754,36.607,96.346,0,133.103c-36.607,36.756-95.958,36.756-132.566,0
	c-36.607-36.757-36.607-96.349,0-133.103C278.311,180.855,337.662,180.855,374.27,217.611z"/>
<path style="fill:#789DB0;" d="M355.263,331.629c-26.067,26.176-68.484,26.176-94.553,0c-26.07-26.173-26.07-68.763,0-94.936
	c26.069-26.174,68.486-26.174,94.553,0C381.332,262.866,381.332,305.457,355.263,331.629z"/>
<path style="opacity:0.1;enable-background:new    ;" d="M366.127,309.873c-26.067,26.176-68.484,26.176-94.553,0
	c-17.819-17.888-23.449-43.444-16.912-66.188c-19.82,26.288-17.813,63.987,6.048,87.944c26.069,26.176,68.486,26.176,94.553,0
	c8.253-8.285,13.883-18.217,16.912-28.749C370.34,305.312,368.335,307.657,366.127,309.873z"/>
<path style="fill:#FFFFFF;" d="M353.776,281.034c-4.389,0-7.951-3.553-7.959-7.944c-0.029-15.087-12.362-27.386-27.491-27.416
	c-4.396-0.008-7.951-3.58-7.943-7.975c0.008-4.389,3.569-7.943,7.958-7.943c0.005,0,0.01,0,0.016,0
	c23.872,0.047,43.331,19.473,43.378,43.303c0.008,4.395-3.547,7.965-7.943,7.975C353.787,281.034,353.782,281.034,353.776,281.034z"
	/>
<g>
</g>
<g>
</g>
<g>
</g>
<g>
</g>
<g>
</g>
<g>
</g>
<g>
</g>
<g>
</g>
<g>
</g>
<g>
</g>
<g>
</g>
<g>
</g>
<g>
</g>
<g>
</g>
<g>
</g>
</svg>
