<?xml version="1.0" encoding="iso-8859-1"?>
<!-- Generator: Adobe Illustrator 19.0.0, SVG Export Plug-In . SVG Version: 6.00 Build 0)  -->
<svg version="1.1" id="Layer_1" xmlns="http://www.w3.org/2000/svg" xmlns:xlink="http://www.w3.org/1999/xlink" x="0px" y="0px"
	 viewBox="0 0 512 512" style="enable-background:new 0 0 512 512;" xml:space="preserve">
<path style="fill:#EA9924;" d="M512,378.428c0,28.47-22.923,51.548-51.2,51.548H51.2c-28.278,0-51.2-23.078-51.2-51.548V94.911
	c0-28.47,22.923-51.549,51.2-51.549h409.6c28.278,0,51.2,23.079,51.2,51.549V378.428z"/>
<path style="fill:#FCB63E;" d="M460.8,93.623H273.064l-9.807-27.647c-7.278-20.517-26.58-34.211-48.217-34.211H51.2
	C22.922,31.765,0,54.844,0,83.313v345.375c0,28.47,22.923,51.548,51.2,51.548h409.6c28.278,0,51.2-23.078,51.2-51.548V145.171
	C512,116.701,489.078,93.623,460.8,93.623z"/>
<path style="opacity:0.1;enable-background:new    ;" d="M42.841,428.688V83.312c0-28.469,22.923-51.548,51.2-51.548H51.2
	C22.922,31.764,0,54.843,0,83.312v345.375c0,28.47,22.923,51.548,51.2,51.548h42.841C65.764,480.236,42.841,457.159,42.841,428.688z
	"/>
<path style="opacity:0.2;fill:#FFFFFF;enable-background:new    ;" d="M460.8,93.623h-30.72c28.278,0,51.2,23.079,51.2,51.548
	v283.517c0,28.47-22.922,51.548-51.2,51.548h30.72c28.278,0,51.2-23.078,51.2-51.548V145.171
	C512,116.701,489.078,93.623,460.8,93.623z"/>
<path style="fill:#DB5D45;" d="M445.134,224.631c-2.089,0-4.15-0.778-5.721-2.252l-29.108-22.57l-29.111,22.57
	c-1.57,1.473-3.631,2.252-5.721,2.252c-1.102,0-2.211-0.214-3.265-0.659c-3.049-1.287-5.025-4.244-5.025-7.515V92.231
	c0-4.512,3.713-8.171,8.291-8.171h69.657c4.579,0,8.293,3.659,8.293,8.171v124.226c0,3.272-1.979,6.228-5.026,7.515
	C447.347,224.416,446.238,224.631,445.134,224.631z"/>
<g>
</g>
<g>
</g>
<g>
</g>
<g>
</g>
<g>
</g>
<g>
</g>
<g>
</g>
<g>
</g>
<g>
</g>
<g>
</g>
<g>
</g>
<g>
</g>
<g>
</g>
<g>
</g>
<g>
</g>
</svg>
