<?xml version="1.0" encoding="iso-8859-1"?>
<!-- Generator: Adobe Illustrator 19.0.0, SVG Export Plug-In . SVG Version: 6.00 Build 0)  -->
<svg version="1.1" id="Layer_1" xmlns="http://www.w3.org/2000/svg" xmlns:xlink="http://www.w3.org/1999/xlink" x="0px" y="0px"
	 viewBox="0 0 512.001 512.001" style="enable-background:new 0 0 512.001 512.001;" xml:space="preserve">
<path style="fill:#FCB63E;" d="M480.58,222.742c1.084-13.904-3.969-27.875-14.275-37.808L287.813,12.893
	C278.893,4.296,267.448,0,256,0c-11.446,0-22.895,4.299-31.812,12.893L45.694,184.934c-10.306,9.933-15.359,23.903-14.274,37.808
	c-0.086,1.35-0.144,2.707-0.144,4.08V450.34c0,34.055,26.829,61.66,59.927,61.66h329.596c33.097,0,59.926-27.605,59.926-61.66
	V226.822C480.724,225.449,480.666,224.092,480.58,222.742z"/>
<g>
	<path style="fill:#EA9924;" d="M286.796,407.615c-8.632,8.221-19.715,12.333-30.796,12.333c-11.082,0-22.163-4.112-30.797-12.333
		c0,0-193.927-182.067-193.927-180.791v223.517c0,34.055,26.829,61.66,59.927,61.66h329.596c33.097,0,59.926-27.605,59.926-61.66
		V226.822C480.724,225.546,286.796,407.615,286.796,407.615z"/>
	<path style="fill:#EA9924;" d="M480.58,222.742c1.084-13.904-3.969-27.875-14.275-37.808L287.813,12.893
		C278.893,4.296,267.448,0,256,0c-11.446,0-22.895,4.299-31.812,12.893L45.694,184.934c-10.306,9.933-15.359,23.903-14.274,37.808
		c-0.086,1.35-0.144,2.707-0.144,4.08V450.34c0,34.055,26.829,61.66,59.927,61.66h329.596c33.097,0,59.926-27.605,59.926-61.66
		V226.822C480.724,225.449,480.666,224.092,480.58,222.742z"/>
</g>
<path style="fill:#FFFFFF;" d="M440.456,457.007V117.225c0-20.513-16.559-37.142-36.984-37.142H108.528
	c-20.426,0-36.984,16.629-36.984,37.142v339.782H440.456z"/>
<path style="fill:#E2E9E3;" d="M440.456,457.007V117.225c0-20.513-16.559-37.142-36.984-37.142H108.528
	c-20.426,0-36.984,16.629-36.984,37.142v339.782H440.456z"/>
<path style="opacity:0.1;enable-background:new    ;" d="M105.182,139.577c0-20.512,16.558-37.142,36.984-37.142H437.11
	c0.098,0,0.195,0.007,0.294,0.007c-5.691-13.155-18.738-22.359-33.931-22.359H108.529c-20.426,0-36.984,16.629-36.984,37.142
	v339.781h33.636L105.182,139.577L105.182,139.577z"/>
<g>
	<path style="fill:#B3B3B3;" d="M341.835,295.775h-171.67c-5.227,0-9.463,4.256-9.463,9.503c0,5.249,4.236,9.502,9.463,9.502
		h171.672c5.227,0,9.463-4.253,9.463-9.502C351.298,300.032,347.062,295.775,341.835,295.775z"/>
	<path style="fill:#B3B3B3;" d="M341.835,253.412h-171.67c-5.227,0-9.463,4.256-9.463,9.502c0,5.249,4.236,9.502,9.463,9.502
		h171.672c5.227,0,9.463-4.253,9.463-9.502C351.298,257.669,347.062,253.412,341.835,253.412z"/>
	<path style="fill:#B3B3B3;" d="M170.165,230.054h171.672c5.227,0,9.463-4.255,9.463-9.503c0-5.247-4.236-9.502-9.463-9.502H170.165
		c-5.227,0-9.463,4.254-9.463,9.502C160.702,225.799,164.938,230.054,170.165,230.054z"/>
	<path style="fill:#B3B3B3;" d="M170.165,187.149H256c5.226,0,9.463-4.253,9.463-9.502c0-5.249-4.236-9.502-9.463-9.502h-85.835
		c-5.227,0-9.463,4.254-9.463,9.502C160.702,182.896,164.938,187.149,170.165,187.149z"/>
</g>
<path style="fill:#FCB63E;" d="M286.796,407.615c-8.632,8.221-19.715,12.333-30.796,12.333c-11.082,0-22.163-4.112-30.797-12.333
	c0,0-193.927-182.067-193.927-180.791v223.517c0,34.055,26.829,61.66,59.927,61.66h329.596c33.097,0,59.926-27.605,59.926-61.66
	V226.822C480.724,225.546,286.796,407.615,286.796,407.615z"/>
<path style="fill:#EA9924;" d="M342.3,355.562c-31.302,29.33-55.504,52.052-55.504,52.052c-8.632,8.221-19.715,12.333-30.796,12.333
	c-11.082,0-22.163-4.112-30.797-12.333c0,0-24.202-22.721-55.504-52.052L38.793,480.239C49.02,499.178,68.652,512,91.203,512
	h329.596c22.55,0,42.181-12.822,52.409-31.76L342.3,355.562z"/>
<path style="opacity:0.2;fill:#FFFFFF;enable-background:new    ;" d="M446.907,257.801v192.539c0,34.055-26.829,61.66-59.926,61.66
	h33.817c33.097,0,59.926-27.605,59.926-61.66V226.822C480.724,226.484,467.02,239.1,446.907,257.801z"/>
<g style="opacity:0.1;">
	<path id="SVGCleanerId_0" d="M65.299,450.34V257.993c-20.228-18.809-34.023-31.511-34.023-31.17V450.34
		c0,34.055,26.829,61.66,59.927,61.66h34.024C92.128,512,65.299,484.395,65.299,450.34z"/>
	<g>
		<path id="SVGCleanerId_0_1_" d="M65.299,450.34V257.993c-20.228-18.809-34.023-31.511-34.023-31.17V450.34
			c0,34.055,26.829,61.66,59.927,61.66h34.024C92.128,512,65.299,484.395,65.299,450.34z"/>
	</g>
</g>
<g>
</g>
<g>
</g>
<g>
</g>
<g>
</g>
<g>
</g>
<g>
</g>
<g>
</g>
<g>
</g>
<g>
</g>
<g>
</g>
<g>
</g>
<g>
</g>
<g>
</g>
<g>
</g>
<g>
</g>
</svg>
