<?xml version="1.0" encoding="iso-8859-1"?>
<!-- Generator: Adobe Illustrator 19.0.0, SVG Export Plug-In . SVG Version: 6.00 Build 0)  -->
<svg version="1.1" id="Layer_1" xmlns="http://www.w3.org/2000/svg" xmlns:xlink="http://www.w3.org/1999/xlink" x="0px" y="0px"
	 viewBox="0 0 512 512" style="enable-background:new 0 0 512 512;" xml:space="preserve">
<path style="fill:#46D8BA;" d="M474.394,249.987H267.556c-20.77,0-37.606,16.997-37.606,37.962v137.614
	c0,20.965,16.835,37.962,37.606,37.962h148.956l17.369,30.371c1.68,2.937,4.786,4.745,8.143,4.745c3.358,0,6.462-1.808,8.142-4.745
	l17.369-30.371h6.859c20.77,0,37.606-16.997,37.606-37.962V287.949C512,266.984,495.165,249.987,474.394,249.987z"/>
<path style="opacity:0.2;fill:#FFFFFF;enable-background:new    ;" d="M474.394,249.987h-18.461
	c19.184,2.073,34.124,18.46,34.124,38.375V428.29c0,21.317-22.522,35.237-22.522,35.237h6.859c20.77,0,37.606-16.997,37.606-37.962
	V287.949C512,266.984,495.165,249.987,474.394,249.987z"/>
<path style="fill:#48587C;" d="M362.262,13.358H55.733C24.951,13.358,0,38.547,0,69.617v203.942c0,31.071,24.951,56.26,55.733,56.26
	h6.572l26.547,46.413c2.488,4.352,7.09,7.034,12.066,7.034c4.977,0,9.578-2.681,12.065-7.034l26.548-46.413h222.731
	c30.78,0,55.733-25.189,55.733-56.26V69.617C417.995,38.547,393.042,13.358,362.262,13.358z"/>
<g style="opacity:0.1;">
	<path id="SVGCleanerId_0" d="M95.706,304.967h-6.572c-30.781,0-55.733-25.188-55.733-56.26V44.765
		c0-10.871,3.064-21.016,8.354-29.621C17.739,21.404,0,43.419,0,69.617v203.942c0,31.071,24.951,56.26,55.733,56.26h6.572
		l26.547,46.413c2.488,4.352,7.09,7.034,12.066,7.034c4.977,0,9.578-2.681,12.065-7.034l12.175-21.287
		C124.018,353.941,95.706,304.967,95.706,304.967z"/>
	<g>
		<path id="SVGCleanerId_0_1_" d="M95.706,304.967h-6.572c-30.781,0-55.733-25.188-55.733-56.26V44.765
			c0-10.871,3.064-21.016,8.354-29.621C17.739,21.404,0,43.419,0,69.617v203.942c0,31.071,24.951,56.26,55.733,56.26h6.572
			l26.547,46.413c2.488,4.352,7.09,7.034,12.066,7.034c4.977,0,9.578-2.681,12.065-7.034l12.175-21.287
			C124.018,353.941,95.706,304.967,95.706,304.967z"/>
	</g>
</g>
<g style="opacity:0.2;">
	<path style="fill:#FFFFFF;" d="M362.262,13.358h-33.725c30.78,0,55.733,25.187,55.733,56.258v203.942
		c0,31.071-24.952,56.26-55.733,56.26h33.725c30.78,0,55.733-25.189,55.733-56.26V69.617
		C417.995,38.547,393.042,13.358,362.262,13.358z"/>
</g>
<g>
	<path style="fill:#DB5D45;" d="M139.348,174.385c0,12.869-10.396,23.3-23.217,23.3l0,0c-12.823,0-23.217-10.43-23.217-23.3l0,0
		c0-12.867,10.394-23.3,23.217-23.3l0,0C128.952,151.084,139.348,161.517,139.348,174.385L139.348,174.385z"/>
	<path style="fill:#DB5D45;" d="M232.215,174.385c0,12.869-10.396,23.3-23.217,23.3l0,0c-12.822,0-23.218-10.43-23.218-23.3l0,0
		c0-12.867,10.396-23.3,23.218-23.3l0,0C221.819,151.084,232.215,161.517,232.215,174.385L232.215,174.385z"/>
	<path style="fill:#DB5D45;" d="M325.08,174.385c0,12.869-10.393,23.3-23.215,23.3l0,0c-12.822,0-23.217-10.43-23.217-23.3l0,0
		c0-12.867,10.395-23.3,23.217-23.3l0,0C314.687,151.084,325.08,161.517,325.08,174.385L325.08,174.385z"/>
</g>
<g>
</g>
<g>
</g>
<g>
</g>
<g>
</g>
<g>
</g>
<g>
</g>
<g>
</g>
<g>
</g>
<g>
</g>
<g>
</g>
<g>
</g>
<g>
</g>
<g>
</g>
<g>
</g>
<g>
</g>
</svg>
