<?xml version="1.0" encoding="iso-8859-1"?>
<!-- Generator: Adobe Illustrator 19.0.0, SVG Export Plug-In . SVG Version: 6.00 Build 0)  -->
<svg version="1.1" id="Layer_1" xmlns="http://www.w3.org/2000/svg" xmlns:xlink="http://www.w3.org/1999/xlink" x="0px" y="0px"
	 viewBox="0 0 512.001 512.001" style="enable-background:new 0 0 512.001 512.001;" xml:space="preserve">
<path style="fill:#DB5D45;" d="M34.089,457.764c-8.747,0-15.835-7.09-15.835-15.835v-4.926c0-31.249,13.855-60.925,37.415-80.849
	C21.147,333.408,0,294.316,0,252.332c0-68.256,54.848-123.787,122.262-123.787c67.416,0,122.262,55.531,122.262,123.787
	c0,41.984-21.145,81.076-55.666,103.821c23.558,19.925,37.415,49.6,37.415,80.849v4.926c0,8.746-7.089,15.835-15.835,15.835H34.089
	V457.764z"/>
<path style="opacity:0.1;enable-background:new    ;" d="M51.507,441.928v-4.926c0-31.249,13.855-60.925,37.415-80.849
	c-34.521-22.745-55.668-61.838-55.668-103.821c0-62.546,46.058-114.4,105.636-122.638c-5.439-0.753-10.988-1.149-16.627-1.149
	C54.848,128.545,0,184.076,0,252.332c0,41.984,21.147,81.076,55.668,103.821c-23.558,19.924-37.415,49.6-37.415,80.849v4.926
	c0,8.746,7.089,15.835,15.835,15.835h33.254C58.596,457.764,51.507,450.674,51.507,441.928z"/>
<path style="fill:#48587C;" d="M301.563,457.764c-8.747,0-15.835-7.09-15.835-15.835v-4.926c0-31.249,13.856-60.925,37.415-80.849
	c-34.521-22.745-55.667-61.838-55.667-103.821c0-68.256,54.847-123.787,122.262-123.787c67.417,0,122.263,55.531,122.263,123.787
	c0,41.984-21.145,81.076-55.666,103.821c23.559,19.925,37.416,49.6,37.416,80.849v4.926c0,8.746-7.089,15.835-15.835,15.835H301.563
	z"/>
<path style="opacity:0.2;fill:#FFFFFF;enable-background:new    ;" d="M456.334,356.154C490.855,333.408,512,294.316,512,252.332
	c0-68.256-54.847-123.787-122.264-123.787c-3.806,0-7.564,0.194-11.282,0.544c62.083,5.847,110.848,58.885,110.848,123.243
	c0,41.984-21.145,81.076-55.666,103.821c23.559,19.925,37.415,49.6,37.415,80.849v4.926c0,8.746-7.088,15.835-15.834,15.835h22.697
	c8.747,0,15.835-7.09,15.835-15.835v-4.926C493.749,405.753,479.892,376.079,456.334,356.154z"/>
<path style="fill:#FCB63E;" d="M141.434,457.764c-8.746,0-15.835-7.09-15.835-15.835v-8.535c0-38.734,17.425-75.487,46.977-99.825
	c-43.052-27.682-69.487-75.986-69.487-127.906c0-83.496,67.085-151.425,149.543-151.425c82.459,0,149.544,67.929,149.544,151.425
	c0,51.92-26.435,100.223-69.485,127.906c29.551,24.34,46.978,61.091,46.978,99.825v8.535c0,8.746-7.09,15.835-15.835,15.835H141.434
	z"/>
<path style="opacity:0.1;enable-background:new    ;" d="M152.885,441.928v-8.535c0-38.734,17.425-75.487,46.977-99.825
	c-43.052-27.682-69.487-75.986-69.487-127.906c0-78.804,59.761-143.731,135.801-150.779c-4.464-0.411-8.978-0.646-13.545-0.646
	c-82.458,0-149.543,67.929-149.543,151.425c0,51.921,26.435,100.223,69.487,127.906c-29.552,24.339-46.977,61.091-46.977,99.825
	v8.535c0,8.746,7.09,15.835,15.835,15.835h27.286C159.976,457.764,152.885,450.674,152.885,441.928z"/>
<g>
	<path style="fill:#384463;" d="M303.7,225.941c-4.374,0-7.917,3.544-7.917,7.917c0,24.16-19.358,43.817-43.151,43.817
		s-43.15-19.658-43.15-43.817c0-4.374-3.545-7.917-7.918-7.917c-4.373,0-7.917,3.544-7.917,7.917
		c0,32.892,26.461,59.652,58.986,59.652c32.526,0,58.987-26.759,58.987-59.652C311.618,229.485,308.074,225.941,303.7,225.941z"/>
	<ellipse style="fill:#384463;" cx="200.788" cy="181.353" rx="18.571" ry="18.808"/>
	<ellipse style="fill:#384463;" cx="304.473" cy="181.353" rx="18.571" ry="18.808"/>
</g>
<g>
</g>
<g>
</g>
<g>
</g>
<g>
</g>
<g>
</g>
<g>
</g>
<g>
</g>
<g>
</g>
<g>
</g>
<g>
</g>
<g>
</g>
<g>
</g>
<g>
</g>
<g>
</g>
<g>
</g>
</svg>
