<?xml version="1.0" encoding="iso-8859-1"?>
<!-- Generator: Adobe Illustrator 19.0.0, SVG Export Plug-In . SVG Version: 6.00 Build 0)  -->
<svg version="1.1" id="Layer_1" xmlns="http://www.w3.org/2000/svg" xmlns:xlink="http://www.w3.org/1999/xlink" x="0px" y="0px"
	 viewBox="0 0 512 512" style="enable-background:new 0 0 512 512;" xml:space="preserve">
<path style="fill:#E2E9E3;" d="M512,425.745c0,38.46-30.563,69.638-68.266,69.638H68.266C30.563,495.385,0,464.205,0,425.745V86.258
	c0-38.462,30.563-69.64,68.266-69.64h375.467c37.703,0,68.266,31.18,68.266,69.64L512,425.745L512,425.745z"/>
<path style="fill:#6F7A80;" d="M443.734,16.617H68.266C30.563,16.617,0,47.796,0,86.258v67.026h512V86.258
	C512,47.796,481.437,16.617,443.734,16.617z"/>
<path style="opacity:0.1;enable-background:new    ;" d="M43.655,425.745V86.258c0-38.462,30.563-69.64,68.266-69.64H68.266
	C30.563,16.617,0,47.796,0,86.258v339.487c0,38.46,30.563,69.638,68.266,69.638h43.655
	C74.218,495.385,43.655,464.205,43.655,425.745z"/>
<ellipse style="fill:#E0A089;" cx="83.163" cy="86.497" rx="17.951" ry="18.308"/>
<ellipse style="fill:#E5E545;" cx="144.771" cy="86.497" rx="17.951" ry="18.308"/>
<ellipse style="fill:#46D8BA;" cx="206.388" cy="86.497" rx="17.951" ry="18.308"/>
<g>
	<path style="opacity:0.2;fill:#FFFFFF;enable-background:new    ;" d="M443.734,16.617h-32.876c37.703,0,68.266,31.18,68.266,69.64
		v339.487c0,38.46-30.563,69.638-68.266,69.638h32.876c37.703,0,68.266-31.18,68.266-69.638V86.257
		C512,47.796,481.437,16.617,443.734,16.617z"/>
	<path style="fill:#FFFFFF;" d="M446.788,88.223c0,10.09-8.181,18.27-18.27,18.27H281.816c-10.091,0-18.271-8.181-18.271-18.27l0,0
		c0-10.091,8.181-18.271,18.271-18.271h146.701C438.607,69.951,446.788,78.132,446.788,88.223L446.788,88.223z"/>
</g>
<g>
	<path style="fill:#46D8BA;" d="M446.788,283.501c0,11.392-9.234,20.625-20.625,20.625H85.837c-11.391,0-20.625-9.234-20.625-20.625
		v-72.19c0-11.39,9.234-20.625,20.625-20.625h340.324c11.391,0,20.625,9.235,20.625,20.625v72.19H446.788z"/>
	<path style="fill:#46D8BA;" d="M240.53,427.88c0,11.391-9.234,20.626-20.625,20.626H85.837c-11.391,0-20.625-9.235-20.625-20.626
		v-72.189c0-11.391,9.234-20.625,20.625-20.625h134.068c11.391,0,20.625,9.234,20.625,20.625V427.88z"/>
	<path style="fill:#46D8BA;" d="M446.788,427.88c0,11.391-9.234,20.626-20.625,20.626H292.095c-11.391,0-20.625-9.235-20.625-20.626
		v-72.189c0-11.391,9.234-20.625,20.625-20.625h134.068c11.392,0,20.625,9.234,20.625,20.625L446.788,427.88L446.788,427.88z"/>
</g>
<path style="opacity:0.1;enable-background:new    ;" d="M97.549,427.88v-72.189c0-11.391,9.235-20.625,20.625-20.625H85.837
	c-11.391,0-20.625,9.234-20.625,20.625v72.189c0,11.391,9.234,20.626,20.625,20.626h32.336
	C106.783,448.506,97.549,439.272,97.549,427.88z"/>
<path style="opacity:0.1;enable-background:new    ;" d="M303.806,427.88v-72.189c0-11.391,9.234-20.625,20.625-20.625h-32.336
	c-11.391,0-20.625,9.234-20.625,20.625v72.189c0,11.391,9.234,20.626,20.625,20.626h32.336
	C313.04,448.506,303.806,439.272,303.806,427.88z"/>
<path style="opacity:0.1;enable-background:new    ;" d="M85.837,304.127h32.336c-11.39,0-20.625-9.234-20.625-20.625v-72.19
	c0-11.39,9.235-20.625,20.625-20.625H85.837c-11.391,0-20.625,9.235-20.625,20.625v72.19
	C65.212,294.894,74.446,304.127,85.837,304.127z"/>
<g>
</g>
<g>
</g>
<g>
</g>
<g>
</g>
<g>
</g>
<g>
</g>
<g>
</g>
<g>
</g>
<g>
</g>
<g>
</g>
<g>
</g>
<g>
</g>
<g>
</g>
<g>
</g>
<g>
</g>
</svg>
