<?xml version="1.0" encoding="iso-8859-1"?>
<!-- Generator: Adobe Illustrator 19.0.0, SVG Export Plug-In . SVG Version: 6.00 Build 0)  -->
<svg version="1.1" id="Layer_1" xmlns="http://www.w3.org/2000/svg" xmlns:xlink="http://www.w3.org/1999/xlink" x="0px" y="0px"
	 viewBox="0 0 512 512" style="enable-background:new 0 0 512 512;" xml:space="preserve">
<path style="fill:#D18624;" d="M452.174,398.658c0,33.959-26.993,61.489-60.291,61.489H60.291C26.992,460.147,0,432.618,0,398.658
	V175.762c0-33.959,26.992-61.487,60.291-61.487h331.593c33.298,0,60.291,27.528,60.291,61.487L452.174,398.658L452.174,398.658z"/>
<path style="fill:#EA9924;" d="M252.29,246.916c-7.345-6.933-16.774-10.402-26.202-10.402c-9.428,0-18.858,3.469-26.204,10.402
	L7.562,428.477c10.291,18.884,30.041,31.671,52.729,31.671h331.593c22.688,0,42.439-12.785,52.728-31.671L252.29,246.916z"/>
<path style="opacity:0.2;fill:#FFFFFF;enable-background:new    ;" d="M391.884,114.275H352.22
	c33.298,0,60.289,27.528,60.289,61.487v222.897c0,33.959-26.991,61.489-60.289,61.489h39.663c33.298,0,60.291-27.53,60.291-61.489
	V175.762C452.174,141.803,425.181,114.275,391.884,114.275z"/>
<path style="fill:#FCB63E;" d="M391.884,114.275H60.291c-20.32,0-38.279,10.261-49.199,25.97l188.792,178.23
	c7.346,6.935,16.776,10.4,26.204,10.4c9.428,0,18.857-3.465,26.202-10.4l188.794-178.23
	C430.163,124.537,412.204,114.275,391.884,114.275z"/>
<path style="opacity:0.1;enable-background:new    ;" d="M39.957,398.658V175.762c0-33.959,26.991-61.487,60.29-61.487H60.291
	C26.992,114.275,0,141.803,0,175.762v222.897c0,33.959,26.992,61.489,60.291,61.489h39.956
	C66.948,460.147,39.957,432.618,39.957,398.658z"/>
<ellipse style="fill:#DB5D45;" cx="421.209" cy="142.232" rx="90.791" ry="90.373"/>
<path style="opacity:0.1;fill:#384463;enable-background:new    ;" d="M370.282,142.227c0-43.094,30.306-79.14,70.859-88.184
	c-6.413-1.429-13.082-2.19-19.929-2.19c-50.142,0-90.789,40.463-90.789,90.373c0,49.915,40.647,90.376,90.789,90.376
	c6.848,0,13.517-0.76,19.929-2.189C400.588,221.372,370.282,185.326,370.282,142.227z"/>
<path style="fill:#FFFFFF;" d="M418.495,122.389l-5.869,1.513c-0.87,0.216-2.066,0.434-2.935,0.434
	c-3.914,0-7.283-3.245-7.283-7.139c0-3.356,2.172-6.169,5.543-7.144l10.76-3.137c3.154-0.865,5.544-1.406,7.826-1.406h0.217
	c4.565,0,8.261,3.679,8.261,8.223v61.023c0,4.543-3.696,8.223-8.261,8.223s-8.26-3.68-8.26-8.223V122.389z"/>
<g>
</g>
<g>
</g>
<g>
</g>
<g>
</g>
<g>
</g>
<g>
</g>
<g>
</g>
<g>
</g>
<g>
</g>
<g>
</g>
<g>
</g>
<g>
</g>
<g>
</g>
<g>
</g>
<g>
</g>
</svg>
