<?xml version="1.0" encoding="iso-8859-1"?>
<!-- Generator: Adobe Illustrator 19.0.0, SVG Export Plug-In . SVG Version: 6.00 Build 0)  -->
<svg version="1.1" id="Layer_1" xmlns="http://www.w3.org/2000/svg" xmlns:xlink="http://www.w3.org/1999/xlink" x="0px" y="0px"
	 viewBox="0 0 512 512" style="enable-background:new 0 0 512 512;" xml:space="preserve">
<path style="fill:#FCB63E;" d="M440.373,386.769c-32.009-30.171-73.694-47.279-117.869-48.502
	c65.596-25.927,111.913-89.056,111.913-162.831C434.417,78.547,354.536,0,256,0C157.463,0,77.583,78.547,77.583,175.436
	c0,73.774,46.316,136.904,111.913,162.831c-44.174,1.224-85.86,18.331-117.869,48.502c-33.13,31.228-52.51,73.198-54.572,118.182
	c-0.083,1.839,0.6,3.633,1.895,4.965c1.295,1.33,3.086,2.083,4.96,2.083h464.18c1.874,0,3.665-0.753,4.959-2.083
	c1.296-1.332,1.98-3.126,1.896-4.965C492.885,459.967,473.504,417.997,440.373,386.769z"/>
<path style="opacity:0.2;fill:#FFFFFF;enable-background:new    ;" d="M322.505,338.267c44.175,1.224,85.859,18.331,117.869,48.502
	c33.131,31.228,52.51,73.198,54.573,118.182c0.083,1.839-0.601,3.633-1.896,4.965c-1.294,1.33-3.086,2.083-4.959,2.083h-41.919
	c1.872,0,3.664-0.753,4.959-2.083c1.295-1.332,1.979-3.126,1.896-4.965c-2.062-44.984-21.442-86.954-54.573-118.182
	C366.446,356.598,322.505,338.267,322.505,338.267"/>
<path style="opacity:0.1;enable-background:new    ;" d="M189.495,338.267c-44.175,1.224-85.859,18.331-117.869,48.502
	c-33.131,31.228-52.51,73.198-54.573,118.182c-0.083,1.839,0.601,3.633,1.896,4.965c1.295,1.33,3.087,2.083,4.959,2.083h41.919
	c-1.874,0-3.664-0.753-4.959-2.083c-1.296-1.332-1.979-3.126-1.896-4.965c2.062-44.984,21.442-86.954,54.573-118.182
	C145.554,356.598,189.495,338.267,189.495,338.267"/>
<path style="opacity:0.1;enable-background:new    ;" d="M161.14,315.604c-32.173-31.724-52.079-75.475-52.079-123.82
	c0-96.891,79.88-175.436,178.418-175.436c23.708,0,46.329,4.558,67.022,12.817C326.273,10.742,292.417,0,256,0
	C157.463,0,77.583,78.547,77.583,175.436c0,69.789,41.456,130.027,101.462,158.284C172.642,328.117,166.664,322.053,161.14,315.604z
	"/>
<g>
	<path style="fill:#384463;" d="M309.635,198.889c-4.465,0-8.084,3.618-8.084,8.083c0,27.087-22.329,49.123-49.775,49.123
		c-27.446,0-49.775-22.036-49.775-49.123c0-4.465-3.62-8.083-8.084-8.083s-8.084,3.618-8.084,8.083
		c0,36.001,29.582,65.29,65.944,65.29c36.36,0,65.942-29.29,65.942-65.29C317.718,202.507,314.099,198.889,309.635,198.889z"/>
	<path style="fill:#384463;" d="M214.08,148.917c0-11.489-9.42-20.802-21.039-20.802s-21.04,9.313-21.04,20.802
		c0,11.486,9.421,20.802,21.04,20.802C204.66,169.719,214.08,160.402,214.08,148.917z"/>
	<path style="fill:#384463;" d="M310.511,128.114c-11.618,0-21.039,9.313-21.039,20.802c0,11.486,9.422,20.802,21.039,20.802
		c11.619,0,21.039-9.316,21.039-20.802C331.55,137.428,322.13,128.114,310.511,128.114z"/>
</g>
<g>
</g>
<g>
</g>
<g>
</g>
<g>
</g>
<g>
</g>
<g>
</g>
<g>
</g>
<g>
</g>
<g>
</g>
<g>
</g>
<g>
</g>
<g>
</g>
<g>
</g>
<g>
</g>
<g>
</g>
</svg>
