<?xml version="1.0" encoding="iso-8859-1"?>
<!-- Generator: Adobe Illustrator 19.0.0, SVG Export Plug-In . SVG Version: 6.00 Build 0)  -->
<svg version="1.1" id="Layer_1" xmlns="http://www.w3.org/2000/svg" xmlns:xlink="http://www.w3.org/1999/xlink" x="0px" y="0px"
	 viewBox="0 0 512 512" style="enable-background:new 0 0 512 512;" xml:space="preserve">
<path style="fill:#48587C;" d="M409.6,170.897h-30.036C370.652,107.826,318.733,59.422,256,59.422s-114.652,48.404-123.564,111.475
	H102.4C45.846,170.897,0,218.886,0,278.084s45.846,107.187,102.4,107.187h307.2c56.553,0,102.4-47.989,102.4-107.187
	S466.153,170.897,409.6,170.897z"/>
<path style="opacity:0.2;fill:#FFFFFF;enable-background:new    ;" d="M409.6,170.897h-30.036c-0.046-0.325-0.098-0.634-0.145-0.955
	v1.803c50.448,6.656,89.465,51.727,89.465,106.339c0,59.198-45.846,107.187-102.4,107.187H409.6
	c56.553,0,102.4-47.989,102.4-107.187S466.153,170.897,409.6,170.897z"/>
<path style="opacity:0.1;enable-background:new    ;" d="M33.855,311.879c0-59.197,45.846-107.186,102.4-107.186h30.036
	c8.912-63.07,60.832-111.475,123.564-111.475c24.971,0,48.219,7.682,67.731,20.892C334.924,81.005,297.879,59.422,256,59.422
	c-62.733,0-114.652,48.404-123.564,111.475H102.4C45.846,170.897,0,218.886,0,278.084c0,39.377,20.296,73.776,50.524,92.409
	C39.989,353.647,33.855,333.516,33.855,311.879z"/>
<path style="fill:#46D8BA;" d="M343.269,339.721l-77.123-114.878c-2.268-3.38-6.076-5.41-10.146-5.41
	c-4.077,0-7.879,2.029-10.152,5.41l-77.122,114.878c-2.513,3.747-2.757,8.579-0.632,12.563c2.119,3.984,6.267,6.473,10.785,6.473
	h37.396v81.598c0,6.75,5.473,12.222,12.223,12.222h55.004c6.75,0,12.223-5.472,12.223-12.222v-81.598h37.396
	c4.512,0,8.66-2.49,10.784-6.473C346.032,348.3,345.786,343.468,343.269,339.721z"/>
<path style="opacity:0.2;fill:#FFFFFF;enable-background:new    ;" d="M343.269,339.721l-77.123-114.878
	c-2.268-3.38-6.076-5.41-10.146-5.41c-4.077,0-7.879,2.029-10.152,5.41l-10.654,15.871l74.242,110.588
	c1.503,2.236,2.177,4.857,2.04,7.455h21.646c4.512,0,8.66-2.49,10.784-6.473C346.032,348.3,345.786,343.468,343.269,339.721z"/>
<g>
</g>
<g>
</g>
<g>
</g>
<g>
</g>
<g>
</g>
<g>
</g>
<g>
</g>
<g>
</g>
<g>
</g>
<g>
</g>
<g>
</g>
<g>
</g>
<g>
</g>
<g>
</g>
<g>
</g>
</svg>
