<?xml version="1.0" encoding="iso-8859-1"?>
<!-- Generator: Adobe Illustrator 19.0.0, SVG Export Plug-In . SVG Version: 6.00 Build 0)  -->
<svg version="1.1" id="Layer_1" xmlns="http://www.w3.org/2000/svg" xmlns:xlink="http://www.w3.org/1999/xlink" x="0px" y="0px"
	 viewBox="0 0 512 512" style="enable-background:new 0 0 512 512;" xml:space="preserve">
<path style="fill:#46D8BA;" d="M447.166,257.808h-45.951c0,12.608-1.128,24.954-3.287,36.942h49.239
	c15.321,0,27.785,12.43,27.785,27.708c0,15.28-12.464,27.71-27.785,27.71h-67.637c-6.568,13.169-14.489,25.544-23.594,36.942h91.231
	c35.808,0,64.834-28.945,64.834-64.652C512,286.753,482.974,257.808,447.166,257.808z"/>
<path style="fill:#48587C;" d="M39.174,257.808c-9.543,0-17.145,8.127-16.342,17.637c8.977,106.476,98.489,190.101,207.587,190.101
	c109.099,0,198.609-83.625,207.586-190.101c0.801-9.51-6.8-17.637-16.342-17.637H39.174L39.174,257.808z"/>
<path style="opacity:0.1;enable-background:new    ;" d="M66.783,257.808H39.174c-9.543,0-17.145,8.127-16.342,17.637
	c8.977,106.476,98.489,190.101,207.587,190.101c7.55,0,15.003-0.411,22.345-1.192C148.219,453.236,66.783,365.01,66.783,257.808z"/>
<path style="fill:#CE544C;" d="M3.826,442.201c-2.088,0-3.824,1.673-3.826,3.761c0,0.014,0,0.026,0,0.04
	c0,20.39,16.518,36.918,36.893,36.918h414.495c20.374,0,36.892-16.528,36.892-36.918c0-0.013,0-0.026,0-0.039
	c-0.002-2.088-1.739-3.762-3.826-3.762H3.826z"/>
<path style="opacity:0.1;enable-background:new    ;" d="M112.646,446.001c0-1.284,0.066-2.551,0.194-3.8H3.826
	c-2.088,0-3.824,1.673-3.826,3.761c0,0.014,0,0.026,0,0.04c0,20.39,16.518,36.918,36.893,36.918H149.54
	C129.164,482.919,112.646,466.391,112.646,446.001z"/>
<path style="fill:#384463;" d="M127.294,301.339c-4.465,0-8.084-3.62-8.084-8.084v-44.001c0-4.465,3.62-8.083,8.084-8.083
	c4.464,0,8.084,3.618,8.084,8.083v44.001C135.378,297.72,131.758,301.339,127.294,301.339z"/>
<path style="fill:#FCB63E;" d="M151.598,362.556h-48.61c-4.79,0-8.672-3.883-8.672-8.672v-53.058c0-4.79,3.883-8.672,8.672-8.672
	h48.611c4.79,0,8.672,3.883,8.672,8.672v53.057C160.271,358.673,156.388,362.556,151.598,362.556z"/>
<path style="fill:#FFFFFF;" d="M363.659,380.36c-1.876,0-3.761-0.648-5.29-1.974c-3.374-2.922-3.741-8.029-0.818-11.403
	c19.385-22.382,32.496-49.468,37.914-78.33c0.824-4.389,5.057-7.282,9.436-6.453c4.389,0.823,7.278,5.049,6.454,9.436
	c-5.948,31.672-20.326,61.387-41.584,85.931C368.174,379.413,365.922,380.36,363.659,380.36z"/>
<g>
	<path style="fill:#DCE0E0;" d="M196.689,187.691c-4.328,0-7.837-3.508-7.837-7.837c0-21.012-17.036-38.107-37.976-38.107
		s-37.976,17.095-37.976,38.107c0,4.329-3.509,7.837-7.837,7.837s-7.837-3.508-7.837-7.837c0-29.655,24.067-53.781,53.649-53.781
		s53.649,24.126,53.649,53.781C204.526,184.183,201.017,187.691,196.689,187.691z"/>
	<path style="fill:#DCE0E0;" d="M318.857,104.311c-4.329,0-7.837-3.508-7.837-7.837c0-28.518-23.126-51.72-51.55-51.72
		c-28.425,0-51.551,23.202-51.551,51.72c0,4.329-3.509,7.837-7.837,7.837c-4.328,0-7.837-3.508-7.837-7.837
		c0-37.162,30.157-67.394,67.225-67.394s67.223,30.232,67.223,67.394C326.694,100.803,323.186,104.311,318.857,104.311z"/>
	<path style="fill:#DCE0E0;" d="M335.826,217.186c-4.329,0-7.837-3.508-7.837-7.837c0-14.445-11.708-26.196-26.099-26.196
		c-14.392,0-26.1,11.751-26.1,26.196c0,4.329-3.508,7.837-7.837,7.837s-7.837-3.508-7.837-7.837
		c0-23.087,18.74-41.869,41.774-41.869c23.034,0,41.773,18.783,41.773,41.869C343.663,213.677,340.154,217.186,335.826,217.186z"/>
</g>
<g>
</g>
<g>
</g>
<g>
</g>
<g>
</g>
<g>
</g>
<g>
</g>
<g>
</g>
<g>
</g>
<g>
</g>
<g>
</g>
<g>
</g>
<g>
</g>
<g>
</g>
<g>
</g>
<g>
</g>
</svg>
