<?xml version="1.0" encoding="iso-8859-1"?>
<!-- Generator: Adobe Illustrator 19.0.0, SVG Export Plug-In . SVG Version: 6.00 Build 0)  -->
<svg version="1.1" id="Layer_1" xmlns="http://www.w3.org/2000/svg" xmlns:xlink="http://www.w3.org/1999/xlink" x="0px" y="0px"
	 viewBox="0 0 512 512" style="enable-background:new 0 0 512 512;" xml:space="preserve">
<path style="fill:#B7B7B7;" d="M256,497.953c-8.423,0-16.206-4.447-20.416-11.672l-44.961-77.119
	c-4.213-7.224-4.213-16.123,0-23.347c4.21-7.224,11.992-11.672,20.415-11.672h89.925c8.423,0,16.205,4.447,20.415,11.672
	c4.213,7.224,4.213,16.123,0,23.347l-44.961,77.119C272.207,493.506,264.424,497.953,256,497.953z"/>
<path style="fill:#DCE0E0;" d="M29.212,463.828c-9.006,0-17.678-4.161-23.281-11.533c-7.098-9.335-7.893-22.002-2.018-32.147
	L230.701,28.606c5.217-9.01,14.864-14.56,25.299-14.56s20.081,5.549,25.299,14.56l226.788,391.543
	c5.874,10.143,5.08,22.808-2.017,32.145c-5.603,7.372-14.275,11.535-23.282,11.535c-2.399,0-4.821-0.296-7.217-0.904
	l-219.664-55.818L36.435,462.922C34.039,463.532,31.613,463.828,29.212,463.828z"/>
<g style="opacity:0.2;">
	<path style="fill:#FFFFFF;" d="M508.087,420.149L281.299,28.606c-3.831-6.614-10.05-11.353-17.216-13.41v21.838L485.99,420.148
		c5.874,10.143,5.08,22.808-2.017,32.145c-3.334,4.388-7.763,7.627-12.695,9.541l4.292,1.09c2.396,0.608,4.818,0.904,7.217,0.904
		c9.007,0,17.68-4.163,23.282-11.535C513.167,442.957,513.961,430.292,508.087,420.149z"/>
</g>
<path style="fill:#B7B7B7;" d="M247.917,15.196v393.943l7.99-2.032l8.176,2.077V15.196c-2.593-0.746-5.309-1.149-8.083-1.149
	C253.226,14.047,250.51,14.45,247.917,15.196z"/>
<path style="opacity:0.1;enable-background:new    ;" d="M38.807,452.296c-7.098-9.335-7.893-22.002-2.017-32.147L247.917,55.645
	V15.196c-7.165,2.057-13.385,6.796-17.216,13.41L3.913,420.149c-5.875,10.145-5.08,22.812,2.018,32.147
	c5.604,7.372,14.275,11.533,23.281,11.533c2.4,0,18.497-3.773,18.497-3.773C44.306,458.139,41.262,455.526,38.807,452.296z"/>
<g>
</g>
<g>
</g>
<g>
</g>
<g>
</g>
<g>
</g>
<g>
</g>
<g>
</g>
<g>
</g>
<g>
</g>
<g>
</g>
<g>
</g>
<g>
</g>
<g>
</g>
<g>
</g>
<g>
</g>
</svg>
