<?xml version="1.0" encoding="iso-8859-1"?>
<!-- Generator: Adobe Illustrator 19.0.0, SVG Export Plug-In . SVG Version: 6.00 Build 0)  -->
<svg version="1.1" id="Layer_1" xmlns="http://www.w3.org/2000/svg" xmlns:xlink="http://www.w3.org/1999/xlink" x="0px" y="0px"
	 viewBox="0 0 511.999 511.999" style="enable-background:new 0 0 511.999 511.999;" xml:space="preserve">
<path style="fill:#DCE0E0;" d="M332.134,277.425c4.268,4.227,5.302,10.698,2.561,16.029l-62.765,122.02
	c-1.619,3.143-4.39,5.556-7.747,6.736L18.611,508.778c-5.07,1.788-10.724,0.527-14.529-3.244c-3.804-3.767-5.078-9.367-3.275-14.391
	l87.392-243.248c1.194-3.327,3.629-6.07,6.803-7.674l123.185-62.174c5.38-2.715,11.915-1.688,16.183,2.539L332.134,277.425z"/>
<path style="opacity:0.1;enable-background:new    ;" d="M216.534,178.883L95.003,240.222c-3.174,1.604-5.609,4.347-6.803,7.674
	L0.807,491.141c-0.829,2.308-1.001,4.734-0.583,7.051l43.885-43.47l66.275-184.467c1.194-3.327,3.629-6.07,6.804-7.674
	l121.789-61.469L216.534,178.883z"/>
<polygon style="opacity:0.1;enable-background:new    ;" points="0.225,498.197 0.224,498.192 0.224,498.192 "/>
<path style="opacity:0.2;fill:#FFFFFF;enable-background:new    ;" d="M307.661,266.473L217.522,438.66l46.661-16.449
	c3.357-1.182,6.128-3.593,7.747-6.736l62.765-122.02c0.022-0.045,0.041-0.092,0.064-0.139L307.661,266.473z"/>
<path style="fill:#B7B7B7;" d="M195.277,316.146c-10.613-10.512-27.821-10.512-38.436,0c-8.654,8.573-10.249,21.486-4.792,31.661
	L0.224,498.192c0.49,2.728,1.801,5.304,3.857,7.34c2.15,2.131,4.89,3.459,7.78,3.89l151.745-150.306
	c10.227,5.222,23.1,3.594,31.671-4.895C205.892,343.707,205.892,326.66,195.277,316.146z"/>
<path style="fill:#46D8BA;" d="M209.077,150.191c8.164-8.088,21.4-8.088,29.565,0l124.18,123.002c8.164,8.087,8.164,21.2,0,29.285
	l0,0c-8.165,8.088-21.402,8.088-29.567,0l-124.18-123.004C200.91,171.389,200.91,158.275,209.077,150.191L209.077,150.191z"/>
<path style="fill:#48587C;" d="M238.643,120.903c8.164-8.088,21.401-8.088,29.565,0l124.18,123.006
	c8.164,8.085,8.164,21.198,0,29.283l0,0c-8.164,8.087-21.402,8.087-29.565,0l-124.18-123.001
	C230.477,142.103,230.477,128.99,238.643,120.903L238.643,120.903z"/>
<path style="fill:#CE544C;" d="M504.98,126.024c8.268,8.19,9.361,21.095,2.59,30.537l-71.804,100.106
	c-4.087,5.7-10.501,9.323-17.532,9.906c-7.029,0.588-13.964-1.927-18.954-6.869L252.262,114.075
	c-4.989-4.941-7.526-11.808-6.936-18.774c0.589-6.965,4.248-13.316,10-17.367L356.389,6.808c9.533-6.706,22.559-5.625,30.829,2.567
	L504.98,126.024z"/>
<path style="opacity:0.2;fill:#FFFFFF;enable-background:new    ;" d="M504.98,126.024l-14.256-14.123
	c6.868,8.2,7.42,20.063,1.084,28.896l-71.804,100.109c-4.086,5.698-10.501,9.323-17.532,9.905
	c-7.03,0.588-13.964-1.927-18.953-6.869l15.761,15.763c4.989,4.942,11.924,7.457,18.954,6.869
	c7.032-0.584,13.446-4.206,17.532-9.906l71.804-100.106C514.341,147.119,513.248,134.214,504.98,126.024z"/>
<path style="opacity:0.1;enable-background:new    ;" d="M231.172,201.308c-8.164-8.085-8.164-21.2,0.002-29.283
	c8.164-8.09,21.4-8.09,29.565,0c-8.165-8.09-8.165-21.2,0-29.29c3.986-3.947,9.183-5.955,14.407-6.047l-0.788-0.779
	c-4.989-4.941-7.526-11.808-6.937-18.776c0.59-6.963,4.249-13.316,10-17.365l101.064-71.126c9.288-6.535,21.879-5.657,30.169,1.968
	L387.218,9.374c-8.269-8.192-21.296-9.273-30.829-2.567L255.325,77.933c-5.752,4.051-9.41,10.402-10,17.367
	c-0.591,6.965,1.946,13.832,6.936,18.774l0.789,0.782c-5.226,0.092-10.422,2.098-14.408,6.047c-8.166,8.088-8.166,21.2,0,29.287
	c-8.166-8.088-21.402-8.088-29.565,0c-8.167,8.083-8.167,21.198-0.002,29.283L231.172,201.308z"/>
<g>
</g>
<g>
</g>
<g>
</g>
<g>
</g>
<g>
</g>
<g>
</g>
<g>
</g>
<g>
</g>
<g>
</g>
<g>
</g>
<g>
</g>
<g>
</g>
<g>
</g>
<g>
</g>
<g>
</g>
</svg>
