<?xml version="1.0" encoding="iso-8859-1"?>
<!-- Generator: Adobe Illustrator 19.0.0, SVG Export Plug-In . SVG Version: 6.00 Build 0)  -->
<svg version="1.1" id="Layer_1" xmlns="http://www.w3.org/2000/svg" xmlns:xlink="http://www.w3.org/1999/xlink" x="0px" y="0px"
	 viewBox="0 0 512.001 512.001" style="enable-background:new 0 0 512.001 512.001;" xml:space="preserve">
<path style="fill:#E0A089;" d="M464.572,157.421l31.503-31.963c16.29-16.529,16.29-43.327,0-59.855l-52.437-53.205
	c-16.291-16.53-42.702-16.53-58.993,0l-31.811,32.278L464.572,157.421z"/>
<path style="fill:#D4554B;" d="M424.237,207.242L304.068,85.312l-251.26,254.94c0,0-6.743,6.29-7.574,9.345L4.026,500.962
	c-0.831,3.054-0.002,6.298,2.177,8.508c2.18,2.21,5.375,3.051,8.386,2.21l149.177-41.813c3.011-0.843,9.21-7.685,9.21-7.685
	L424.237,207.242z"/>
<g>
	<path style="fill:#FFFFFF;" d="M83.028,387.53c-2.055,0-4.114-0.776-5.693-2.332c-3.191-3.146-3.228-8.282-0.084-11.472
		l242.711-246.267c3.144-3.193,8.28-3.229,11.472-0.085c3.191,3.145,3.228,8.282,0.084,11.472L88.807,385.113
		C87.219,386.723,85.124,387.53,83.028,387.53z"/>
	<path style="fill:#FFFFFF;" d="M134.375,439.628c-2.056,0-4.114-0.777-5.694-2.334c-3.191-3.144-3.228-8.281-0.084-11.471
		l242.712-246.268c3.144-3.191,8.279-3.227,11.471-0.083c3.191,3.144,3.229,8.28,0.084,11.472L140.152,437.211
		C138.564,438.822,136.471,439.628,134.375,439.628z"/>
</g>
<path style="fill:#48587C;" d="M437.336,207.229c-9.002,9.132-23.596,9.132-32.597,0L304.08,105.094
	c-9.001-9.132-9.002-23.941-0.001-33.073l0,0c9.001-9.133,23.595-9.131,32.596,0.002l100.66,102.136
	C446.335,183.289,446.336,198.096,437.336,207.229L437.336,207.229z"/>
<path style="fill:#FFE5C5;" d="M171.161,448.504c-10.075-10.223-23.054-15.692-36.241-16.433
	c-0.728-13.382-6.121-26.55-16.196-36.773c-10.076-10.221-23.053-15.694-36.241-16.434c-0.729-13.381-6.121-26.548-16.197-36.769
	c-2.616-2.657-5.435-4.985-8.396-7.001l-5.083,5.158c0,0-6.743,6.29-7.574,9.345L4.026,500.962
	c-0.831,3.054-0.002,6.298,2.177,8.508c2.18,2.21,5.375,3.051,8.386,2.21l149.177-41.813c3.011-0.843,9.21-7.685,9.21-7.685
	l5.083-5.158C176.072,454.019,173.779,451.16,171.161,448.504z"/>
<path style="fill:#48587C;" d="M18.626,447.33l-14.6,53.631c-0.831,3.054-0.002,6.298,2.177,8.508c2.18,2.21,5.375,3.053,8.388,2.21
	l52.852-14.815L18.626,447.33z"/>
<g style="opacity:0.2;">
	<path style="fill:#FFFFFF;" d="M496.167,65.702c2.583,13.366-1.227,27.754-11.433,38.111l-33.67,34.162l16.337,16.576
		l28.673-29.093C512.333,108.961,512.362,82.238,496.167,65.702z"/>
</g>
<path style="fill:#789DB0;" d="M468.842,175.236c-9.001,9.132-23.594,9.132-32.596,0L335.585,73.101
	c-9.001-9.132-9.001-23.941-0.001-33.073l0,0c9.002-9.13,23.596-9.13,32.597,0.002l100.66,102.133
	C477.842,151.296,477.842,166.103,468.842,175.236L468.842,175.236z"/>
<path style="opacity:0.1;enable-background:new    ;" d="M69.59,373.954c0.832-3.055,7.576-9.343,7.576-9.343l241.345-244.93
	c-0.994-7.041,0.126-13.503,9.925-23.302c7.64-7.64,17.099-9.02,25.932-3.746c-5.207-8.965-1.297-21.657,6.291-29.356
	c7.111-7.213,17.703-8.309,26.28-4.123l22.063-22.397c15.21-15.432,39.237-16.452,55.618-3.068l-20.982-21.289
	c-16.291-16.53-42.702-16.53-58.993,0L361.869,35.51c-8.578-4.186-19.172-2.695-26.282,4.518
	c-7.587,7.699-8.751,19.422-3.545,28.387c-8.834-5.274-20.378-4.09-27.961,3.606c-5.337,5.417-7.484,12.824-6.49,19.867
	L52.808,340.252c0,0-6.743,6.29-7.574,9.345L4.026,500.962c-0.831,3.054-0.002,6.298,2.177,8.508c2.18,2.21,5.375,3.051,8.386,2.21
	l18.953-5.311L69.59,373.954z"/>
<g>
</g>
<g>
</g>
<g>
</g>
<g>
</g>
<g>
</g>
<g>
</g>
<g>
</g>
<g>
</g>
<g>
</g>
<g>
</g>
<g>
</g>
<g>
</g>
<g>
</g>
<g>
</g>
<g>
</g>
</svg>
