<?xml version="1.0" encoding="iso-8859-1"?>
<!-- Generator: Adobe Illustrator 19.0.0, SVG Export Plug-In . SVG Version: 6.00 Build 0)  -->
<svg version="1.1" id="Layer_1" xmlns="http://www.w3.org/2000/svg" xmlns:xlink="http://www.w3.org/1999/xlink" x="0px" y="0px"
	 viewBox="0 0 512 512" style="enable-background:new 0 0 512 512;" xml:space="preserve">
<g>
	<path style="fill:#48587C;" d="M39.315,499.125c-8.993,9.143-23.577,9.141-32.571,0l0,0c-8.991-9.143-8.993-23.966,0-33.107
		l38.317-38.949c8.994-9.144,23.575-9.142,32.568,0l0,0c8.993,9.141,8.994,23.963,0,33.105L39.315,499.125z"/>
	<path style="fill:#48587C;" d="M353.358,374.389c-2.473-2.514-4.335-5.712-5.272-9.403c-2.79-11.002,3.724-22.219,14.547-25.053
		c21.495-5.631,45.492-20.722,65.839-41.403c42.643-43.348,50.261-88.836,36.949-102.369l-52.346-53.21
		c-7.905-8.033-7.905-21.059,0-29.092c7.903-8.034,20.717-8.034,28.622,0l52.345,53.208c17.768,18.062,22.548,45.815,13.459,78.149
		c-7.908,28.137-25.81,57.402-50.409,82.407c-25.686,26.108-55.645,44.63-84.357,52.151
		C365.54,381.658,358.255,379.366,353.358,374.389z"/>
</g>
<path style="opacity:0.2;fill:#FFFFFF;enable-background:new    ;" d="M497.889,171.396c1.809,6.424,2.74,13.351,2.785,20.688
	c1.908,12.814,0.745,27.23-3.604,42.702c-7.908,28.137-25.81,57.401-50.409,82.407c-25.686,26.108-55.645,44.63-84.357,52.151
	c-4.523,1.185-9.079,0.717-13.058-1.029c1.019,2.302,2.417,4.352,4.112,6.074c4.898,4.978,12.182,7.269,19.378,5.385
	c28.712-7.521,58.67-26.043,84.357-52.151c24.599-25.005,42.501-54.271,50.409-82.407
	C515.892,215.361,512.452,189.418,497.889,171.396z"/>
<path style="fill:#CE544C;" d="M366.129,29.002C317.591,53.208,260.834,95.443,206.68,150.491
	C95.527,263.479,2.69,422.944,42.189,463.096c39.499,40.153,196.374-54.22,307.528-167.208
	c54.153-55.047,95.703-112.739,119.518-162.079L366.129,29.002z"/>
<path style="fill:#00D6C1;" d="M366.129,29.002l103.106,104.806C494.3,81.877,499.716,39.197,479.46,18.607
	C459.206-1.982,417.219,3.524,366.129,29.002z"/>
<path style="opacity:0.2;fill:#FFFFFF;enable-background:new    ;" d="M479.46,18.606c-8.378-8.517-20.484-12.557-35.404-12.575
	c0.618,0.549,1.223,1.113,1.806,1.706c18.136,18.437,15.678,54.592-3.027,99.235l26.4,26.836
	C494.3,81.876,499.716,39.197,479.46,18.606z"/>
<path style="fill:#00D6C1;" d="M74.024,323.229c-36.502,63.696-52.79,118.568-31.835,139.867
	c20.951,21.3,74.933,4.741,137.595-32.365L74.024,323.229z"/>
<path style="opacity:0.1;enable-background:new    ;" d="M251.901,161.414c45.985-46.742,93.841-84.24,136.953-109.312l-22.725-23.1
	C317.591,53.208,260.834,95.443,206.68,150.491C95.527,263.479,2.69,422.944,42.189,463.096c8.9,9.049,23.78,11.246,42.736,7.957
	C52.197,426.566,143.294,271.814,251.901,161.414z"/>
<g>
	<path style="fill:#48587C;" d="M265.964,280.825l-44.556-45.292l-31.537,32.057c-12.329,12.533-12.329,32.852,0,45.385
		c12.33,12.532,32.318,12.532,44.647,0l31.541-32.062C266.028,280.881,265.994,280.856,265.964,280.825z"/>
	<path style="fill:#48587C;" d="M368.466,131.433c-12.33-12.534-32.322-12.534-44.648,0l-91.072,92.577
		c0.031,0.03,0.066,0.059,0.098,0.09l44.554,45.29l91.069-92.572C380.795,164.285,380.795,143.966,368.466,131.433z"/>
</g>
<path style="opacity:0.1;enable-background:new    ;" d="M237.556,251.998l-16.173-16.439l-31.512,32.031
	c-12.329,12.532-12.329,32.852,0,45.385c2.914,2.962,6.262,5.207,9.83,6.767c-5.215-11.804-3.062-26.153,6.475-35.846
	L237.556,251.998z"/>
<path style="opacity:0.1;enable-background:new    ;" d="M368.466,131.433c-12.33-12.534-32.322-12.534-44.648,0l-91.092,92.597
	l16.173,16.438l91.225-92.731c9.41-9.567,23.281-11.823,34.807-6.783C373.401,137.503,371.254,134.267,368.466,131.433z"/>
<g>
</g>
<g>
</g>
<g>
</g>
<g>
</g>
<g>
</g>
<g>
</g>
<g>
</g>
<g>
</g>
<g>
</g>
<g>
</g>
<g>
</g>
<g>
</g>
<g>
</g>
<g>
</g>
<g>
</g>
</svg>
