<?xml version="1.0" encoding="iso-8859-1"?>
<!-- Generator: Adobe Illustrator 19.0.0, SVG Export Plug-In . SVG Version: 6.00 Build 0)  -->
<svg version="1.1" id="Layer_1" xmlns="http://www.w3.org/2000/svg" xmlns:xlink="http://www.w3.org/1999/xlink" x="0px" y="0px"
	 viewBox="0 0 512 512" style="enable-background:new 0 0 512 512;" xml:space="preserve">
<path style="fill:#48587C;" d="M426.958,367.781c0,13.943-11.221,25.246-25.064,25.246H76.057
	c-13.844,0-25.064-11.303-25.064-25.246V123.725c0-13.944,11.22-25.249,25.064-25.249h325.837c13.843,0,25.064,11.305,25.064,25.249
	V367.781z"/>
<path style="fill:#FFFFFF;" d="M390.528,307.708V30.323C390.528,13.574,377.01,0,360.334,0h-240.8
	C102.859,0,89.34,13.574,89.34,30.323v277.386h301.189V307.708z"/>
<path style="fill:#E2E9E3;" d="M390.528,307.708V30.323C390.528,13.574,377.01,0,360.334,0h-240.8
	C102.859,0,89.34,13.574,89.34,30.323v277.386h301.189V307.708z"/>
<path style="opacity:0.1;enable-background:new    ;" d="M116.802,48.569c0-16.744,13.519-30.321,30.193-30.321h240.8
	c0.08,0,0.16,0.004,0.24,0.004C383.39,7.512,372.738,0,360.334,0h-240.8C102.859,0,89.34,13.574,89.34,30.323v277.386h27.462V48.569
	z"/>
<g>
	<path style="fill:#B3B3B3;" d="M310.012,176.084H169.855c-4.267,0-7.725,3.476-7.725,7.758c0,4.286,3.458,7.757,7.725,7.757
		h140.157c4.268,0,7.725-3.471,7.725-7.757C317.737,179.56,314.28,176.084,310.012,176.084z"/>
	<path style="fill:#B3B3B3;" d="M310.012,141.501H169.855c-4.267,0-7.725,3.474-7.725,7.757c0,4.285,3.458,7.756,7.725,7.756
		h140.157c4.268,0,7.725-3.471,7.725-7.756C317.737,144.975,314.28,141.501,310.012,141.501z"/>
	<path style="fill:#B3B3B3;" d="M169.855,122.431h140.157c4.268,0,7.725-3.471,7.725-7.757c0-4.285-3.457-7.759-7.725-7.759H169.855
		c-4.267,0-7.725,3.474-7.725,7.759C162.131,118.96,165.588,122.431,169.855,122.431z"/>
	<path style="fill:#B3B3B3;" d="M169.855,87.405h70.078c4.267,0,7.726-3.472,7.726-7.758c0-4.284-3.459-7.755-7.726-7.755h-70.078
		c-4.267,0-7.725,3.471-7.725,7.755C162.131,83.932,165.588,87.405,169.855,87.405z"/>
</g>
<g>
	<path style="fill:#FCB63E;" d="M492.977,251.909c0,14.065-11.402,25.467-25.467,25.467l0,0c-14.067,0-25.469-11.402-25.469-25.467
		v-29.487c0-14.065,11.402-25.466,25.469-25.466l0,0c14.065,0,25.467,11.401,25.467,25.466V251.909z"/>
	<path style="fill:#FCB63E;" d="M106.942,175.095v6.636c0,42.139,33.991,76.299,75.921,76.299h112.225
		c41.93,0,75.919-34.161,75.919-76.299v-6.636c0-2.613-0.133-5.195-0.388-7.74H107.33
		C107.074,169.9,106.942,172.481,106.942,175.095z"/>
</g>
<g>
	<path style="fill:#48587C;" d="M298.723,167.355v81.46c4.106-0.539,8.102-1.428,11.951-2.663v-78.797H298.723z"/>
	<path style="fill:#48587C;" d="M167.281,167.355v78.797c3.844,1.235,7.84,2.124,11.947,2.663v-81.46H167.281z"/>
	<path style="fill:#48587C;" d="M145.374,167.355v66.996c3.691,2.961,7.69,5.546,11.947,7.703v-74.699H145.374z"/>
	<path style="fill:#48587C;" d="M119.832,167.355c-0.232,2.304-0.351,4.639-0.351,7.005v6.006c0,16.818,5.99,32.227,15.935,44.207
		v-57.218H119.832z"/>
	<path style="fill:#48587C;" d="M358.469,174.36c0-2.366-0.119-4.701-0.351-7.005h-15.58v57.218
		c9.944-11.98,15.932-27.389,15.932-44.207V174.36z"/>
	<path style="fill:#48587C;" d="M320.63,167.355v74.699c4.255-2.157,8.256-4.742,11.949-7.703v-66.996H320.63z"/>
	<rect x="211.09" y="167.351" style="fill:#48587C;" width="11.952" height="82.066"/>
	<rect x="254.913" y="167.351" style="fill:#48587C;" width="11.949" height="82.066"/>
	<rect x="189.189" y="167.351" style="fill:#48587C;" width="11.949" height="82.066"/>
	<rect x="276.814" y="167.351" style="fill:#48587C;" width="11.949" height="82.066"/>
	<rect x="233.002" y="167.351" style="fill:#48587C;" width="11.948" height="82.066"/>
</g>
<path style="fill:#46D8BA;" d="M429.602,167.355h-79.519c0.018,7.155,0.026,12.101,0.026,12.101
	c0,35.468-28.61,64.223-63.903,64.223h-94.462c-35.294,0-63.905-28.754-63.905-64.223c0,0,0.015-5.246,0.042-12.101H48.348
	c-16.198,0-29.325,13.224-29.325,29.541v285.561c0,16.316,13.128,29.542,29.325,29.542h381.253
	c16.197,0,29.327-13.226,29.327-29.541V196.896C458.93,180.579,445.799,167.355,429.602,167.355z"/>
<path style="fill:#48587C;" d="M422.467,454.311c0,10.409-8.396,18.847-18.753,18.847H74.236c-10.356,0-18.749-8.438-18.749-18.847
	V305.346c0-10.407,8.393-18.845,18.749-18.845h329.477c10.357,0,18.753,8.438,18.753,18.845v148.965H422.467z"/>
<path style="opacity:0.1;enable-background:new    ;" d="M96.793,450.784c-10.357,0-18.751-8.438-18.751-18.846V286.501h-3.807
	c-10.356,0-18.749,8.438-18.749,18.845v148.966c0,10.409,8.393,18.847,18.749,18.847h329.477c10.357,0,18.753-8.438,18.753-18.847
	v-3.528H96.793z"/>
<g>
	<path style="fill:#FFFFFF;" d="M104.688,330.499v-18.616c0-2.572-2.074-4.653-4.631-4.653H81.535c-2.559,0-4.631,2.081-4.631,4.653
		v18.616c0,2.57,2.071,4.654,4.631,4.654h18.523C102.614,335.153,104.688,333.07,104.688,330.499z"/>
	<path style="fill:#FFFFFF;" d="M118.578,335.153h18.525c2.557,0,4.629-2.083,4.629-4.654v-18.616c0-2.572-2.071-4.653-4.629-4.653
		h-18.525c-2.556,0-4.63,2.081-4.63,4.653v18.616C113.949,333.07,116.022,335.153,118.578,335.153z"/>
	<path style="fill:#FFFFFF;" d="M155.626,335.153h18.521c2.559,0,4.633-2.083,4.633-4.654v-18.616c0-2.572-2.073-4.653-4.633-4.653
		h-18.521c-2.558,0-4.633,2.081-4.633,4.653v18.616C150.993,333.07,153.067,335.153,155.626,335.153z"/>
	<path style="fill:#FFFFFF;" d="M192.669,335.153h18.525c2.557,0,4.629-2.083,4.629-4.654v-18.616c0-2.572-2.071-4.653-4.629-4.653
		h-18.525c-2.557,0-4.629,2.081-4.629,4.653v18.616C188.04,333.07,190.111,335.153,192.669,335.153z"/>
	<path style="fill:#FFFFFF;" d="M229.713,335.153h18.523c2.559,0,4.631-2.083,4.631-4.654v-18.616c0-2.572-2.071-4.653-4.631-4.653
		h-18.523c-2.556,0-4.63,2.081-4.63,4.653v18.616C225.084,333.07,227.157,335.153,229.713,335.153z"/>
	<path style="fill:#FFFFFF;" d="M266.759,335.153h18.523c2.557,0,4.631-2.083,4.631-4.654v-18.616c0-2.572-2.073-4.653-4.631-4.653
		h-18.523c-2.557,0-4.631,2.081-4.631,4.653v18.616C262.128,333.07,264.202,335.153,266.759,335.153z"/>
	<path style="fill:#FFFFFF;" d="M303.804,335.153h18.523c2.557,0,4.632-2.083,4.632-4.654v-18.616c0-2.572-2.074-4.653-4.632-4.653
		h-18.523c-2.557,0-4.631,2.081-4.631,4.653v18.616C299.173,333.07,301.247,335.153,303.804,335.153z"/>
	<path style="fill:#FFFFFF;" d="M340.849,335.153h18.521c2.559,0,4.633-2.083,4.633-4.654v-18.616c0-2.572-2.073-4.653-4.633-4.653
		h-18.521c-2.558,0-4.631,2.081-4.631,4.653v18.616C336.219,333.07,338.291,335.153,340.849,335.153z"/>
	<path style="fill:#FFFFFF;" d="M396.417,307.23h-18.522c-2.557,0-4.631,2.081-4.631,4.653v18.616c0,2.57,2.073,4.654,4.631,4.654
		h18.522c2.557,0,4.629-2.083,4.629-4.654v-18.616C401.045,309.313,398.973,307.23,396.417,307.23z"/>
	<path style="fill:#FFFFFF;" d="M123.211,369.591v-18.615c0-2.57-2.073-4.653-4.633-4.653h-18.52c-2.559,0-4.631,2.083-4.631,4.653
		v18.615c0,2.572,2.071,4.654,4.631,4.654h18.521C121.138,374.245,123.211,372.162,123.211,369.591z"/>
	<path style="fill:#FFFFFF;" d="M137.103,346.322c-2.559,0-4.631,2.082-4.631,4.653v18.615c0,2.572,2.071,4.654,4.631,4.654h18.523
		c2.558,0,4.63-2.082,4.63-4.654v-18.615c0-2.57-2.071-4.653-4.63-4.653H137.103z"/>
	<path style="fill:#FFFFFF;" d="M174.146,346.322c-2.556,0-4.63,2.082-4.63,4.653v18.615c0,2.572,2.073,4.654,4.63,4.654h18.523
		c2.559,0,4.631-2.082,4.631-4.654v-18.615c0-2.57-2.071-4.653-4.631-4.653H174.146z"/>
	<path style="fill:#FFFFFF;" d="M211.194,346.322c-2.559,0-4.633,2.082-4.633,4.653v18.615c0,2.572,2.073,4.654,4.633,4.654h18.52
		c2.559,0,4.631-2.082,4.631-4.654v-18.615c0-2.57-2.071-4.653-4.631-4.653H211.194z"/>
	<path style="fill:#FFFFFF;" d="M248.236,346.322c-2.557,0-4.631,2.082-4.631,4.653v18.615c0,2.572,2.073,4.654,4.631,4.654h18.523
		c2.557,0,4.631-2.082,4.631-4.654v-18.615c0-2.57-2.073-4.653-4.631-4.653H248.236z"/>
	<path style="fill:#FFFFFF;" d="M285.281,346.322c-2.557,0-4.631,2.082-4.631,4.653v18.615c0,2.572,2.073,4.654,4.631,4.654h18.523
		c2.557,0,4.631-2.082,4.631-4.654v-18.615c0-2.57-2.073-4.653-4.631-4.653H285.281z"/>
	<path style="fill:#FFFFFF;" d="M322.327,346.322c-2.559,0-4.631,2.082-4.631,4.653v18.615c0,2.572,2.071,4.654,4.631,4.654h18.523
		c2.557,0,4.631-2.082,4.631-4.654v-18.615c0-2.57-2.073-4.653-4.631-4.653H322.327z"/>
	<path style="fill:#FFFFFF;" d="M377.895,346.322H359.37c-2.557,0-4.629,2.082-4.629,4.653v18.615c0,2.572,2.072,4.654,4.629,4.654
		h18.525c2.556,0,4.629-2.082,4.629-4.654v-18.615C382.524,348.406,380.45,346.322,377.895,346.322z"/>
	<path style="fill:#FFFFFF;" d="M137.103,385.414h-18.525c-2.556,0-4.63,2.084-4.63,4.653v18.616c0,2.569,2.073,4.654,4.63,4.654
		h18.525c2.557,0,4.629-2.085,4.629-4.654v-18.616C141.732,387.498,139.66,385.414,137.103,385.414z"/>
	<path style="fill:#FFFFFF;" d="M174.146,385.414h-18.521c-2.558,0-4.633,2.084-4.633,4.653v18.616c0,2.569,2.074,4.654,4.633,4.654
		h18.521c2.559,0,4.633-2.085,4.633-4.654v-18.616C178.779,387.498,176.705,385.414,174.146,385.414z"/>
	<path style="fill:#FFFFFF;" d="M211.194,385.414h-18.525c-2.557,0-4.629,2.084-4.629,4.653v18.616c0,2.569,2.071,4.654,4.629,4.654
		h18.525c2.557,0,4.629-2.085,4.629-4.654v-18.616C215.823,387.498,213.751,385.414,211.194,385.414z"/>
	<path style="fill:#FFFFFF;" d="M248.236,385.414h-18.523c-2.556,0-4.63,2.084-4.63,4.653v18.616c0,2.569,2.073,4.654,4.63,4.654
		h18.523c2.559,0,4.631-2.085,4.631-4.654v-18.616C252.867,387.498,250.796,385.414,248.236,385.414z"/>
	<path style="fill:#FFFFFF;" d="M285.281,385.414h-18.523c-2.557,0-4.631,2.084-4.631,4.653v18.616c0,2.569,2.073,4.654,4.631,4.654
		h18.523c2.557,0,4.631-2.085,4.631-4.654v-18.616C289.912,387.498,287.839,385.414,285.281,385.414z"/>
	<path style="fill:#FFFFFF;" d="M322.327,385.414h-18.523c-2.557,0-4.631,2.084-4.631,4.653v18.616c0,2.569,2.073,4.654,4.631,4.654
		h18.523c2.557,0,4.632-2.085,4.632-4.654v-18.616C326.958,387.498,324.884,385.414,322.327,385.414z"/>
	<path style="fill:#FFFFFF;" d="M359.37,385.414h-18.521c-2.558,0-4.631,2.084-4.631,4.653v18.616c0,2.569,2.072,4.654,4.631,4.654
		h18.521c2.559,0,4.633-2.085,4.633-4.654v-18.616C364.002,387.498,361.929,385.414,359.37,385.414z"/>
	<path style="fill:#FFFFFF;" d="M331.589,447.776c0,2.569-2.074,4.654-4.631,4.654H150.993c-2.557,0-4.629-2.085-4.629-4.654
		v-18.615c0-2.574,2.071-4.654,4.629-4.654h175.965c2.556,0,4.631,2.08,4.631,4.654V447.776z"/>
</g>
<path style="opacity:0.1;enable-background:new    ;" d="M44.931,482.459V196.896c0-16.317,13.128-29.541,29.326-29.541H48.348
	c-16.198,0-29.325,13.224-29.325,29.541v285.561c0,16.316,13.128,29.542,29.325,29.542h25.908
	C58.059,512,44.931,498.774,44.931,482.459z"/>
<path style="opacity:0.2;fill:#FFFFFF;enable-background:new    ;" d="M429.602,167.355h-22.548
	c16.197,0,29.327,13.224,29.327,29.541v285.561c0,16.315-13.13,29.541-29.327,29.541h22.548c16.197,0,29.327-13.226,29.327-29.541
	V196.896C458.93,180.579,445.799,167.355,429.602,167.355z"/>
<g>
</g>
<g>
</g>
<g>
</g>
<g>
</g>
<g>
</g>
<g>
</g>
<g>
</g>
<g>
</g>
<g>
</g>
<g>
</g>
<g>
</g>
<g>
</g>
<g>
</g>
<g>
</g>
<g>
</g>
</svg>
