<?xml version="1.0" encoding="iso-8859-1"?>
<!-- Generator: Adobe Illustrator 19.0.0, SVG Export Plug-In . SVG Version: 6.00 Build 0)  -->
<svg version="1.1" id="Layer_1" xmlns="http://www.w3.org/2000/svg" xmlns:xlink="http://www.w3.org/1999/xlink" x="0px" y="0px"
	 viewBox="0 0 512.001 512.001" style="enable-background:new 0 0 512.001 512.001;" xml:space="preserve">
<path style="fill:#46D8BA;" d="M473.354,184.059h-35.256v82.808h35.256c9.877,0,17.883-7.973,17.883-17.807v-47.193
	C491.237,192.031,483.231,184.059,473.354,184.059z"/>
<path style="opacity:0.2;fill:#FFFFFF;enable-background:new    ;" d="M473.354,184.059h-18.393c9.876,0,17.882,7.973,17.882,17.808
	v47.193c0,9.835-8.006,17.807-17.882,17.807h18.393c9.877,0,17.883-7.973,17.883-17.807v-47.193
	C491.237,192.031,483.231,184.059,473.354,184.059z"/>
<path style="fill:#FCB63E;" d="M473.354,117.133h-35.256v82.808h35.256c9.877,0,17.883-7.973,17.883-17.807v-47.193
	C491.237,125.105,483.231,117.133,473.354,117.133z"/>
<path style="opacity:0.2;fill:#FFFFFF;enable-background:new    ;" d="M473.354,117.133H456.93c9.876,0,17.882,7.973,17.882,17.808
	v47.193c0,9.835-8.006,17.807-17.882,17.807h16.424c9.877,0,17.883-7.973,17.883-17.807v-47.193
	C491.237,125.105,483.231,117.133,473.354,117.133z"/>
<path style="fill:#CE544C;" d="M473.354,49.546h-35.256v82.807h35.256c9.877,0,17.883-7.972,17.883-17.807V67.353
	C491.237,57.518,483.231,49.546,473.354,49.546z"/>
<path style="opacity:0.2;fill:#FFFFFF;enable-background:new    ;" d="M473.354,49.546h-15.346c9.876,0,17.882,7.973,17.882,17.807
	v47.193c0,9.836-8.006,17.807-17.882,17.807h15.346c9.877,0,17.883-7.972,17.883-17.807V67.353
	C491.237,57.518,483.231,49.546,473.354,49.546z"/>
<path style="fill:#DFA95E;" d="M452.435,463.697c0,26.676-21.716,48.302-48.503,48.302H98.368
	c-26.788,0-48.503-21.625-48.503-48.302V48.302C49.865,21.625,71.58,0,98.368,0h305.565c26.787,0,48.503,21.625,48.503,48.302
	v415.395H452.435z"/>
<path style="opacity:0.2;fill:#FFFFFF;enable-background:new    ;" d="M403.932,0h-45.013c26.787,0,48.502,21.625,48.502,48.302
	v415.396c0,26.676-21.715,48.302-48.502,48.302h45.013c26.787,0,48.503-21.625,48.503-48.302V48.302
	C452.435,21.625,430.719,0,403.932,0z"/>
<path style="opacity:0.1;enable-background:new    ;" d="M98.368,512h45.013c-26.787,0-48.502-21.625-48.502-48.302V48.302
	C94.879,21.625,116.594,0,143.381,0H98.368C71.581,0,49.865,21.625,49.865,48.302v415.396C49.865,490.375,71.581,512,98.368,512z"/>
<g>
	<path style="fill:#F9F9F9;" d="M350.29,299.472H152.009c-12.883,0-23.327,10.4-23.327,23.229v75.501
		c0,12.83,10.445,23.23,23.327,23.23h198.282c12.884,0,23.328-10.4,23.328-23.23v-75.501
		C373.619,309.873,363.174,299.472,350.29,299.472z"/>
	<path style="fill:#F9F9F9;" d="M145.657,256h210.985c9.377,0,16.976-7.568,16.976-16.905c0-9.338-7.601-16.906-16.976-16.906
		H145.657c-9.377,0-16.976,7.568-16.976,16.906C128.681,248.432,136.281,256,145.657,256z"/>
</g>
<path style="opacity:0.1;enable-background:new    ;" d="M161.219,398.203v-75.501c0-12.829,10.444-23.229,23.327-23.229h-32.538
	c-12.883,0-23.327,10.4-23.327,23.229v75.501c0,12.83,10.445,23.23,23.327,23.23h32.538
	C171.663,421.433,161.219,411.034,161.219,398.203z"/>
<path style="opacity:0.1;enable-background:new    ;" d="M162.507,239.095c0-9.338,7.6-16.906,16.975-16.906h-33.825
	c-9.377,0-16.976,7.568-16.976,16.906c0,9.337,7.6,16.905,16.976,16.905h33.825C170.108,256,162.507,248.432,162.507,239.095z"/>
<g>
	<path style="fill:#BA805C;" d="M35.314,68.227h32.74c8.036,0,14.551-6.489,14.551-14.491S76.09,39.245,68.054,39.245h-32.74
		c-8.035,0-14.55,6.489-14.55,14.491S27.278,68.227,35.314,68.227z"/>
	<path style="fill:#BA805C;" d="M68.054,96h-32.74c-8.035,0-14.55,6.489-14.55,14.491s6.514,14.491,14.55,14.491h32.74
		c8.036,0,14.551-6.489,14.551-14.491S76.09,96,68.054,96z"/>
	<path style="fill:#BA805C;" d="M68.054,152.755h-32.74c-8.035,0-14.55,6.488-14.55,14.49c0,8.002,6.514,14.491,14.55,14.491h32.74
		c8.036,0,14.551-6.489,14.551-14.491S76.09,152.755,68.054,152.755z"/>
	<path style="fill:#BA805C;" d="M68.054,209.509h-32.74c-8.035,0-14.55,6.489-14.55,14.491s6.514,14.491,14.55,14.491h32.74
		c8.036,0,14.551-6.489,14.551-14.491S76.09,209.509,68.054,209.509z"/>
	<path style="fill:#BA805C;" d="M68.054,266.264h-32.74c-8.035,0-14.55,6.489-14.55,14.491c0,8.002,6.514,14.49,14.55,14.49h32.74
		c8.036,0,14.551-6.488,14.551-14.49C82.605,272.753,76.09,266.264,68.054,266.264z"/>
	<path style="fill:#BA805C;" d="M68.054,323.019h-32.74c-8.035,0-14.55,6.489-14.55,14.491c0,8.002,6.514,14.491,14.55,14.491h32.74
		c8.036,0,14.551-6.489,14.551-14.491C82.605,329.508,76.09,323.019,68.054,323.019z"/>
	<path style="fill:#BA805C;" d="M68.054,379.773h-32.74c-8.035,0-14.55,6.489-14.55,14.491c0,8.002,6.514,14.491,14.55,14.491h32.74
		c8.036,0,14.551-6.489,14.551-14.491C82.605,386.262,76.09,379.773,68.054,379.773z"/>
	<path style="fill:#BA805C;" d="M68.054,436.529h-32.74c-8.035,0-14.55,6.488-14.55,14.49c0,8.002,6.514,14.491,14.55,14.491h32.74
		c8.036,0,14.551-6.489,14.551-14.491C82.605,443.017,76.09,436.529,68.054,436.529z"/>
</g>
<g>
</g>
<g>
</g>
<g>
</g>
<g>
</g>
<g>
</g>
<g>
</g>
<g>
</g>
<g>
</g>
<g>
</g>
<g>
</g>
<g>
</g>
<g>
</g>
<g>
</g>
<g>
</g>
<g>
</g>
</svg>
