<?xml version="1.0" encoding="iso-8859-1"?>
<!-- Generator: Adobe Illustrator 19.0.0, SVG Export Plug-In . SVG Version: 6.00 Build 0)  -->
<svg version="1.1" id="Layer_1" xmlns="http://www.w3.org/2000/svg" xmlns:xlink="http://www.w3.org/1999/xlink" x="0px" y="0px"
	 viewBox="0 0 512 512" style="enable-background:new 0 0 512 512;" xml:space="preserve">
<path style="fill:#CE544C;" d="M156.468,512c-1.405,0-2.791-0.52-3.849-1.505l-19.583-15.082l-19.585,15.082
	c-1.056,0.984-2.443,1.505-3.848,1.505c-0.742,0-1.488-0.143-2.197-0.44c-2.051-0.861-3.381-2.836-3.381-5.023v-83.009
	c0-3.017,2.498-5.462,5.579-5.462h46.864c3.081,0,5.579,2.445,5.579,5.462v83.009c0,2.187-1.33,4.161-3.381,5.023
	C157.957,511.857,157.211,512,156.468,512z"/>
<path style="fill:#48587C;" d="M89.596,466.815c-3.047,0-5.516-2.466-5.516-5.51V8.362c0-3.044,2.469-5.511,5.516-5.511H366.14
	c34.067,0,61.78,27.686,61.78,61.716v340.533c0,34.03-27.714,61.715-61.78,61.715H89.596z"/>
<path style="opacity:0.2;fill:#FFFFFF;enable-background:new    ;" d="M366.14,2.85h-33.95c34.067,0,61.78,27.686,61.78,61.716
	V405.1c0,34.03-27.714,61.715-61.78,61.715h33.95c34.067,0,61.78-27.684,61.78-61.715V64.567
	C427.921,30.537,400.207,2.85,366.14,2.85z"/>
<path style="opacity:0.1;enable-background:new    ;" d="M118.03,461.305V8.362c0-3.044,2.469-5.511,5.516-5.511h-33.95
	c-3.047,0-5.516,2.467-5.516,5.511v452.942c0,3.044,2.469,5.51,5.516,5.51h33.95C120.499,466.815,118.03,464.349,118.03,461.305z"/>
<rect x="84.083" y="218.175" style="fill:#DCE0E0;" width="343.834" height="133.611"/>
<path style="fill:#FFFFFF;" d="M388.214,299.875c0,5.747-4.702,10.449-10.449,10.449H247.505c-5.747,0-10.449-4.702-10.449-10.449
	v-10.298c0-5.747,4.702-10.449,10.449-10.449h130.259c5.747,0,10.449,4.702,10.449,10.449L388.214,299.875L388.214,299.875z"/>
<path style="fill:#46D8BA;" d="M362.138,462.504c0,4.165-2.356,7.539-5.264,7.539h-21.066c-2.908,0-5.265-3.374-5.265-7.539V7.538
	c0-4.162,2.356-7.538,5.265-7.538h21.066c2.908,0,5.264,3.376,5.264,7.538V462.504z"/>
<g>
</g>
<g>
</g>
<g>
</g>
<g>
</g>
<g>
</g>
<g>
</g>
<g>
</g>
<g>
</g>
<g>
</g>
<g>
</g>
<g>
</g>
<g>
</g>
<g>
</g>
<g>
</g>
<g>
</g>
</svg>
