<?xml version="1.0" encoding="iso-8859-1"?>
<!-- Generator: Adobe Illustrator 19.0.0, SVG Export Plug-In . SVG Version: 6.00 Build 0)  -->
<svg version="1.1" id="Layer_1" xmlns="http://www.w3.org/2000/svg" xmlns:xlink="http://www.w3.org/1999/xlink" x="0px" y="0px"
	 viewBox="0 0 512 512" style="enable-background:new 0 0 512 512;" xml:space="preserve">
<path style="fill:#DCE0E0;" d="M69.09,511.006C30.994,511.006,0,479.87,0,441.599V47.464c0-3.422,2.763-6.197,6.168-6.197h499.663
	c3.407,0,6.168,2.774,6.168,6.197v394.134c0,38.271-30.993,69.407-69.09,69.407H69.09z"/>
<path style="fill:#D4554B;" d="M505.832,41.267H6.168C2.763,41.267,0,44.041,0,47.464V161.49h512V47.464
	C512,44.041,509.238,41.267,505.832,41.267z"/>
<path style="opacity:0.2;fill:#FFFFFF;enable-background:new    ;" d="M505.832,41.267h-43.655c3.407,0,6.169,2.774,6.169,6.197
	V161.49H512V47.464C512,44.041,509.238,41.267,505.832,41.267z"/>
<path style="opacity:0.1;enable-background:new    ;" d="M475.786,476.969H101.965c-38.096,0-69.09-31.136-69.09-69.407V41.267
	H6.168C2.763,41.267,0,44.041,0,47.464v394.134c0,38.271,30.994,69.407,69.09,69.407H442.91c28.024,0,52.187-16.858,63.015-41.001
	C496.811,474.462,486.585,476.969,475.786,476.969z"/>
<g>
	<path style="fill:#FFFFFF;" d="M84.105,261.375h53.501c2.188,0,3.962-1.772,3.962-3.96v-53.503c0-2.187-1.774-3.962-3.962-3.962
		H84.105c-2.189,0-3.964,1.775-3.964,3.962v53.503C80.141,259.602,81.916,261.375,84.105,261.375z"/>
	<path style="fill:#FFFFFF;" d="M181.2,261.375h53.499c2.189,0,3.964-1.772,3.964-3.96v-53.503c0-2.187-1.775-3.962-3.964-3.962
		H181.2c-2.189,0-3.964,1.775-3.964,3.962v53.503C177.236,259.602,179.011,261.375,181.2,261.375z"/>
	<path style="fill:#FFFFFF;" d="M277.301,261.375h53.501c2.189,0,3.964-1.772,3.964-3.96v-53.503c0-2.187-1.775-3.962-3.964-3.962
		h-53.501c-2.187,0-3.962,1.775-3.962,3.962v53.503C273.339,259.602,275.113,261.375,277.301,261.375z"/>
	<path style="fill:#FFFFFF;" d="M374.396,261.375h53.503c2.185,0,3.96-1.772,3.96-3.96v-53.503c0-2.187-1.775-3.962-3.96-3.962
		h-53.503c-2.188,0-3.962,1.775-3.962,3.962v53.503C370.434,259.602,372.208,261.375,374.396,261.375z"/>
	<path style="fill:#FFFFFF;" d="M84.105,360.451h53.501c2.188,0,3.962-1.773,3.962-3.963v-53.5c0-2.188-1.774-3.965-3.962-3.965
		H84.105c-2.189,0-3.964,1.777-3.964,3.965v53.5C80.141,358.678,81.916,360.451,84.105,360.451z"/>
	<path style="fill:#FFFFFF;" d="M181.2,360.451h53.499c2.189,0,3.964-1.773,3.964-3.963v-53.5c0-2.188-1.775-3.965-3.964-3.965
		H181.2c-2.189,0-3.964,1.777-3.964,3.965v53.5C177.236,358.678,179.011,360.451,181.2,360.451z"/>
	<path style="fill:#FFFFFF;" d="M277.301,360.451h53.501c2.189,0,3.964-1.773,3.964-3.963v-53.5c0-2.188-1.775-3.965-3.964-3.965
		h-53.501c-2.187,0-3.962,1.777-3.962,3.965v53.5C273.339,358.678,275.113,360.451,277.301,360.451z"/>
	<path style="fill:#FFFFFF;" d="M374.396,360.451h53.503c2.185,0,3.96-1.773,3.96-3.963v-53.5c0-2.188-1.775-3.965-3.96-3.965
		h-53.503c-2.188,0-3.962,1.777-3.962,3.965v53.5C370.434,358.678,372.208,360.451,374.396,360.451z"/>
	<path style="fill:#FFFFFF;" d="M84.105,459.524h53.501c2.188,0,3.962-1.773,3.962-3.962v-53.501c0-2.188-1.774-3.964-3.962-3.964
		H84.105c-2.189,0-3.964,1.776-3.964,3.964v53.501C80.141,457.751,81.916,459.524,84.105,459.524z"/>
	<path style="fill:#FFFFFF;" d="M181.2,459.524h53.499c2.189,0,3.964-1.773,3.964-3.962v-53.501c0-2.188-1.775-3.964-3.964-3.964
		H181.2c-2.189,0-3.964,1.776-3.964,3.964v53.501C177.236,457.751,179.011,459.524,181.2,459.524z"/>
	<path style="fill:#FFFFFF;" d="M277.301,459.524h53.501c2.189,0,3.964-1.773,3.964-3.962v-53.501c0-2.188-1.775-3.964-3.964-3.964
		h-53.501c-2.187,0-3.962,1.776-3.962,3.964v53.501C273.339,457.751,275.113,459.524,277.301,459.524z"/>
	<path style="fill:#FFFFFF;" d="M374.396,459.524h53.503c2.185,0,3.96-1.773,3.96-3.962v-53.501c0-2.188-1.775-3.964-3.96-3.964
		h-53.503c-2.188,0-3.962,1.776-3.962,3.964v53.501C370.434,457.751,372.208,459.524,374.396,459.524z"/>
</g>
<g>
	<path style="fill:#41484E;" d="M64.177,0.994c-9.864,0-17.86,8.032-17.86,17.942v55.817c0,9.91,7.996,17.943,17.86,17.943
		c9.863,0,17.858-8.033,17.858-17.943V18.936C82.036,9.027,74.039,0.994,64.177,0.994z"/>
	<path style="fill:#41484E;" d="M140.907,0.994c-9.864,0-17.859,8.032-17.859,17.942v55.817c0,9.91,7.996,17.943,17.859,17.943
		s17.859-8.033,17.859-17.943V18.936C158.765,9.027,150.77,0.994,140.907,0.994z"/>
	<path style="fill:#41484E;" d="M217.634,0.994c-9.863,0-17.858,8.032-17.858,17.942v55.817c0,9.91,7.996,17.943,17.858,17.943
		c9.864,0,17.86-8.033,17.86-17.943V18.936C235.495,9.027,227.499,0.994,217.634,0.994z"/>
	<path style="fill:#41484E;" d="M294.366,0.994c-9.864,0-17.86,8.032-17.86,17.942v55.817c0,9.91,7.996,17.943,17.86,17.943
		c9.865,0,17.858-8.033,17.858-17.943V18.936C312.224,9.027,304.229,0.994,294.366,0.994z"/>
	<path style="fill:#41484E;" d="M371.093,0.994c-9.863,0-17.859,8.032-17.859,17.942v55.817c0,9.91,7.996,17.943,17.859,17.943
		c9.865,0,17.858-8.033,17.858-17.943V18.936C388.953,9.027,380.958,0.994,371.093,0.994z"/>
	<path style="fill:#41484E;" d="M447.824,0.994c-9.865,0-17.86,8.032-17.86,17.942v55.817c0,9.91,7.995,17.943,17.86,17.943
		c9.862,0,17.858-8.033,17.858-17.943V18.936C465.683,9.027,457.686,0.994,447.824,0.994z"/>
</g>
<g>
</g>
<g>
</g>
<g>
</g>
<g>
</g>
<g>
</g>
<g>
</g>
<g>
</g>
<g>
</g>
<g>
</g>
<g>
</g>
<g>
</g>
<g>
</g>
<g>
</g>
<g>
</g>
<g>
</g>
</svg>
