<?xml version="1.0" encoding="iso-8859-1"?>
<!-- Generator: Adobe Illustrator 19.0.0, SVG Export Plug-In . SVG Version: 6.00 Build 0)  -->
<svg version="1.1" id="Layer_1" xmlns="http://www.w3.org/2000/svg" xmlns:xlink="http://www.w3.org/1999/xlink" x="0px" y="0px"
	 viewBox="0 0 511.999 511.999" style="enable-background:new 0 0 511.999 511.999;" xml:space="preserve">
<path style="fill:#48587C;" d="M385.506,384.999c0,70.14-57.982,127-129.507,127l0,0c-71.524,0-129.507-56.86-129.507-127V242.646
	c0-70.141,57.982-127,129.507-127l0,0c71.524,0,129.507,56.859,129.507,127L385.506,384.999L385.506,384.999z"/>
<path style="opacity:0.1;enable-background:new    ;" d="M171.044,384.999V242.646c0-62.69,46.322-114.766,107.231-125.122
	c-7.238-1.231-14.68-1.878-22.275-1.878c-71.524,0-129.507,56.859-129.507,127v142.353C126.492,455.139,184.475,511.999,256,511.999
	c7.596,0,15.038-0.648,22.275-1.878C217.367,499.765,171.044,447.689,171.044,384.999z"/>
<path style="fill:#FCB63E;" d="M227.537,217.03v60.507c0,15.415,12.743,27.911,28.463,27.911s28.463-12.496,28.463-27.911V217.03
	H227.537z"/>
<g>
	<path style="fill:#789DB0;" d="M298.265,90.491c-2.681,0-5.366-1.01-7.43-3.036c-19.208-18.836-50.461-18.836-69.67,0
		c-4.185,4.107-10.905,4.04-15.009-0.146c-4.104-4.185-4.039-10.905,0.146-15.009c27.405-26.874,71.991-26.874,99.395,0
		c4.186,4.105,4.251,10.824,0.146,15.009C303.765,89.428,301.015,90.491,298.265,90.491z"/>
	<path style="fill:#789DB0;" d="M330.624,51.467c-2.681,0-5.365-1.009-7.429-3.035c-37.052-36.332-97.339-36.332-134.39,0
		c-4.185,4.107-10.907,4.04-15.008-0.147c-4.104-4.185-4.037-10.906,0.147-15.008c45.246-44.368,118.867-44.368,164.112,0
		c4.186,4.103,4.252,10.823,0.148,15.008C336.124,50.403,333.375,51.467,330.624,51.467z"/>
</g>
<path style="fill:#FFFFFF;" d="M345.589,211.382c-3.043,0-5.947-1.755-7.271-4.712c-9.854-22.03-28.823-39.321-52.041-47.438
	c-4.149-1.451-6.338-5.991-4.887-10.142c1.452-4.15,5.992-6.333,10.142-4.887c27.333,9.558,49.684,29.956,61.32,55.967
	c1.795,4.013-0.003,8.723-4.017,10.517C347.78,211.158,346.675,211.382,345.589,211.382z"/>
<circle style="fill:#384463;" cx="256" cy="216.68" r="28.463"/>
<path style="opacity:0.1;enable-background:new    ;" d="M249.228,277.537V217.03h0.009c-0.002-0.116-0.009-0.232-0.009-0.349
	c0-11.879,7.279-22.053,17.617-26.319c-3.344-1.379-7.005-2.145-10.846-2.145c-15.72,0-28.463,12.743-28.463,28.463
	c0,0.117,0.007,0.233,0.009,0.349h-0.009v60.507c0,15.415,12.743,27.911,28.463,27.911c3.841,0,7.502-0.751,10.846-2.103
	C256.507,299.162,249.228,289.185,249.228,277.537z"/>
<g>
</g>
<g>
</g>
<g>
</g>
<g>
</g>
<g>
</g>
<g>
</g>
<g>
</g>
<g>
</g>
<g>
</g>
<g>
</g>
<g>
</g>
<g>
</g>
<g>
</g>
<g>
</g>
<g>
</g>
</svg>
