<?xml version="1.0" encoding="iso-8859-1"?>
<!-- Generator: Adobe Illustrator 19.0.0, SVG Export Plug-In . SVG Version: 6.00 Build 0)  -->
<svg version="1.1" id="Layer_1" xmlns="http://www.w3.org/2000/svg" xmlns:xlink="http://www.w3.org/1999/xlink" x="0px" y="0px"
	 viewBox="0 0 512 512" style="enable-background:new 0 0 512 512;" xml:space="preserve">
<path style="fill:#DCE0E0;" d="M512,369.645c0,24.858-20.107,45.009-44.912,45.009H44.912C20.107,414.653,0,394.502,0,369.645
	V142.355c0-24.858,20.107-45.009,44.912-45.009h422.177c24.805,0,44.912,20.15,44.912,45.009V369.645z"/>
<path style="opacity:0.2;fill:#FFFFFF;enable-background:new    ;" d="M467.088,97.348h-19.941c24.805,0,44.912,20.15,44.912,45.009
	v227.288c0,24.858-20.107,45.009-44.912,45.009h19.941c24.805,0,44.912-20.15,44.912-45.009V142.355
	C512,117.498,491.893,97.348,467.088,97.348z"/>
<path style="fill:#46D8BA;" d="M140.126,110.283c0,7.143-5.792,12.935-12.935,12.935H52.817c-7.143,0-12.935-5.792-12.935-12.935
	l0,0c0-7.143,5.792-12.935,12.935-12.935h74.375C134.335,97.348,140.126,103.139,140.126,110.283L140.126,110.283z"/>
<path style="fill:#FCB63E;" d="M411.217,97.348v9.903c0,10.715,8.687,19.402,19.402,19.402s19.402-8.687,19.402-19.402v-9.904
	h-38.804V97.348z"/>
<path style="opacity:0.1;enable-background:new    ;" d="M43.655,369.645V142.355c0-24.858,20.107-45.009,44.912-45.009H44.912
	C20.107,97.348,0,117.498,0,142.355v227.288c0,24.858,20.107,45.009,44.912,45.009h43.655
	C63.762,414.653,43.655,394.502,43.655,369.645z"/>
<g>
	<path style="fill:#4B5254;" d="M78.311,203.994H42.307c-5.928,0-10.752,4.824-10.752,10.751v36.005
		c0,5.927,4.824,10.75,10.752,10.75h36.004c5.928,0,10.752-4.823,10.752-10.75v-36.005C89.063,208.817,84.24,203.994,78.311,203.994
		z"/>
	<path style="fill:#4B5254;" d="M143.652,203.994h-36.003c-5.928,0-10.752,4.824-10.752,10.751v36.005
		c0,5.927,4.824,10.75,10.752,10.75h36.003c5.928,0,10.752-4.823,10.752-10.75v-36.005
		C154.404,208.817,149.581,203.994,143.652,203.994z"/>
	<path style="fill:#4B5254;" d="M172.323,261.499h36.004c5.927,0,10.751-4.822,10.751-10.75v-36.005
		c0-5.927-4.824-10.751-10.751-10.751h-36.004c-5.928,0-10.752,4.824-10.752,10.751v36.005
		C161.571,256.677,166.395,261.499,172.323,261.499z"/>
	<path style="fill:#4B5254;" d="M237.664,261.499h36.005c5.927,0,10.75-4.822,10.75-10.75v-36.005
		c0-5.927-4.823-10.751-10.75-10.751h-36.005c-5.927,0-10.751,4.824-10.751,10.751v36.005
		C226.914,256.677,231.737,261.499,237.664,261.499z"/>
	<path style="fill:#4B5254;" d="M339.01,203.994h-36.003c-5.928,0-10.752,4.824-10.752,10.751v36.005
		c0,5.927,4.824,10.75,10.752,10.75h36.003c5.928,0,10.752-4.823,10.752-10.75v-36.005
		C349.761,208.817,344.938,203.994,339.01,203.994z"/>
	<path style="fill:#4B5254;" d="M368.347,261.499h36.003c5.928,0,10.752-4.822,10.752-10.75v-36.005
		c0-5.927-4.824-10.751-10.752-10.751h-36.003c-5.928,0-10.752,4.824-10.752,10.751v36.005
		C357.596,256.677,362.418,261.499,368.347,261.499z"/>
	<path style="fill:#4B5254;" d="M469.693,203.994h-36.004c-5.928,0-10.752,4.824-10.752,10.751v36.005
		c0,5.927,4.824,10.75,10.752,10.75h36.004c5.928,0,10.752-4.823,10.752-10.75v-36.005
		C480.445,208.817,475.621,203.994,469.693,203.994z"/>
	<path style="fill:#4B5254;" d="M78.311,270.667H42.307c-5.928,0-10.752,4.824-10.752,10.752v36.004
		c0,5.927,4.824,10.751,10.752,10.751h36.004c5.928,0,10.752-4.824,10.752-10.751v-36.004
		C89.063,275.49,84.24,270.667,78.311,270.667z"/>
	<path style="fill:#4B5254;" d="M143.652,270.667h-36.003c-5.928,0-10.752,4.824-10.752,10.752v36.004
		c0,5.927,4.824,10.751,10.752,10.751h36.003c5.928,0,10.752-4.824,10.752-10.751v-36.004
		C154.404,275.49,149.581,270.667,143.652,270.667z"/>
	<path style="fill:#4B5254;" d="M172.323,328.174h36.004c5.927,0,10.751-4.824,10.751-10.751v-36.004
		c0-5.928-4.824-10.752-10.751-10.752h-36.004c-5.928,0-10.752,4.824-10.752,10.752v36.004
		C161.571,323.35,166.395,328.174,172.323,328.174z"/>
	<path style="fill:#4B5254;" d="M237.664,328.174h36.005c5.927,0,10.75-4.824,10.75-10.751v-36.004
		c0-5.928-4.823-10.752-10.75-10.752h-36.005c-5.927,0-10.751,4.824-10.751,10.752v36.004
		C226.914,323.35,231.737,328.174,237.664,328.174z"/>
	<path style="fill:#4B5254;" d="M339.01,270.667h-36.003c-5.928,0-10.752,4.824-10.752,10.752v36.004
		c0,5.927,4.824,10.751,10.752,10.751h36.003c5.928,0,10.752-4.824,10.752-10.751v-36.004
		C349.761,275.49,344.938,270.667,339.01,270.667z"/>
	<path style="fill:#4B5254;" d="M78.311,337.343H42.307c-5.928,0-10.752,4.824-10.752,10.751v36.004
		c0,5.927,4.824,10.751,10.752,10.751h36.004c5.928,0,10.752-4.824,10.752-10.751v-36.004
		C89.063,342.167,84.24,337.343,78.311,337.343z"/>
	<path style="fill:#4B5254;" d="M143.652,337.343h-36.003c-5.928,0-10.752,4.824-10.752,10.751v36.004
		c0,5.927,4.824,10.751,10.752,10.751h36.003c5.928,0,10.752-4.824,10.752-10.751v-36.004
		C154.404,342.167,149.581,337.343,143.652,337.343z"/>
	<path style="fill:#4B5254;" d="M339.01,337.343H172.323c-5.928,0-10.752,4.824-10.752,10.751v36.004
		c0,5.927,4.824,10.751,10.752,10.751H339.01c5.928,0,10.752-4.824,10.752-10.751v-36.004
		C349.761,342.167,344.938,337.343,339.01,337.343z"/>
	<path style="fill:#4B5254;" d="M404.351,337.343h-36.003c-5.928,0-10.752,4.824-10.752,10.751v36.004
		c0,5.927,4.824,10.751,10.752,10.751h36.003c5.928,0,10.752-4.824,10.752-10.751v-36.004
		C415.102,342.167,410.279,337.343,404.351,337.343z"/>
	<path style="fill:#4B5254;" d="M469.693,337.343h-36.004c-5.928,0-10.752,4.824-10.752,10.751v36.004
		c0,5.927,4.824,10.751,10.752,10.751h36.004c5.928,0,10.752-4.824,10.752-10.751v-36.004
		C480.445,342.167,475.621,337.343,469.693,337.343z"/>
	<path style="fill:#4B5254;" d="M469.693,270.667H368.347c-5.928,0-10.752,4.824-10.752,10.752v36.004
		c0,5.927,4.824,10.751,10.752,10.751h101.346c5.928,0,10.752-4.824,10.752-10.751v-36.004
		C480.445,275.49,475.621,270.667,469.693,270.667z"/>
	<path style="fill:#4B5254;" d="M31.555,176.298c0,5.928,4.851,10.779,10.779,10.779h35.95c5.928,0,10.779-4.851,10.779-10.779
		v-20.453c0-5.928-4.851-10.779-10.779-10.779h-35.95c-5.928,0-10.779,4.851-10.779,10.779
		C31.555,155.845,31.555,176.298,31.555,176.298z"/>
	<path style="fill:#4B5254;" d="M96.897,176.298c0,5.928,4.851,10.779,10.779,10.779h35.95c5.928,0,10.779-4.851,10.779-10.779
		v-20.453c0-5.928-4.851-10.779-10.779-10.779h-35.95c-5.928,0-10.779,4.851-10.779,10.779V176.298z"/>
	<path style="fill:#4B5254;" d="M161.571,176.298c0,5.928,4.851,10.779,10.779,10.779h35.95c5.928,0,10.779-4.851,10.779-10.779
		v-20.453c0-5.928-4.851-10.779-10.779-10.779h-35.95c-5.928,0-10.779,4.851-10.779,10.779V176.298z"/>
	<path style="fill:#4B5254;" d="M226.912,176.298c0,5.928,4.851,10.779,10.779,10.779h35.95c5.928,0,10.779-4.851,10.779-10.779
		v-20.453c0-5.928-4.851-10.779-10.779-10.779h-35.95c-5.928,0-10.779,4.851-10.779,10.779L226.912,176.298L226.912,176.298z"/>
	<path style="fill:#4B5254;" d="M292.254,176.298c0,5.928,4.851,10.779,10.779,10.779h35.95c5.928,0,10.779-4.851,10.779-10.779
		v-20.453c0-5.928-4.851-10.779-10.779-10.779h-35.95c-5.928,0-10.779,4.851-10.779,10.779V176.298z"/>
	<path style="fill:#4B5254;" d="M357.595,176.298c0,5.928,4.851,10.779,10.779,10.779h35.95c5.928,0,10.779-4.851,10.779-10.779
		v-20.453c0-5.928-4.851-10.779-10.779-10.779h-35.95c-5.928,0-10.779,4.851-10.779,10.779V176.298z"/>
	<path style="fill:#4B5254;" d="M433.716,145.066c-5.928,0-10.779,4.851-10.779,10.779v20.453c0,5.928,4.851,10.779,10.779,10.779
		h35.95c5.928,0,10.779-4.851,10.779-10.779v-20.453c0-5.928-4.851-10.779-10.779-10.779H433.716z"/>
</g>
<g>
</g>
<g>
</g>
<g>
</g>
<g>
</g>
<g>
</g>
<g>
</g>
<g>
</g>
<g>
</g>
<g>
</g>
<g>
</g>
<g>
</g>
<g>
</g>
<g>
</g>
<g>
</g>
<g>
</g>
</svg>
